{
.appVersion = "925";
classes = (
{
automatic = 1;

glyphs = (
{
glyphname = A;
lastChange = "2016-09-30 15:46:23 +0000";
layers = (
{
anchors = (
{
name = bottom;
position = "{284, 0}";
},
{
name = ogonek;
position = "{511, 10}";
},
{
name = top;
position = "{284, 650}";
}
);
layerId = "28637767-9EF2-44E2-B459-E4A39AD280E7";
paths = (
{
closed = 1;
nodes = (
"76 0 LINE",
"144 200 LINE",
"399 200 LINE",
"467 0 LINE",
"546 0 LINE",
"331 650 LINE",
"242 650 LINE",
"23 0 LINE"
);
},
{
closed = 1;
nodes = (
"273 592 LINE",
"386 241 LINE",
"158 241 LINE"
);
}
);
width = 568;
},
{
anchors = (
{
name = bottom;
position = "{304, 0}";
},
{
name = ogonek;
position = "{547, 10}";
},
{
name = top;
position = "{304, 650}";
}
);
layerId = "85DC84FC-A9CD-42A1-AFE4-850615EB4B70";
paths = (
{
closed = 1;
nodes = (
"103 0 LINE",
"162 182 LINE",
"388 182 LINE",
"444 0 LINE",
"590 0 LINE",
"388 650 LINE",
"235 650 LINE",
"19 0 LINE"
);
},
{
closed = 1;
nodes = (
"278 551 LINE",
"280 551 LINE",
"369 245 LINE",
"182 245 LINE"
);
}
);
width = 608;
}
);
note = A;
unicode = 0041;
},
{
glyphname = Aacute;
lastChange = "2016-09-16 17:56:47 +0000";
layers = (
{
layerId = "28637767-9EF2-44E2-B459-E4A39AD280E7";
paths = (
{
closed = 1;
nodes = (
"76 0 LINE",
"144 200 LINE",
"399 200 LINE",
"467 0 LINE",
"546 0 LINE",
"331 650 LINE",
"242 650 LINE",
"23 0 LINE"
);
},
{
closed = 1;
nodes = (
"273 592 LINE",
"386 241 LINE",
"158 241 LINE"
);
},
{
closed = 1;
nodes = (
"395 841 LINE",
"332 856 LINE",
"255 711 LINE",
"293 706 LINE"
);
}
);
width = 568;
},
{
layerId = "85DC84FC-A9CD-42A1-AFE4-850615EB4B70";
paths = (
{
closed = 1;
nodes = (
"103 0 LINE",
"162 182 LINE",
"388 182 LINE",
"444 0 LINE",
"590 0 LINE",
"388 650 LINE",
"235 650 LINE",
"19 0 LINE"
);
},
{
closed = 1;
nodes = (
"278 551 LINE",
"280 551 LINE",
"369 245 LINE",
"182 245 LINE"
);
},
{
closed = 1;
nodes = (
"440 834 LINE",
"332 865 LINE",
"262 713 LINE",
"319 704 LINE"
);
}
);
width = 608;
}
);
note = Aacute;
unicode = 00C1;
},
{
glyphname = Abreve;
lastChange = "2016-09-16 17:56:47 +0000";
layers = (
{
layerId = "28637767-9EF2-44E2-B459-E4A39AD280E7";
paths = (
{
closed = 1;
nodes = (
"76 0 LINE",
"144 200 LINE",
"399 200 LINE",
"467 0 LINE",
"546 0 LINE",
"331 650 LINE",
"242 650 LINE",
"23 0 LINE"
);
},
{
closed = 1;
nodes = (
"273 592 LINE",
"386 241 LINE",
"158 241 LINE"
);
},
{
closed = 1;
nodes = (
"411 711 OFFCURVE",
"423 810 OFFCURVE",
"423 810 CURVE",
"378 816 LINE",
"378 814 LINE",
"378 814 OFFCURVE",
"365 755 OFFCURVE",
"284 755 CURVE SMOOTH",
"204 755 OFFCURVE",
"192 814 OFFCURVE",
"192 814 CURVE",
"192 816 LINE",
"147 810 LINE",
"147 810 OFFCURVE",
"157 711 OFFCURVE",
"284 711 CURVE SMOOTH"
);
}
);
width = 568;
},
{
layerId = "85DC84FC-A9CD-42A1-AFE4-850615EB4B70";
paths = (
{
closed = 1;
nodes = (
"103 0 LINE",
"162 182 LINE",
"388 182 LINE",
"444 0 LINE",
"590 0 LINE",
"388 650 LINE",
"235 650 LINE",
"19 0 LINE"
);
},
{
closed = 1;
nodes = (
"278 551 LINE",
"280 551 LINE",
"369 245 LINE",
"182 245 LINE"
);
},
{
closed = 1;
nodes = (
"463 698 OFFCURVE",
"459 821 OFFCURVE",
"459 821 CURVE",
"392 830 LINE",
"392 826 LINE",
"392 826 OFFCURVE",
"389 771 OFFCURVE",
"308 771 CURVE SMOOTH",
"229 771 OFFCURVE",
"225 826 OFFCURVE",
"225 826 CURVE",
"225 830 LINE",
"159 821 LINE",
"159 821 OFFCURVE",
"154 698 OFFCURVE",
"308 698 CURVE SMOOTH"
);
}
);
width = 608;
}
);
note = Abreve;
unicode = 0102;
},
{
glyphname = Acircumflex;
lastChange = "2016-09-16 17:56:47 +0000";
layers = (
{
layerId = "28637767-9EF2-44E2-B459-E4A39AD280E7";
paths = (
{
closed = 1;
nodes = (
"76 0 LINE",
"144 200 LINE",
"399 200 LINE",
"467 0 LINE",
"546 0 LINE",
"331 650 LINE",
"242 650 LINE",
"23 0 LINE"
);
},
{
closed = 1;
nodes = (
"273 592 LINE",
"386 241 LINE",
"158 241 LINE"
);
},
{
closed = 1;
nodes = (
"284 829 LINE",
"394 732 LINE",
"412 764 LINE",
"304 878 LINE",
"265 878 LINE",
"155 764 LINE",
"174 732 LINE"
);
}
);
width = 568;
},
{
layerId = "85DC84FC-A9CD-42A1-AFE4-850615EB4B70";
paths = (
{
closed = 1;
nodes = (
"103 0 LINE",
"162 182 LINE",
"388 182 LINE",
"444 0 LINE",
"590 0 LINE",
"388 650 LINE",
"235 650 LINE",
"19 0 LINE"
);
},
{
closed = 1;
nodes = (
"278 551 LINE",
"280 551 LINE",
"369 245 LINE",
"182 245 LINE"
);
},
{
closed = 1;
nodes = (
"305 806 LINE",
"409 721 LINE",
"437 766 LINE",
"340 888 LINE",
"270 888 LINE",
"172 766 LINE",
"201 721 LINE"
);
}
);
width = 608;
}
);
note = Acircumflex;
unicode = 00C2;
},
{
glyphname = Adieresis;
lastChange = "2016-09-16 17:56:47 +0000";
layers = (
{
layerId = "28637767-9EF2-44E2-B459-E4A39AD280E7";
paths = (
{
closed = 1;
nodes = (
"76 0 LINE",
"144 200 LINE",
"399 200 LINE",
"467 0 LINE",
"546 0 LINE",
"331 650 LINE",
"242 650 LINE",
"23 0 LINE"
);
},
{
closed = 1;
nodes = (
"273 592 LINE",
"386 241 LINE",
"158 241 LINE"
);
},
{
closed = 1;
nodes = (
"220 740 OFFCURVE",
"228 744 OFFCURVE",
"236 750 CURVE",
"243 758 OFFCURVE",
"247 768 OFFCURVE",
"247 779 CURVE SMOOTH",
"247 790 OFFCURVE",
"243 801 OFFCURVE",
"236 809 CURVE",
"228 815 OFFCURVE",
"220 819 OFFCURVE",
"210 819 CURVE SMOOTH",
"200 819 OFFCURVE",
"191 815 OFFCURVE",
"183 809 CURVE",
"175 801 OFFCURVE",
"172 790 OFFCURVE",
"172 779 CURVE SMOOTH",
"172 768 OFFCURVE",
"175 758 OFFCURVE",
"183 750 CURVE",
"191 744 OFFCURVE",
"200 740 OFFCURVE",
"210 740 CURVE SMOOTH"
);
},
{
closed = 1;
nodes = (
"372 740 OFFCURVE",
"381 744 OFFCURVE",
"389 750 CURVE",
"397 758 OFFCURVE",
"401 768 OFFCURVE",
"401 779 CURVE SMOOTH",
"401 790 OFFCURVE",
"397 801 OFFCURVE",
"389 809 CURVE",
"381 815 OFFCURVE",
"372 819 OFFCURVE",
"363 819 CURVE SMOOTH",
"354 819 OFFCURVE",
"345 815 OFFCURVE",
"337 809 CURVE",
"329 801 OFFCURVE",
"326 790 OFFCURVE",
"326 779 CURVE SMOOTH",
"326 768 OFFCURVE",
"329 758 OFFCURVE",
"337 750 CURVE",
"345 744 OFFCURVE",
"354 740 OFFCURVE",
"363 740 CURVE SMOOTH"
);
}
);
width = 568;
},
{
layerId = "85DC84FC-A9CD-42A1-AFE4-850615EB4B70";
paths = (
{
closed = 1;
nodes = (
"103 0 LINE",
"162 182 LINE",
"388 182 LINE",
"444 0 LINE",
"590 0 LINE",
"388 650 LINE",
"235 650 LINE",
"19 0 LINE"
);
},
{
closed = 1;
nodes = (
"278 551 LINE",
"280 551 LINE",
"369 245 LINE",
"182 245 LINE"
);
},
{
closed = 1;
nodes = (
"229 717 OFFCURVE",
"245 723 OFFCURVE",
"258 735 CURVE",
"271 749 OFFCURVE",
"278 768 OFFCURVE",
"278 787 CURVE SMOOTH",
"278 806 OFFCURVE",
"271 824 OFFCURVE",
"258 839 CURVE",
"245 850 OFFCURVE",
"229 856 OFFCURVE",
"212 856 CURVE SMOOTH",
"195 856 OFFCURVE",
"179 850 OFFCURVE",
"166 839 CURVE",
"152 824 OFFCURVE",
"146 806 OFFCURVE",
"146 787 CURVE SMOOTH",
"146 768 OFFCURVE",
"152 749 OFFCURVE",
"166 735 CURVE",
"179 723 OFFCURVE",
"195 717 OFFCURVE",
"212 717 CURVE SMOOTH"
);
},
{
closed = 1;
nodes = (
"415 717 OFFCURVE",
"431 723 OFFCURVE",
"444 735 CURVE",
"457 749 OFFCURVE",
"464 768 OFFCURVE",
"464 787 CURVE SMOOTH",
"464 806 OFFCURVE",
"457 824 OFFCURVE",
"444 839 CURVE",
"431 850 OFFCURVE",
"415 856 OFFCURVE",
"398 856 CURVE SMOOTH",
"381 856 OFFCURVE",
"364 850 OFFCURVE",
"352 839 CURVE",
"338 824 OFFCURVE",
"332 806 OFFCURVE",
"332 787 CURVE SMOOTH",
"332 768 OFFCURVE",
"338 749 OFFCURVE",
"352 735 CURVE SMOOTH",
"364 723 OFFCURVE",
"381 717 OFFCURVE",
"398 717 CURVE SMOOTH"
);
}
);
width = 608;
}
);
note = Adieresis;
unicode = 00C4;
},
{
glyphname = Agrave;
lastChange = "2016-09-16 17:56:47 +0000";
layers = (
{
layerId = "28637767-9EF2-44E2-B459-E4A39AD280E7";
paths = (
{
closed = 1;
nodes = (
"76 0 LINE",
"144 200 LINE",
"399 200 LINE",
"467 0 LINE",
"546 0 LINE",
"331 650 LINE",
"242 650 LINE",
"23 0 LINE"
);
},
{
closed = 1;
nodes = (
"273 592 LINE",
"386 241 LINE",
"158 241 LINE"
);
},
{
closed = 1;
nodes = (
"320 716 LINE",
"237 859 LINE",
"175 843 LINE",
"280 708 LINE"
);
}
);
width = 568;
},
{
layerId = "85DC84FC-A9CD-42A1-AFE4-850615EB4B70";
paths = (
{
closed = 1;
nodes = (
"103 0 LINE",
"162 182 LINE",
"388 182 LINE",
"444 0 LINE",
"590 0 LINE",
"388 650 LINE",
"235 650 LINE",
"19 0 LINE"
);
},
{
closed = 1;
nodes = (
"278 551 LINE",
"280 551 LINE",
"369 245 LINE",
"182 245 LINE"
);
},
{
closed = 1;
nodes = (
"358 726 LINE",
"273 873 LINE",
"167 838 LINE",
"296 709 LINE"
);
}
);
width = 608;
}
);
note = Agrave;
unicode = 00C0;
},
{
glyphname = Amacron;
lastChange = "2016-09-16 17:56:47 +0000";
layers = (
{
layerId = "28637767-9EF2-44E2-B459-E4A39AD280E7";
paths = (
{
closed = 1;
nodes = (
"76 0 LINE",
"144 200 LINE",
"399 200 LINE",
"467 0 LINE",
"546 0 LINE",
"331 650 LINE",
"242 650 LINE",
"23 0 LINE"
);
},
{
closed = 1;
nodes = (
"273 592 LINE",
"386 241 LINE",
"158 241 LINE"
);
},
{
closed = 1;
nodes = (
"378 771 LINE",
"378 807 LINE",
"192 807 LINE",
"192 771 LINE"
);
}
);
width = 568;
},
{
layerId = "85DC84FC-A9CD-42A1-AFE4-850615EB4B70";
paths = (
{
closed = 1;
nodes = (
"103 0 LINE",
"162 182 LINE",
"388 182 LINE",
"444 0 LINE",
"590 0 LINE",
"388 650 LINE",
"235 650 LINE",
"19 0 LINE"
);
},
{
closed = 1;
nodes = (
"278 551 LINE",
"280 551 LINE",
"369 245 LINE",
"182 245 LINE"
);
},
{
closed = 1;
nodes = (
"415 759 LINE",
"415 817 LINE",
"201 817 LINE",
"201 759 LINE"
);
}
);
width = 608;
}
);
note = Amacron;
unicode = 0100;
},
{
glyphname = Aogonek;
lastChange = "2016-09-16 17:56:47 +0000";
layers = (
{
layerId = "28637767-9EF2-44E2-B459-E4A39AD280E7";
paths = (
{
closed = 1;
nodes = (
"529 -218 LINE",
"475 -218 OFFCURVE",
"424 -204 OFFCURVE",
"424 -135 CURVE SMOOTH",
"424 -57 OFFCURVE",
"486 -12 OFFCURVE",
"505 0 CURVE",
"546 0 LINE",
"331 650 LINE",
"242 650 LINE",
"23 0 LINE",
"76 0 LINE",
"144 200 LINE",
"399 200 LINE",
"466 2 LINE",
"429 -23 OFFCURVE",
"374 -72 OFFCURVE",
"374 -139 CURVE SMOOTH",
"374 -233 OFFCURVE",
"454 -250 OFFCURVE",
"529 -250 CURVE"
);
},
{
closed = 1;
nodes = (
"273 592 LINE",
"386 241 LINE",
"158 241 LINE"
);
}
);
width = 568;
},
{
layerId = "85DC84FC-A9CD-42A1-AFE4-850615EB4B70";
paths = (
{
closed = 1;
nodes = (
"509 -201 LINE",
"457 -201 OFFCURVE",
"433 -186 OFFCURVE",
"433 -123 CURVE SMOOTH",
"433 -49 OFFCURVE",
"479 -13 OFFCURVE",
"502 0 CURVE",
"590 0 LINE",
"388 650 LINE",
"235 650 LINE",
"19 0 LINE",
"103 0 LINE",
"162 182 LINE",
"388 182 LINE",
"442 6 LINE",
"398 -22 OFFCURVE",
"345 -70 OFFCURVE",
"345 -133 CURVE SMOOTH",
"345 -232 OFFCURVE",
"422 -250 OFFCURVE",
"509 -250 CURVE"
);
},
{
closed = 1;
nodes = (
"278 551 LINE",
"280 551 LINE",
"369 245 LINE",
"182 245 LINE"
);
}
);
width = 608;
}
);
note = Aogonek;
unicode = 0104;
},
{
glyphname = Aring;
lastChange = "2016-09-16 17:56:47 +0000";
layers = (
{
layerId = "28637767-9EF2-44E2-B459-E4A39AD280E7";
paths = (
{
closed = 1;
nodes = (
"76 0 LINE",
"144 200 LINE",
"399 200 LINE",
"467 0 LINE",
"546 0 LINE",
"331 650 LINE",
"242 650 LINE",
"23 0 LINE"
);
},
{
closed = 1;
nodes = (
"273 592 LINE",
"386 241 LINE",
"158 241 LINE"
);
},
{
closed = 1;
nodes = (
"335 686 OFFCURVE",
"373 717 OFFCURVE",
"373 779 CURVE SMOOTH",
"373 840 OFFCURVE",
"333 873 OFFCURVE",
"284 873 CURVE SMOOTH",
"234 873 OFFCURVE",
"195 840 OFFCURVE",
"195 779 CURVE SMOOTH",
"195 717 OFFCURVE",
"232 686 OFFCURVE",
"284 686 CURVE SMOOTH"
);
},
{
closed = 1;
nodes = (
"250 712 OFFCURVE",
"223 732 OFFCURVE",
"223 779 CURVE SMOOTH",
"223 826 OFFCURVE",
"251 846 OFFCURVE",
"284 846 CURVE SMOOTH",
"317 846 OFFCURVE",
"344 826 OFFCURVE",
"344 779 CURVE SMOOTH",
"344 732 OFFCURVE",
"318 712 OFFCURVE",
"284 712 CURVE SMOOTH"
);
}
);
width = 568;
},
{
layerId = "85DC84FC-A9CD-42A1-AFE4-850615EB4B70";
paths = (
{
closed = 1;
nodes = (
"103 0 LINE",
"162 182 LINE",
"388 182 LINE",
"444 0 LINE",
"590 0 LINE",
"388 650 LINE",
"235 650 LINE",
"19 0 LINE"
);
},
{
closed = 1;
nodes = (
"278 551 LINE",
"280 551 LINE",
"369 245 LINE",
"182 245 LINE"
);
},
{
closed = 1;
nodes = (
"366 683 OFFCURVE",
"410 723 OFFCURVE",
"410 791 CURVE SMOOTH",
"410 859 OFFCURVE",
"363 898 OFFCURVE",
"305 898 CURVE SMOOTH",
"245 898 OFFCURVE",
"200 859 OFFCURVE",
"200 791 CURVE SMOOTH",
"200 723 OFFCURVE",
"241 683 OFFCURVE",
"305 683 CURVE SMOOTH"
);
},
{
closed = 1;
nodes = (
"270 726 OFFCURVE",
"246 747 OFFCURVE",
"246 792 CURVE SMOOTH",
"246 836 OFFCURVE",
"273 856 OFFCURVE",
"305 856 CURVE SMOOTH",
"337 856 OFFCURVE",
"364 836 OFFCURVE",
"364 792 CURVE SMOOTH",
"364 747 OFFCURVE",
"340 726 OFFCURVE",
"305 726 CURVE SMOOTH"
);
}
);
width = 608;
}
);
note = Aring;
unicode = 00C5;
},
{
glyphname = Atilde;
lastChange = "2016-09-16 17:56:47 +0000";
layers = (
{
layerId = "28637767-9EF2-44E2-B459-E4A39AD280E7";
paths = (
{
closed = 1;
nodes = (
"76 0 LINE",
"144 200 LINE",
"399 200 LINE",
"467 0 LINE",
"546 0 LINE",
"331 650 LINE",
"242 650 LINE",
"23 0 LINE"
);
},
{
closed = 1;
nodes = (
"273 592 LINE",
"386 241 LINE",
"158 241 LINE"
);
},
{
closed = 1;
nodes = (
"429 730 OFFCURVE",
"452 781 OFFCURVE",
"452 781 CURVE",
"429 806 LINE",
"429 806 OFFCURVE",
"414 779 OFFCURVE",
"378 779 CURVE SMOOTH",
"327 779 OFFCURVE",
"289 825 OFFCURVE",
"226 825 CURVE SMOOTH",
"161 825 OFFCURVE",
"130 762 OFFCURVE",
"130 762 CURVE",
"153 737 LINE",
"153 737 OFFCURVE",
"174 776 OFFCURVE",
"213 776 CURVE SMOOTH",
"267 776 OFFCURVE",
"308 730 OFFCURVE",
"367 730 CURVE SMOOTH"
);
}
);
width = 568;
},
{
layerId = "85DC84FC-A9CD-42A1-AFE4-850615EB4B70";
paths = (
{
closed = 1;
nodes = (
"103 0 LINE",
"162 182 LINE",
"388 182 LINE",
"444 0 LINE",
"590 0 LINE",
"388 650 LINE",
"235 650 LINE",
"19 0 LINE"
);
},
{
closed = 1;
nodes = (
"278 551 LINE",
"280 551 LINE",
"369 245 LINE",
"182 245 LINE"
);
},
{
closed = 1;
nodes = (
"464 726 OFFCURVE",
"490 805 OFFCURVE",
"490 805 CURVE",
"454 840 LINE",
"454 840 OFFCURVE",
"440 808 OFFCURVE",
"404 808 CURVE SMOOTH",
"353 808 OFFCURVE",
"325 855 OFFCURVE",
"252 855 CURVE SMOOTH",
"166 855 OFFCURVE",
"129 765 OFFCURVE",
"129 765 CURVE",
"165 729 LINE",
"165 729 OFFCURVE",
"187 774 OFFCURVE",
"223 774 CURVE SMOOTH",
"279 774 OFFCURVE",
"313 726 OFFCURVE",
"378 726 CURVE SMOOTH"
);
}
);
width = 608;
}
);
note = Atilde;
unicode = 00C3;
},
{
glyphname = AE;
lastChange = "2016-09-16 17:56:47 +0000";
layers = (
{
layerId = "28637767-9EF2-44E2-B459-E4A39AD280E7";
paths = (
{
closed = 1;
nodes = (
"45 0 LINE",
"161 205 LINE",
"381 205 LINE",
"381 0 LINE",
"753 0 LINE",
"753 48 LINE",
"457 48 LINE",
"457 306 LINE",
"708 306 LINE",
"708 352 LINE",
"457 352 LINE",
"457 602 LINE",
"732 602 LINE",
"732 650 LINE",
"359 650 LINE",
"-12 0 LINE"
);
},
{
closed = 1;
nodes = (
"377 602 LINE",
"381 602 LINE",
"381 246 LINE",
"183 246 LINE"
);
}
);
width = 789;
},
{
layerId = "85DC84FC-A9CD-42A1-AFE4-850615EB4B70";
paths = (
{
closed = 1;
nodes = (
"73 0 LINE",
"175 188 LINE",
"385 188 LINE",
"385 0 LINE",
"788 0 LINE",
"788 72 LINE",
"523 72 LINE",
"523 294 LINE",
"745 294 LINE",
"745 364 LINE",
"523 364 LINE",
"523 578 LINE",
"774 578 LINE",
"774 650 LINE",
"348 650 LINE",
"-14 0 LINE"
);
},
{
closed = 1;
nodes = (
"378 578 LINE",
"385 578 LINE",
"385 252 LINE",
"209 252 LINE"
);
}
);
width = 822;
}
);
note = AE;
unicode = 00C6;
},
{
glyphname = B;
lastChange = "2016-09-16 17:56:47 +0000";
layers = (
{
layerId = "28637767-9EF2-44E2-B459-E4A39AD280E7";
paths = (
{
closed = 1;
nodes = (
"259 0 LINE SMOOTH",
"420 0 OFFCURVE",
"494 69 OFFCURVE",
"494 184 CURVE SMOOTH",
"494 268 OFFCURVE",
"443 321 OFFCURVE",
"369 341 CURVE",
"415 365 OFFCURVE",
"463 410 OFFCURVE",
"463 488 CURVE SMOOTH",
"463 582 OFFCURVE",
"392 650 OFFCURVE",
"258 650 CURVE SMOOTH",
"94 650 LINE",
"94 0 LINE"
);
},
{
closed = 1;
nodes = (
"170 315 LINE",
"292 315 LINE SMOOTH",
"364 315 OFFCURVE",
"419 277 OFFCURVE",
"419 187 CURVE SMOOTH",
"419 90 OFFCURVE",
"364 44 OFFCURVE",
"256 44 CURVE SMOOTH",
"170 44 LINE"
);
},
{
closed = 1;
nodes = (
"170 606 LINE",
"255 606 LINE SMOOTH",
"333 606 OFFCURVE",
"390 568 OFFCURVE",
"390 483 CURVE SMOOTH",
"390 382 OFFCURVE",
"322 356 OFFCURVE",
"288 356 CURVE SMOOTH",
"170 356 LINE"
);
}
);
width = 542;
},
{
layerId = "85DC84FC-A9CD-42A1-AFE4-850615EB4B70";
paths = (
{
closed = 1;
nodes = (
"280 0 LINE SMOOTH",
"450 0 OFFCURVE",
"533 77 OFFCURVE",
"533 187 CURVE SMOOTH",
"533 265 OFFCURVE",
"480 316 OFFCURVE",
"408 339 CURVE",
"457 364 OFFCURVE",
"505 408 OFFCURVE",
"505 481 CURVE SMOOTH",
"505 567 OFFCURVE",
"436 650 OFFCURVE",
"275 650 CURVE SMOOTH",
"77 650 LINE",
"77 0 LINE"
);
},
{
closed = 1;
nodes = (
"215 301 LINE",
"304 301 LINE SMOOTH",
"355 301 OFFCURVE",
"393 274 OFFCURVE",
"393 192 CURVE SMOOTH",
"393 104 OFFCURVE",
"347 65 OFFCURVE",
"277 65 CURVE SMOOTH",
"215 65 LINE"
);
},
{
closed = 1;
nodes = (
"215 585 LINE",
"271 585 LINE SMOOTH",
"326 585 OFFCURVE",
"370 555 OFFCURVE",
"370 473 CURVE SMOOTH",
"370 385 OFFCURVE",
"326 361 OFFCURVE",
"297 361 CURVE SMOOTH",
"215 361 LINE"
);
}
);
width = 569;
}
);
note = B;
unicode = 0042;
},
{
glyphname = C;
lastChange = "2016-09-16 17:56:47 +0000";
layers = (
{
layerId = "28637767-9EF2-44E2-B459-E4A39AD280E7";
paths = (
{
closed = 1;
nodes = (
"487 -10 OFFCURVE",
"550 106 OFFCURVE",
"550 106 CURVE",
"522 138 LINE",
"522 138 OFFCURVE",
"462 40 OFFCURVE",
"342 40 CURVE SMOOTH",
"211 40 OFFCURVE",
"129 131 OFFCURVE",
"129 321 CURVE SMOOTH",
"129 513 OFFCURVE",
"209 609 OFFCURVE",
"336 609 CURVE SMOOTH",
"424 609 OFFCURVE",
"510 556 OFFCURVE",
"510 556 CURVE",
"519 604 LINE",
"519 604 OFFCURVE",
"431 659 OFFCURVE",
"328 659 CURVE SMOOTH",
"158 659 OFFCURVE",
"48 527 OFFCURVE",
"48 319 CURVE SMOOTH",
"48 114 OFFCURVE",
"153 -10 OFFCURVE",
"333 -10 CURVE SMOOTH"
);
}
);
width = 570;
},
{
layerId = "85DC84FC-A9CD-42A1-AFE4-850615EB4B70";
paths = (
{
closed = 1;
nodes = (
"504 -11 OFFCURVE",
"566 109 OFFCURVE",
"566 109 CURVE",
"522 157 LINE",
"522 157 OFFCURVE",
"463 64 OFFCURVE",
"356 64 CURVE SMOOTH",
"245 64 OFFCURVE",
"188 131 OFFCURVE",
"188 325 CURVE SMOOTH",
"188 519 OFFCURVE",
"240 585 OFFCURVE",
"349 585 CURVE SMOOTH",
"423 585 OFFCURVE",
"518 536 OFFCURVE",
"518 536 CURVE",
"532 609 LINE",
"532 609 OFFCURVE",
"435 660 OFFCURVE",
"332 660 CURVE SMOOTH",
"145 660 OFFCURVE",
"36 525 OFFCURVE",
"36 320 CURVE SMOOTH",
"36 119 OFFCURVE",
"137 -11 OFFCURVE",
"337 -11 CURVE SMOOTH"
);
}
);
width = 576;
}
);
note = C;
unicode = 0043;
},
{
glyphname = Cacute;
lastChange = "2016-09-16 17:56:47 +0000";
layers = (
{
layerId = "28637767-9EF2-44E2-B459-E4A39AD280E7";
paths = (
{
closed = 1;
nodes = (
"487 -10 OFFCURVE",
"550 106 OFFCURVE",
"550 106 CURVE",
"522 138 LINE",
"522 138 OFFCURVE",
"462 40 OFFCURVE",
"342 40 CURVE SMOOTH",
"211 40 OFFCURVE",
"129 131 OFFCURVE",
"129 321 CURVE SMOOTH",
"129 513 OFFCURVE",
"209 609 OFFCURVE",
"336 609 CURVE SMOOTH",
"424 609 OFFCURVE",
"510 556 OFFCURVE",
"510 556 CURVE",
"519 604 LINE",
"519 604 OFFCURVE",
"431 659 OFFCURVE",
"328 659 CURVE SMOOTH",
"158 659 OFFCURVE",
"48 527 OFFCURVE",
"48 319 CURVE SMOOTH",
"48 114 OFFCURVE",
"153 -10 OFFCURVE",
"333 -10 CURVE SMOOTH"
);
},
{
closed = 1;
nodes = (
"435 841 LINE",
"372 856 LINE",
"295 711 LINE",
"333 706 LINE"
);
}
);
width = 570;
},
{
layerId = "85DC84FC-A9CD-42A1-AFE4-850615EB4B70";
paths = (
{
closed = 1;
nodes = (
"504 -11 OFFCURVE",
"566 109 OFFCURVE",
"566 109 CURVE",
"522 157 LINE",
"522 157 OFFCURVE",
"463 64 OFFCURVE",
"356 64 CURVE SMOOTH",
"245 64 OFFCURVE",
"188 131 OFFCURVE",
"188 325 CURVE SMOOTH",
"188 519 OFFCURVE",
"240 585 OFFCURVE",
"349 585 CURVE SMOOTH",
"423 585 OFFCURVE",
"518 536 OFFCURVE",
"518 536 CURVE",
"532 609 LINE",
"532 609 OFFCURVE",
"435 660 OFFCURVE",
"332 660 CURVE SMOOTH",
"145 660 OFFCURVE",
"36 525 OFFCURVE",
"36 320 CURVE SMOOTH",
"36 119 OFFCURVE",
"137 -11 OFFCURVE",
"337 -11 CURVE SMOOTH"
);
},
{
closed = 1;
nodes = (
"455 834 LINE",
"347 865 LINE",
"277 713 LINE",
"334 704 LINE"
);
}
);
width = 576;
}
);
note = Cacute;
unicode = 0106;
},
{
glyphname = Ccaron;
lastChange = "2016-09-16 17:56:47 +0000";
layers = (
{
layerId = "28637767-9EF2-44E2-B459-E4A39AD280E7";
paths = (
{
closed = 1;
nodes = (
"487 -10 OFFCURVE",
"550 106 OFFCURVE",
"550 106 CURVE",
"522 138 LINE",
"522 138 OFFCURVE",
"462 40 OFFCURVE",
"342 40 CURVE SMOOTH",
"211 40 OFFCURVE",
"129 131 OFFCURVE",
"129 321 CURVE SMOOTH",
"129 513 OFFCURVE",
"209 609 OFFCURVE",
"336 609 CURVE SMOOTH",
"424 609 OFFCURVE",
"510 556 OFFCURVE",
"510 556 CURVE",
"519 604 LINE",
"519 604 OFFCURVE",
"431 659 OFFCURVE",
"328 659 CURVE SMOOTH",
"158 659 OFFCURVE",
"48 527 OFFCURVE",
"48 319 CURVE SMOOTH",
"48 114 OFFCURVE",
"153 -10 OFFCURVE",
"333 -10 CURVE SMOOTH"
);
},
{
closed = 1;
nodes = (
"339 708 LINE",
"458 829 LINE",
"430 855 LINE",
"319 754 LINE",
"210 855 LINE",
"181 831 LINE",
"300 708 LINE"
);
}
);
width = 570;
},
{
layerId = "85DC84FC-A9CD-42A1-AFE4-850615EB4B70";
paths = (
{
closed = 1;
nodes = (
"504 -11 OFFCURVE",
"566 109 OFFCURVE",
"566 109 CURVE",
"522 157 LINE",
"522 157 OFFCURVE",
"463 64 OFFCURVE",
"356 64 CURVE SMOOTH",
"245 64 OFFCURVE",
"188 131 OFFCURVE",
"188 325 CURVE SMOOTH",
"188 519 OFFCURVE",
"240 585 OFFCURVE",
"349 585 CURVE SMOOTH",
"423 585 OFFCURVE",
"518 536 OFFCURVE",
"518 536 CURVE",
"532 609 LINE",
"532 609 OFFCURVE",
"435 660 OFFCURVE",
"332 660 CURVE SMOOTH",
"145 660 OFFCURVE",
"36 525 OFFCURVE",
"36 320 CURVE SMOOTH",
"36 119 OFFCURVE",
"137 -11 OFFCURVE",
"337 -11 CURVE SMOOTH"
);
},
{
closed = 1;
nodes = (
"352 707 LINE",
"467 841 LINE",
"425 880 LINE",
"317 787 LINE",
"209 880 LINE",
"167 845 LINE",
"282 707 LINE"
);
}
);
width = 576;
}
);
note = Ccaron;
unicode = 010C;
},
{
glyphname = Ccedilla;
lastChange = "2016-09-16 17:56:47 +0000";
layers = (
{
layerId = "28637767-9EF2-44E2-B459-E4A39AD280E7";
paths = (
{
closed = 1;
nodes = (
"389 -251 OFFCURVE",
"424 -213 OFFCURVE",
"424 -155 CURVE SMOOTH",
"424 -78 OFFCURVE",
"328 -74 OFFCURVE",
"328 -69 CURVE",
"334 -10 LINE",
"487 -9 OFFCURVE",
"550 106 OFFCURVE",
"550 106 CURVE",
"522 138 LINE",
"522 138 OFFCURVE",
"462 40 OFFCURVE",
"342 40 CURVE SMOOTH",
"211 40 OFFCURVE",
"129 131 OFFCURVE",
"129 321 CURVE SMOOTH",
"129 513 OFFCURVE",
"209 609 OFFCURVE",
"336 609 CURVE SMOOTH",
"424 609 OFFCURVE",
"510 556 OFFCURVE",
"510 556 CURVE",
"519 604 LINE",
"519 604 OFFCURVE",
"431 659 OFFCURVE",
"328 659 CURVE SMOOTH",
"158 659 OFFCURVE",
"48 527 OFFCURVE",
"48 319 CURVE SMOOTH",
"48 124 OFFCURVE",
"142 3 OFFCURVE",
"306 -9 CURVE",
"295 -92 LINE",
"295 -97 OFFCURVE",
"379 -94 OFFCURVE",
"379 -153 CURVE SMOOTH",
"379 -199 OFFCURVE",
"356 -221 OFFCURVE",
"313 -221 CURVE SMOOTH",
"268 -221 OFFCURVE",
"246 -189 OFFCURVE",
"246 -189 CURVE",
"228 -209 LINE",
"228 -209 OFFCURVE",
"253 -251 OFFCURVE",
"320 -251 CURVE SMOOTH"
);
}
);
width = 570;
},
{
layerId = "85DC84FC-A9CD-42A1-AFE4-850615EB4B70";
paths = (
{
closed = 1;
nodes = (
"384 -251 OFFCURVE",
"422 -209 OFFCURVE",
"422 -150 CURVE SMOOTH",
"422 -73 OFFCURVE",
"333 -64 OFFCURVE",
"333 -58 CURVE",
"338 -11 LINE",
"504 -10 OFFCURVE",
"566 109 OFFCURVE",
"566 109 CURVE",
"522 157 LINE",
"522 157 OFFCURVE",
"463 64 OFFCURVE",
"356 64 CURVE SMOOTH",
"245 64 OFFCURVE",
"188 131 OFFCURVE",
"188 325 CURVE SMOOTH",
"188 519 OFFCURVE",
"240 585 OFFCURVE",
"349 585 CURVE SMOOTH",
"423 585 OFFCURVE",
"518 536 OFFCURVE",
"518 536 CURVE",
"532 609 LINE",
"532 609 OFFCURVE",
"435 660 OFFCURVE",
"332 660 CURVE SMOOTH",
"145 660 OFFCURVE",
"36 525 OFFCURVE",
"36 320 CURVE SMOOTH",
"36 134 OFFCURVE",
"122 8 OFFCURVE",
"294 -9 CURVE",
"283 -98 LINE",
"283 -102 OFFCURVE",
"343 -101 OFFCURVE",
"343 -148 CURVE SMOOTH",
"343 -190 OFFCURVE",
"324 -205 OFFCURVE",
"293 -205 CURVE SMOOTH",
"258 -205 OFFCURVE",
"238 -176 OFFCURVE",
"238 -176 CURVE",
"212 -205 LINE",
"212 -205 OFFCURVE",
"233 -251 OFFCURVE",
"308 -251 CURVE SMOOTH"
);
}
);
width = 576;
}
);
note = Ccedilla;
unicode = 00C7;
},
{
glyphname = D;
lastChange = "2016-09-16 17:56:47 +0000";
layers = (
{
layerId = "28637767-9EF2-44E2-B459-E4A39AD280E7";
paths = (
{
closed = 1;
nodes = (
"292 0 LINE SMOOTH",
"480 0 OFFCURVE",
"587 112 OFFCURVE",
"587 323 CURVE SMOOTH",
"587 536 OFFCURVE",
"477 650 OFFCURVE",
"292 650 CURVE SMOOTH",
"94 650 LINE",
"94 0 LINE"
);
},
{
closed = 1;
nodes = (
"170 602 LINE",
"292 602 LINE SMOOTH",
"431 602 OFFCURVE",
"505 513 OFFCURVE",
"505 323 CURVE SMOOTH",
"505 134 OFFCURVE",
"431 48 OFFCURVE",
"293 48 CURVE SMOOTH",
"170 48 LINE"
);
}
);
width = 634;
},
{
layerId = "85DC84FC-A9CD-42A1-AFE4-850615EB4B70";
paths = (
{
closed = 1;
nodes = (
"299 0 LINE SMOOTH",
"504 0 OFFCURVE",
"612 113 OFFCURVE",
"612 323 CURVE SMOOTH",
"612 538 OFFCURVE",
"498 650 OFFCURVE",
"298 650 CURVE SMOOTH",
"77 650 LINE",
"77 0 LINE"
);
},
{
closed = 1;
nodes = (
"215 579 LINE",
"298 579 LINE SMOOTH",
"413 579 OFFCURVE",
"459 511 OFFCURVE",
"459 323 CURVE SMOOTH",
"459 136 OFFCURVE",
"413 71 OFFCURVE",
"300 71 CURVE SMOOTH",
"215 71 LINE"
);
}
);
width = 647;
}
);
note = D;
unicode = 0044;
},
{
glyphname = Eth;
lastChange = "2016-09-16 17:56:47 +0000";
layers = (
{
layerId = "28637767-9EF2-44E2-B459-E4A39AD280E7";
paths = (
{
closed = 1;
nodes = (
"292 0 LINE SMOOTH",
"480 0 OFFCURVE",
"587 112 OFFCURVE",
"587 323 CURVE SMOOTH",
"587 536 OFFCURVE",
"477 650 OFFCURVE",
"292 650 CURVE SMOOTH",
"94 650 LINE",
"94 344 LINE",
"25 344 LINE",
"25 302 LINE",
"94 302 LINE",
"94 0 LINE"
);
},
{
closed = 1;
nodes = (
"170 302 LINE",
"359 302 LINE",
"359 344 LINE",
"170 344 LINE",
"170 602 LINE",
"292 602 LINE SMOOTH",
"431 602 OFFCURVE",
"505 513 OFFCURVE",
"505 323 CURVE SMOOTH",
"505 134 OFFCURVE",
"431 48 OFFCURVE",
"293 48 CURVE SMOOTH",
"170 48 LINE"
);
}
);
width = 638;
},
{
layerId = "85DC84FC-A9CD-42A1-AFE4-850615EB4B70";
paths = (
{
closed = 1;
nodes = (
"299 0 LINE SMOOTH",
"504 0 OFFCURVE",
"612 113 OFFCURVE",
"612 323 CURVE SMOOTH",
"612 538 OFFCURVE",
"498 650 OFFCURVE",
"298 650 CURVE SMOOTH",
"77 650 LINE",
"77 355 LINE",
"21 355 LINE",
"21 289 LINE",
"77 289 LINE",
"77 0 LINE"
);
},
{
closed = 1;
nodes = (
"215 289 LINE",
"357 289 LINE",
"357 355 LINE",
"215 355 LINE",
"215 579 LINE",
"298 579 LINE SMOOTH",
"413 579 OFFCURVE",
"459 511 OFFCURVE",
"459 323 CURVE SMOOTH",
"459 136 OFFCURVE",
"413 71 OFFCURVE",
"300 71 CURVE SMOOTH",
"215 71 LINE"
);
}
);
width = 658;
}
);
note = Eth;
unicode = 00D0;
},
{
glyphname = Dcaron;
lastChange = "2016-09-16 17:56:47 +0000";
layers = (
{
layerId = "28637767-9EF2-44E2-B459-E4A39AD280E7";
paths = (
{
closed = 1;
nodes = (
"292 0 LINE SMOOTH",
"480 0 OFFCURVE",
"587 112 OFFCURVE",
"587 323 CURVE SMOOTH",
"587 536 OFFCURVE",
"477 650 OFFCURVE",
"292 650 CURVE SMOOTH",
"94 650 LINE",
"94 0 LINE"
);
},
{
closed = 1;
nodes = (
"170 602 LINE",
"292 602 LINE SMOOTH",
"431 602 OFFCURVE",
"505 513 OFFCURVE",
"505 323 CURVE SMOOTH",
"505 134 OFFCURVE",
"431 48 OFFCURVE",
"293 48 CURVE SMOOTH",
"170 48 LINE"
);
},
{
closed = 1;
nodes = (
"296 708 LINE",
"415 829 LINE",
"387 855 LINE",
"276 754 LINE",
"167 855 LINE",
"138 831 LINE",
"257 708 LINE"
);
}
);
width = 638;
},
{
layerId = "85DC84FC-A9CD-42A1-AFE4-850615EB4B70";
paths = (
{
closed = 1;
nodes = (
"299 0 LINE SMOOTH",
"504 0 OFFCURVE",
"612 113 OFFCURVE",
"612 323 CURVE SMOOTH",
"612 538 OFFCURVE",
"498 650 OFFCURVE",
"298 650 CURVE SMOOTH",
"77 650 LINE",
"77 0 LINE"
);
},
{
closed = 1;
nodes = (
"215 579 LINE",
"298 579 LINE SMOOTH",
"413 579 OFFCURVE",
"459 511 OFFCURVE",
"459 323 CURVE SMOOTH",
"459 136 OFFCURVE",
"413 71 OFFCURVE",
"300 71 CURVE SMOOTH",
"215 71 LINE"
);
},
{
closed = 1;
nodes = (
"327 707 LINE",
"442 841 LINE",
"400 880 LINE",
"292 787 LINE",
"184 880 LINE",
"142 845 LINE",
"257 707 LINE"
);
}
);
width = 658;
}
);
note = Dcaron;
unicode = 010E;
},
{
glyphname = Dcroat;
lastChange = "2016-09-16 17:56:47 +0000";
layers = (
{
layerId = "28637767-9EF2-44E2-B459-E4A39AD280E7";
paths = (
{
closed = 1;
nodes = (
"292 0 LINE SMOOTH",
"480 0 OFFCURVE",
"587 112 OFFCURVE",
"587 323 CURVE SMOOTH",
"587 536 OFFCURVE",
"477 650 OFFCURVE",
"292 650 CURVE SMOOTH",
"94 650 LINE",
"94 344 LINE",
"25 344 LINE",
"25 302 LINE",
"94 302 LINE",
"94 0 LINE"
);
},
{
closed = 1;
nodes = (
"170 302 LINE",
"359 302 LINE",
"359 344 LINE",
"170 344 LINE",
"170 602 LINE",
"292 602 LINE SMOOTH",
"431 602 OFFCURVE",
"505 513 OFFCURVE",
"505 323 CURVE SMOOTH",
"505 134 OFFCURVE",
"431 48 OFFCURVE",
"293 48 CURVE SMOOTH",
"170 48 LINE"
);
}
);
width = 638;
},
{
layerId = "85DC84FC-A9CD-42A1-AFE4-850615EB4B70";
paths = (
{
closed = 1;
nodes = (
"299 0 LINE SMOOTH",
"504 0 OFFCURVE",
"612 113 OFFCURVE",
"612 323 CURVE SMOOTH",
"612 538 OFFCURVE",
"498 650 OFFCURVE",
"298 650 CURVE SMOOTH",
"77 650 LINE",
"77 355 LINE",
"21 355 LINE",
"21 289 LINE",
"77 289 LINE",
"77 0 LINE"
);
},
{
closed = 1;
nodes = (
"215 289 LINE",
"357 289 LINE",
"357 355 LINE",
"215 355 LINE",
"215 579 LINE",
"298 579 LINE SMOOTH",
"413 579 OFFCURVE",
"459 511 OFFCURVE",
"459 323 CURVE SMOOTH",
"459 136 OFFCURVE",
"413 71 OFFCURVE",
"300 71 CURVE SMOOTH",
"215 71 LINE"
);
}
);
width = 658;
}
);
note = Dcroat;
unicode = 0110;
},
{
glyphname = E;
lastChange = "2016-09-30 15:46:23 +0000";
layers = (
{
anchors = (
{
name = bottom;
position = "{254, 0}";
},
{
name = ogonek;
position = "{456, 10}";
},
{
name = top;
position = "{254, 650}";
},
{
name = topleft;
position = "{20, 650}";
}
);
layerId = "28637767-9EF2-44E2-B459-E4A39AD280E7";
paths = (
{
closed = 1;
nodes = (
"466 0 LINE",
"466 48 LINE",
"170 48 LINE",
"170 306 LINE",
"421 306 LINE",
"421 352 LINE",
"170 352 LINE",
"170 602 LINE",
"444 602 LINE",
"444 650 LINE",
"94 650 LINE",
"94 0 LINE"
);
}
);
width = 507;
},
{
anchors = (
{
name = bottom;
position = "{262, 0}";
},
{
name = ogonek;
position = "{472, 10}";
},
{
name = top;
position = "{262, 650}";
},
{
name = topleft;
position = "{20, 650}";
}
);
layerId = "85DC84FC-A9CD-42A1-AFE4-850615EB4B70";
paths = (
{
closed = 1;
nodes = (
"481 0 LINE",
"481 72 LINE",
"215 72 LINE",
"215 294 LINE",
"437 294 LINE",
"437 364 LINE",
"215 364 LINE",
"215 578 LINE",
"467 578 LINE",
"467 650 LINE",
"77 650 LINE",
"77 0 LINE"
);
}
);
width = 524;
}
);
note = E;
unicode = 0045;
},
{
glyphname = Eacute;
lastChange = "2016-09-16 17:56:47 +0000";
layers = (
{
layerId = "28637767-9EF2-44E2-B459-E4A39AD280E7";
paths = (
{
closed = 1;
nodes = (
"466 0 LINE",
"466 48 LINE",
"170 48 LINE",
"170 306 LINE",
"421 306 LINE",
"421 352 LINE",
"170 352 LINE",
"170 602 LINE",
"444 602 LINE",
"444 650 LINE",
"94 650 LINE",
"94 0 LINE"
);
},
{
closed = 1;
nodes = (
"388 841 LINE",
"325 856 LINE",
"248 711 LINE",
"286 706 LINE"
);
}
);
width = 507;
},
{
layerId = "85DC84FC-A9CD-42A1-AFE4-850615EB4B70";
paths = (
{
closed = 1;
nodes = (
"481 0 LINE",
"481 72 LINE",
"215 72 LINE",
"215 294 LINE",
"437 294 LINE",
"437 364 LINE",
"215 364 LINE",
"215 578 LINE",
"467 578 LINE",
"467 650 LINE",
"77 650 LINE",
"77 0 LINE"
);
},
{
closed = 1;
nodes = (
"422 834 LINE",
"314 865 LINE",
"244 713 LINE",
"301 704 LINE"
);
}
);
width = 524;
}
);
note = Eacute;
unicode = 00C9;
},
{
glyphname = Ecaron;
lastChange = "2016-09-16 17:56:47 +0000";
layers = (
{
layerId = "28637767-9EF2-44E2-B459-E4A39AD280E7";
paths = (
{
closed = 1;
nodes = (
"466 0 LINE",
"466 48 LINE",
"170 48 LINE",
"170 306 LINE",
"421 306 LINE",
"421 352 LINE",
"170 352 LINE",
"170 602 LINE",
"444 602 LINE",
"444 650 LINE",
"94 650 LINE",
"94 0 LINE"
);
},
{
closed = 1;
nodes = (
"291 708 LINE",
"410 829 LINE",
"382 855 LINE",
"271 754 LINE",
"162 855 LINE",
"133 831 LINE",
"252 708 LINE"
);
}
);
width = 507;
},
{
layerId = "85DC84FC-A9CD-42A1-AFE4-850615EB4B70";
paths = (
{
closed = 1;
nodes = (
"481 0 LINE",
"481 72 LINE",
"215 72 LINE",
"215 294 LINE",
"437 294 LINE",
"437 364 LINE",
"215 364 LINE",
"215 578 LINE",
"467 578 LINE",
"467 650 LINE",
"77 650 LINE",
"77 0 LINE"
);
},
{
closed = 1;
nodes = (
"314 707 LINE",
"429 841 LINE",
"387 880 LINE",
"279 787 LINE",
"171 880 LINE",
"129 845 LINE",
"244 707 LINE"
);
}
);
width = 524;
}
);
note = Ecaron;
unicode = 011A;
},
{
glyphname = Ecircumflex;
lastChange = "2016-09-16 17:56:47 +0000";
layers = (
{
layerId = "28637767-9EF2-44E2-B459-E4A39AD280E7";
paths = (
{
closed = 1;
nodes = (
"466 0 LINE",
"466 48 LINE",
"170 48 LINE",
"170 306 LINE",
"421 306 LINE",
"421 352 LINE",
"170 352 LINE",
"170 602 LINE",
"444 602 LINE",
"444 650 LINE",
"94 650 LINE",
"94 0 LINE"
);
},
{
closed = 1;
nodes = (
"281 829 LINE",
"391 732 LINE",
"409 764 LINE",
"301 878 LINE",
"262 878 LINE",
"152 764 LINE",
"171 732 LINE"
);
}
);
width = 507;
},
{
layerId = "85DC84FC-A9CD-42A1-AFE4-850615EB4B70";
paths = (
{
closed = 1;
nodes = (
"481 0 LINE",
"481 72 LINE",
"215 72 LINE",
"215 294 LINE",
"437 294 LINE",
"437 364 LINE",
"215 364 LINE",
"215 578 LINE",
"467 578 LINE",
"467 650 LINE",
"77 650 LINE",
"77 0 LINE"
);
},
{
closed = 1;
nodes = (
"289 806 LINE",
"393 721 LINE",
"421 766 LINE",
"324 888 LINE",
"254 888 LINE",
"156 766 LINE",
"185 721 LINE"
);
}
);
width = 524;
}
);
note = Ecircumflex;
unicode = 00CA;
},
{
glyphname = Edieresis;
lastChange = "2016-09-16 17:56:47 +0000";
layers = (
{
layerId = "28637767-9EF2-44E2-B459-E4A39AD280E7";
paths = (
{
closed = 1;
nodes = (
"466 0 LINE",
"466 48 LINE",
"170 48 LINE",
"170 306 LINE",
"421 306 LINE",
"421 352 LINE",
"170 352 LINE",
"170 602 LINE",
"444 602 LINE",
"444 650 LINE",
"94 650 LINE",
"94 0 LINE"
);
},
{
closed = 1;
nodes = (
"200 740 OFFCURVE",
"209 744 OFFCURVE",
"217 750 CURVE",
"224 758 OFFCURVE",
"228 768 OFFCURVE",
"228 779 CURVE SMOOTH",
"228 790 OFFCURVE",
"224 801 OFFCURVE",
"217 809 CURVE",
"209 815 OFFCURVE",
"200 819 OFFCURVE",
"190 819 CURVE SMOOTH",
"180 819 OFFCURVE",
"172 815 OFFCURVE",
"164 809 CURVE",
"156 801 OFFCURVE",
"153 790 OFFCURVE",
"153 779 CURVE SMOOTH",
"153 768 OFFCURVE",
"156 758 OFFCURVE",
"164 750 CURVE",
"172 744 OFFCURVE",
"180 740 OFFCURVE",
"190 740 CURVE SMOOTH"
);
},
{
closed = 1;
nodes = (
"353 740 OFFCURVE",
"362 744 OFFCURVE",
"370 750 CURVE",
"378 758 OFFCURVE",
"382 768 OFFCURVE",
"382 779 CURVE SMOOTH",
"382 790 OFFCURVE",
"378 801 OFFCURVE",
"370 809 CURVE",
"362 815 OFFCURVE",
"353 819 OFFCURVE",
"344 819 CURVE SMOOTH",
"335 819 OFFCURVE",
"326 815 OFFCURVE",
"318 809 CURVE",
"310 801 OFFCURVE",
"307 790 OFFCURVE",
"307 779 CURVE SMOOTH",
"307 768 OFFCURVE",
"310 758 OFFCURVE",
"318 750 CURVE",
"326 744 OFFCURVE",
"335 740 OFFCURVE",
"344 740 CURVE SMOOTH"
);
}
);
width = 507;
},
{
layerId = "85DC84FC-A9CD-42A1-AFE4-850615EB4B70";
paths = (
{
closed = 1;
nodes = (
"481 0 LINE",
"481 72 LINE",
"215 72 LINE",
"215 294 LINE",
"437 294 LINE",
"437 364 LINE",
"215 364 LINE",
"215 578 LINE",
"467 578 LINE",
"467 650 LINE",
"77 650 LINE",
"77 0 LINE"
);
},
{
closed = 1;
nodes = (
"197 717 OFFCURVE",
"213 723 OFFCURVE",
"226 735 CURVE",
"239 749 OFFCURVE",
"246 768 OFFCURVE",
"246 787 CURVE SMOOTH",
"246 806 OFFCURVE",
"239 824 OFFCURVE",
"226 839 CURVE",
"213 850 OFFCURVE",
"197 856 OFFCURVE",
"180 856 CURVE SMOOTH",
"163 856 OFFCURVE",
"147 850 OFFCURVE",
"134 839 CURVE",
"120 824 OFFCURVE",
"114 806 OFFCURVE",
"114 787 CURVE SMOOTH",
"114 768 OFFCURVE",
"120 749 OFFCURVE",
"134 735 CURVE",
"147 723 OFFCURVE",
"163 717 OFFCURVE",
"180 717 CURVE SMOOTH"
);
},
{
closed = 1;
nodes = (
"383 717 OFFCURVE",
"399 723 OFFCURVE",
"412 735 CURVE",
"425 749 OFFCURVE",
"432 768 OFFCURVE",
"432 787 CURVE SMOOTH",
"432 806 OFFCURVE",
"425 824 OFFCURVE",
"412 839 CURVE",
"399 850 OFFCURVE",
"383 856 OFFCURVE",
"366 856 CURVE SMOOTH",
"349 856 OFFCURVE",
"332 850 OFFCURVE",
"320 839 CURVE",
"306 824 OFFCURVE",
"300 806 OFFCURVE",
"300 787 CURVE SMOOTH",
"300 768 OFFCURVE",
"306 749 OFFCURVE",
"320 735 CURVE SMOOTH",
"332 723 OFFCURVE",
"349 717 OFFCURVE",
"366 717 CURVE SMOOTH"
);
}
);
width = 524;
}
);
note = Edieresis;
unicode = 00CB;
},
{
glyphname = Edotaccent;
lastChange = "2016-09-16 17:56:47 +0000";
layers = (
{
layerId = "28637767-9EF2-44E2-B459-E4A39AD280E7";
paths = (
{
closed = 1;
nodes = (
"466 0 LINE",
"466 48 LINE",
"170 48 LINE",
"170 306 LINE",
"421 306 LINE",
"421 352 LINE",
"170 352 LINE",
"170 602 LINE",
"444 602 LINE",
"444 650 LINE",
"94 650 LINE",
"94 0 LINE"
);
},
{
closed = 1;
nodes = (
"287 736 OFFCURVE",
"297 740 OFFCURVE",
"306 747 CURVE",
"314 756 OFFCURVE",
"318 767 OFFCURVE",
"318 779 CURVE SMOOTH",
"318 791 OFFCURVE",
"314 803 OFFCURVE",
"306 812 CURVE",
"298 819 OFFCURVE",
"287 822 OFFCURVE",
"276 822 CURVE SMOOTH",
"265 822 OFFCURVE",
"255 819 OFFCURVE",
"247 811 CURVE SMOOTH",
"238 802 OFFCURVE",
"234 791 OFFCURVE",
"234 779 CURVE SMOOTH",
"234 767 OFFCURVE",
"238 756 OFFCURVE",
"247 747 CURVE SMOOTH",
"254 740 OFFCURVE",
"265 736 OFFCURVE",
"276 736 CURVE SMOOTH"
);
}
);
width = 507;
},
{
layerId = "85DC84FC-A9CD-42A1-AFE4-850615EB4B70";
paths = (
{
closed = 1;
nodes = (
"481 0 LINE",
"481 72 LINE",
"215 72 LINE",
"215 294 LINE",
"437 294 LINE",
"437 364 LINE",
"215 364 LINE",
"215 578 LINE",
"467 578 LINE",
"467 650 LINE",
"77 650 LINE",
"77 0 LINE"
);
},
{
closed = 1;
nodes = (
"301 710 OFFCURVE",
"319 717 OFFCURVE",
"333 729 CURVE",
"348 745 OFFCURVE",
"355 766 OFFCURVE",
"355 787 CURVE SMOOTH",
"355 808 OFFCURVE",
"348 828 OFFCURVE",
"333 844 CURVE",
"319 857 OFFCURVE",
"301 863 OFFCURVE",
"282 863 CURVE SMOOTH",
"263 863 OFFCURVE",
"244 857 OFFCURVE",
"229 843 CURVE SMOOTH",
"214 828 OFFCURVE",
"206 808 OFFCURVE",
"206 787 CURVE SMOOTH",
"206 766 OFFCURVE",
"214 745 OFFCURVE",
"229 730 CURVE",
"244 717 OFFCURVE",
"263 710 OFFCURVE",
"282 710 CURVE SMOOTH"
);
}
);
width = 524;
}
);
note = Edotaccent;
unicode = 0116;
},
{
glyphname = Egrave;
lastChange = "2016-09-16 17:56:47 +0000";
layers = (
{
layerId = "28637767-9EF2-44E2-B459-E4A39AD280E7";
paths = (
{
closed = 1;
nodes = (
"466 0 LINE",
"466 48 LINE",
"170 48 LINE",
"170 306 LINE",
"421 306 LINE",
"421 352 LINE",
"170 352 LINE",
"170 602 LINE",
"444 602 LINE",
"444 650 LINE",
"94 650 LINE",
"94 0 LINE"
);
},
{
closed = 1;
nodes = (
"313 716 LINE",
"230 859 LINE",
"168 843 LINE",
"273 708 LINE"
);
}
);
width = 507;
},
{
layerId = "85DC84FC-A9CD-42A1-AFE4-850615EB4B70";
paths = (
{
closed = 1;
nodes = (
"481 0 LINE",
"481 72 LINE",
"215 72 LINE",
"215 294 LINE",
"437 294 LINE",
"437 364 LINE",
"215 364 LINE",
"215 578 LINE",
"467 578 LINE",
"467 650 LINE",
"77 650 LINE",
"77 0 LINE"
);
},
{
closed = 1;
nodes = (
"341 726 LINE",
"256 873 LINE",
"150 838 LINE",
"279 709 LINE"
);
}
);
width = 524;
}
);
note = Egrave;
unicode = 00C8;
},
{
glyphname = Emacron;
lastChange = "2016-09-16 17:56:47 +0000";
layers = (
{
layerId = "28637767-9EF2-44E2-B459-E4A39AD280E7";
paths = (
{
closed = 1;
nodes = (
"466 0 LINE",
"466 48 LINE",
"170 48 LINE",
"170 306 LINE",
"421 306 LINE",
"421 352 LINE",
"170 352 LINE",
"170 602 LINE",
"444 602 LINE",
"444 650 LINE",
"94 650 LINE",
"94 0 LINE"
);
},
{
closed = 1;
nodes = (
"373 771 LINE",
"373 807 LINE",
"187 807 LINE",
"187 771 LINE"
);
}
);
width = 507;
},
{
layerId = "85DC84FC-A9CD-42A1-AFE4-850615EB4B70";
paths = (
{
closed = 1;
nodes = (
"481 0 LINE",
"481 72 LINE",
"215 72 LINE",
"215 294 LINE",
"437 294 LINE",
"437 364 LINE",
"215 364 LINE",
"215 578 LINE",
"467 578 LINE",
"467 650 LINE",
"77 650 LINE",
"77 0 LINE"
);
},
{
closed = 1;
nodes = (
"396 759 LINE",
"396 817 LINE",
"182 817 LINE",
"182 759 LINE"
);
}
);
width = 524;
}
);
note = Emacron;
unicode = 0112;
},
{
glyphname = Eogonek;
lastChange = "2016-09-16 17:56:47 +0000";
layers = (
{
layerId = "28637767-9EF2-44E2-B459-E4A39AD280E7";
paths = (
{
closed = 1;
nodes = (
"481 -218 LINE",
"427 -218 OFFCURVE",
"376 -204 OFFCURVE",
"376 -135 CURVE SMOOTH",
"376 -57 OFFCURVE",
"438 -12 OFFCURVE",
"457 0 CURVE",
"466 0 LINE",
"466 48 LINE",
"170 48 LINE",
"170 306 LINE",
"421 306 LINE",
"421 352 LINE",
"170 352 LINE",
"170 602 LINE",
"444 602 LINE",
"444 650 LINE",
"94 650 LINE",
"94 0 LINE",
"414 0 LINE",
"377 -26 OFFCURVE",
"326 -74 OFFCURVE",
"326 -139 CURVE SMOOTH",
"326 -233 OFFCURVE",
"406 -250 OFFCURVE",
"481 -250 CURVE"
);
}
);
width = 507;
},
{
layerId = "85DC84FC-A9CD-42A1-AFE4-850615EB4B70";
paths = (
{
closed = 1;
nodes = (
"470 -201 LINE",
"418 -201 OFFCURVE",
"394 -186 OFFCURVE",
"394 -123 CURVE SMOOTH",
"394 -49 OFFCURVE",
"440 -13 OFFCURVE",
"463 0 CURVE",
"481 0 LINE",
"481 72 LINE",
"215 72 LINE",
"215 294 LINE",
"437 294 LINE",
"437 364 LINE",
"215 364 LINE",
"215 578 LINE",
"467 578 LINE",
"467 650 LINE",
"77 650 LINE",
"77 0 LINE",
"394 0 LINE",
"352 -29 OFFCURVE",
"306 -74 OFFCURVE",
"306 -133 CURVE SMOOTH",
"306 -232 OFFCURVE",
"383 -250 OFFCURVE",
"470 -250 CURVE"
);
}
);
width = 524;
}
);
note = Eogonek;
unicode = 0118;
},
{
glyphname = F;
lastChange = "2016-09-16 17:56:47 +0000";
layers = (
{
layerId = "28637767-9EF2-44E2-B459-E4A39AD280E7";
paths = (
{
closed = 1;
nodes = (
"170 0 LINE",
"170 297 LINE",
"412 297 LINE",
"412 343 LINE",
"170 343 LINE",
"170 602 LINE",
"451 602 LINE",
"451 650 LINE",
"94 650 LINE",
"94 0 LINE"
);
}
);
width = 464;
},
{
layerId = "85DC84FC-A9CD-42A1-AFE4-850615EB4B70";
paths = (
{
closed = 1;
nodes = (
"215 0 LINE",
"215 268 LINE",
"439 268 LINE",
"439 338 LINE",
"215 338 LINE",
"215 578 LINE",
"472 578 LINE",
"472 650 LINE",
"77 650 LINE",
"77 0 LINE"
);
}
);
width = 488;
}
);
note = F;
unicode = 0046;
},
{
glyphname = G;
lastChange = "2016-09-16 17:56:47 +0000";
layers = (
{
layerId = "28637767-9EF2-44E2-B459-E4A39AD280E7";
paths = (
{
closed = 1;
nodes = (
"409 -10 OFFCURVE",
"460 32 OFFCURVE",
"487 71 CURVE",
"506 0 LINE",
"543 0 LINE",
"543 338 LINE",
"346 338 LINE",
"346 295 LINE",
"479 295 LINE",
"479 148 LINE",
"473 127 OFFCURVE",
"444 40 OFFCURVE",
"326 40 CURVE SMOOTH",
"205 40 OFFCURVE",
"129 133 OFFCURVE",
"129 323 CURVE SMOOTH",
"129 512 OFFCURVE",
"197 609 OFFCURVE",
"347 609 CURVE SMOOTH",
"435 609 OFFCURVE",
"521 556 OFFCURVE",
"521 556 CURVE",
"530 604 LINE",
"530 604 OFFCURVE",
"442 659 OFFCURVE",
"339 659 CURVE SMOOTH",
"152 659 OFFCURVE",
"48 534 OFFCURVE",
"48 323 CURVE SMOOTH",
"48 114 OFFCURVE",
"145 -10 OFFCURVE",
"315 -10 CURVE SMOOTH"
);
}
);
width = 620;
},
{
layerId = "85DC84FC-A9CD-42A1-AFE4-850615EB4B70";
paths = (
{
closed = 1;
nodes = (
"395 -11 OFFCURVE",
"443 22 OFFCURVE",
"470 57 CURVE",
"505 0 LINE",
"565 0 LINE",
"565 343 LINE",
"347 343 LINE",
"347 275 LINE",
"448 275 LINE",
"448 154 LINE",
"443 130 OFFCURVE",
"423 64 OFFCURVE",
"339 64 CURVE SMOOTH",
"247 64 OFFCURVE",
"188 133 OFFCURVE",
"188 322 CURVE SMOOTH",
"188 510 OFFCURVE",
"231 585 OFFCURVE",
"354 585 CURVE SMOOTH",
"428 585 OFFCURVE",
"522 536 OFFCURVE",
"522 536 CURVE",
"537 609 LINE",
"537 609 OFFCURVE",
"440 660 OFFCURVE",
"336 660 CURVE SMOOTH",
"147 660 OFFCURVE",
"36 534 OFFCURVE",
"36 323 CURVE SMOOTH",
"36 113 OFFCURVE",
"137 -11 OFFCURVE",
"315 -11 CURVE SMOOTH"
);
}
);
width = 625;
}
);
note = G;
unicode = 0047;
},
{
glyphname = Gbreve;
lastChange = "2016-09-16 17:56:47 +0000";
layers = (
{
layerId = "28637767-9EF2-44E2-B459-E4A39AD280E7";
paths = (
{
closed = 1;
nodes = (
"409 -10 OFFCURVE",
"460 32 OFFCURVE",
"487 71 CURVE",
"506 0 LINE",
"543 0 LINE",
"543 338 LINE",
"346 338 LINE",
"346 295 LINE",
"479 295 LINE",
"479 148 LINE",
"473 127 OFFCURVE",
"444 40 OFFCURVE",
"326 40 CURVE SMOOTH",
"205 40 OFFCURVE",
"129 133 OFFCURVE",
"129 323 CURVE SMOOTH",
"129 512 OFFCURVE",
"197 609 OFFCURVE",
"347 609 CURVE SMOOTH",
"435 609 OFFCURVE",
"521 556 OFFCURVE",
"521 556 CURVE",
"530 604 LINE",
"530 604 OFFCURVE",
"442 659 OFFCURVE",
"339 659 CURVE SMOOTH",
"152 659 OFFCURVE",
"48 534 OFFCURVE",
"48 323 CURVE SMOOTH",
"48 114 OFFCURVE",
"145 -10 OFFCURVE",
"315 -10 CURVE SMOOTH"
);
},
{
closed = 1;
nodes = (
"462 711 OFFCURVE",
"474 810 OFFCURVE",
"474 810 CURVE",
"429 816 LINE",
"429 814 LINE",
"429 814 OFFCURVE",
"416 755 OFFCURVE",
"335 755 CURVE SMOOTH",
"255 755 OFFCURVE",
"243 814 OFFCURVE",
"243 814 CURVE",
"243 816 LINE",
"198 810 LINE",
"198 810 OFFCURVE",
"208 711 OFFCURVE",
"335 711 CURVE SMOOTH"
);
}
);
width = 620;
},
{
layerId = "85DC84FC-A9CD-42A1-AFE4-850615EB4B70";
paths = (
{
closed = 1;
nodes = (
"395 -11 OFFCURVE",
"443 22 OFFCURVE",
"470 57 CURVE",
"505 0 LINE",
"565 0 LINE",
"565 343 LINE",
"347 343 LINE",
"347 275 LINE",
"448 275 LINE",
"448 154 LINE",
"443 130 OFFCURVE",
"423 64 OFFCURVE",
"339 64 CURVE SMOOTH",
"247 64 OFFCURVE",
"188 133 OFFCURVE",
"188 322 CURVE SMOOTH",
"188 510 OFFCURVE",
"231 585 OFFCURVE",
"354 585 CURVE SMOOTH",
"428 585 OFFCURVE",
"522 536 OFFCURVE",
"522 536 CURVE",
"537 609 LINE",
"537 609 OFFCURVE",
"440 660 OFFCURVE",
"336 660 CURVE SMOOTH",
"147 660 OFFCURVE",
"36 534 OFFCURVE",
"36 323 CURVE SMOOTH",
"36 113 OFFCURVE",
"137 -11 OFFCURVE",
"315 -11 CURVE SMOOTH"
);
},
{
closed = 1;
nodes = (
"492 698 OFFCURVE",
"488 821 OFFCURVE",
"488 821 CURVE",
"421 830 LINE",
"421 826 LINE",
"421 826 OFFCURVE",
"418 771 OFFCURVE",
"337 771 CURVE SMOOTH",
"258 771 OFFCURVE",
"254 826 OFFCURVE",
"254 826 CURVE",
"254 830 LINE",
"188 821 LINE",
"188 821 OFFCURVE",
"183 698 OFFCURVE",
"337 698 CURVE SMOOTH"
);
}
);
width = 625;
}
);
note = Gbreve;
unicode = 011E;
},
{
glyphname = Gcommaaccent;
lastChange = "2016-09-16 17:56:47 +0000";
layers = (
{
layerId = "28637767-9EF2-44E2-B459-E4A39AD280E7";
paths = (
{
closed = 1;
nodes = (
"409 -10 OFFCURVE",
"460 32 OFFCURVE",
"487 71 CURVE",
"506 0 LINE",
"543 0 LINE",
"543 338 LINE",
"346 338 LINE",
"346 295 LINE",
"479 295 LINE",
"479 148 LINE",
"473 127 OFFCURVE",
"444 40 OFFCURVE",
"326 40 CURVE SMOOTH",
"205 40 OFFCURVE",
"129 133 OFFCURVE",
"129 323 CURVE SMOOTH",
"129 512 OFFCURVE",
"197 609 OFFCURVE",
"347 609 CURVE SMOOTH",
"435 609 OFFCURVE",
"521 556 OFFCURVE",
"521 556 CURVE",
"530 604 LINE",
"530 604 OFFCURVE",
"442 659 OFFCURVE",
"339 659 CURVE SMOOTH",
"152 659 OFFCURVE",
"48 534 OFFCURVE",
"48 323 CURVE SMOOTH",
"48 114 OFFCURVE",
"145 -10 OFFCURVE",
"315 -10 CURVE SMOOTH"
);
},
{
closed = 1;
nodes = (
"335 -247 OFFCURVE",
"368 -169 OFFCURVE",
"368 -111 CURVE SMOOTH",
"368 -88 OFFCURVE",
"363 -69 OFFCURVE",
"351 -56 CURVE",
"351 -55 OFFCURVE",
"350 -55 OFFCURVE",
"349 -54 CURVE",
"342 -48 OFFCURVE",
"333 -45 OFFCURVE",
"324 -45 CURVE SMOOTH",
"315 -45 OFFCURVE",
"306 -48 OFFCURVE",
"299 -54 CURVE",
"292 -61 OFFCURVE",
"288 -71 OFFCURVE",
"288 -81 CURVE SMOOTH",
"288 -91 OFFCURVE",
"292 -101 OFFCURVE",
"299 -108 CURVE",
"306 -114 OFFCURVE",
"316 -117 OFFCURVE",
"325 -117 CURVE",
"326 -123 OFFCURVE",
"326 -129 OFFCURVE",
"326 -135 CURVE SMOOTH",
"326 -178 OFFCURVE",
"306 -232 OFFCURVE",
"266 -269 CURVE",
"284 -288 LINE"
);
}
);
width = 620;
},
{
layerId = "85DC84FC-A9CD-42A1-AFE4-850615EB4B70";
paths = (
{
closed = 1;
nodes = (
"395 -11 OFFCURVE",
"443 22 OFFCURVE",
"470 57 CURVE",
"505 0 LINE",
"565 0 LINE",
"565 343 LINE",
"347 343 LINE",
"347 275 LINE",
"448 275 LINE",
"448 154 LINE",
"443 130 OFFCURVE",
"423 64 OFFCURVE",
"339 64 CURVE SMOOTH",
"247 64 OFFCURVE",
"188 133 OFFCURVE",
"188 322 CURVE SMOOTH",
"188 510 OFFCURVE",
"231 585 OFFCURVE",
"354 585 CURVE SMOOTH",
"428 585 OFFCURVE",
"522 536 OFFCURVE",
"522 536 CURVE",
"537 609 LINE",
"537 609 OFFCURVE",
"440 660 OFFCURVE",
"336 660 CURVE SMOOTH",
"147 660 OFFCURVE",
"36 534 OFFCURVE",
"36 323 CURVE SMOOTH",
"36 113 OFFCURVE",
"137 -11 OFFCURVE",
"315 -11 CURVE SMOOTH"
);
},
{
closed = 1;
nodes = (
"357 -293 OFFCURVE",
"398 -213 OFFCURVE",
"398 -145 CURVE SMOOTH",
"398 -115 OFFCURVE",
"390 -88 OFFCURVE",
"372 -67 CURVE SMOOTH",
"368 -62 LINE",
"356 -51 OFFCURVE",
"340 -46 OFFCURVE",
"325 -46 CURVE SMOOTH",
"309 -46 OFFCURVE",
"294 -51 OFFCURVE",
"283 -62 CURVE SMOOTH",
"270 -75 OFFCURVE",
"264 -91 OFFCURVE",
"264 -108 CURVE SMOOTH",
"264 -125 OFFCURVE",
"270 -142 OFFCURVE",
"283 -154 CURVE SMOOTH",
"294 -164 OFFCURVE",
"309 -170 OFFCURVE",
"325 -170 CURVE SMOOTH",
"332 -170 LINE",
"332 -174 OFFCURVE",
"333 -178 OFFCURVE",
"333 -182 CURVE SMOOTH",
"333 -224 OFFCURVE",
"310 -269 OFFCURVE",
"268 -308 CURVE",
"297 -339 LINE"
);
}
);
width = 625;
}
);
note = Gcommaaccent;
unicode = 0122;
},
{
glyphname = H;
lastChange = "2016-09-16 17:56:47 +0000";
layers = (
{
layerId = "28637767-9EF2-44E2-B459-E4A39AD280E7";
paths = (
{
closed = 1;
nodes = (
"170 0 LINE",
"170 312 LINE",
"467 312 LINE",
"467 0 LINE",
"543 0 LINE",
"543 650 LINE",
"467 650 LINE",
"467 358 LINE",
"170 358 LINE",
"170 650 LINE",
"94 650 LINE",
"94 0 LINE"
);
}
);
width = 638;
},
{
layerId = "85DC84FC-A9CD-42A1-AFE4-850615EB4B70";
paths = (
{
closed = 1;
nodes = (
"215 0 LINE",
"215 296 LINE",
"440 296 LINE",
"440 0 LINE",
"578 0 LINE",
"578 650 LINE",
"440 650 LINE",
"440 366 LINE",
"215 366 LINE",
"215 650 LINE",
"77 650 LINE",
"77 0 LINE"
);
}
);
width = 655;
}
);
note = H;
unicode = 0048;
},
{
glyphname = I;
lastChange = "2016-09-30 15:46:23 +0000";
layers = (
{
anchors = (
{
name = bottom;
position = "{133, 0}";
},
{
name = ogonek;
position = "{238, 10}";
},
{
name = top;
position = "{133, 650}";
},
{
name = topleft;
position = "{20, 650}";
}
);
layerId = "28637767-9EF2-44E2-B459-E4A39AD280E7";
paths = (
{
closed = 1;
nodes = (
"170 0 LINE",
"170 650 LINE",
"94 650 LINE",
"94 0 LINE"
);
}
);
width = 265;
},
{
anchors = (
{
name = bottom;
position = "{147, 0}";
},
{
name = ogonek;
position = "{264, 10}";
},
{
name = top;
position = "{147, 650}";
},
{
name = topleft;
position = "{20, 650}";
}
);
layerId = "85DC84FC-A9CD-42A1-AFE4-850615EB4B70";
paths = (
{
closed = 1;
nodes = (
"215 0 LINE",
"215 650 LINE",
"77 650 LINE",
"77 0 LINE"
);
}
);
width = 293;
}
);
note = I;
unicode = 0049;
},
{
glyphname = Iacute;
lastChange = "2016-09-16 17:56:47 +0000";
layers = (
{
layerId = "28637767-9EF2-44E2-B459-E4A39AD280E7";
paths = (
{
closed = 1;
nodes = (
"170 0 LINE",
"170 650 LINE",
"94 650 LINE",
"94 0 LINE"
);
},
{
closed = 1;
nodes = (
"239 841 LINE",
"176 856 LINE",
"99 711 LINE",
"137 706 LINE"
);
}
);
width = 265;
},
{
layerId = "85DC84FC-A9CD-42A1-AFE4-850615EB4B70";
paths = (
{
closed = 1;
nodes = (
"215 0 LINE",
"215 650 LINE",
"77 650 LINE",
"77 0 LINE"
);
},
{
closed = 1;
nodes = (
"278 834 LINE",
"170 865 LINE",
"100 713 LINE",
"157 704 LINE"
);
}
);
width = 293;
}
);
note = Iacute;
unicode = 00CD;
},
{
glyphname = Icircumflex;
lastChange = "2016-09-16 17:56:47 +0000";
layers = (
{
layerId = "28637767-9EF2-44E2-B459-E4A39AD280E7";
paths = (
{
closed = 1;
nodes = (
"170 0 LINE",
"170 650 LINE",
"94 650 LINE",
"94 0 LINE"
);
},
{
closed = 1;
nodes = (
"131 829 LINE",
"241 732 LINE",
"259 764 LINE",
"151 878 LINE",
"112 878 LINE",
"2 764 LINE",
"21 732 LINE"
);
}
);
width = 265;
},
{
layerId = "85DC84FC-A9CD-42A1-AFE4-850615EB4B70";
paths = (
{
closed = 1;
nodes = (
"215 0 LINE",
"215 650 LINE",
"77 650 LINE",
"77 0 LINE"
);
},
{
closed = 1;
nodes = (
"145 806 LINE",
"249 721 LINE",
"277 766 LINE",
"180 888 LINE",
"110 888 LINE",
"12 766 LINE",
"41 721 LINE"
);
}
);
width = 293;
}
);
note = Icircumflex;
unicode = 00CE;
},
{
glyphname = Idieresis;
lastChange = "2016-09-16 17:56:47 +0000";
layers = (
{
layerId = "28637767-9EF2-44E2-B459-E4A39AD280E7";
paths = (
{
closed = 1;
nodes = (
"170 0 LINE",
"170 650 LINE",
"94 650 LINE",
"94 0 LINE"
);
},
{
closed = 1;
nodes = (
"64 740 OFFCURVE",
"72 744 OFFCURVE",
"80 750 CURVE",
"87 758 OFFCURVE",
"91 768 OFFCURVE",
"91 779 CURVE SMOOTH",
"91 790 OFFCURVE",
"87 801 OFFCURVE",
"80 809 CURVE",
"72 815 OFFCURVE",
"64 819 OFFCURVE",
"54 819 CURVE SMOOTH",
"44 819 OFFCURVE",
"35 815 OFFCURVE",
"27 809 CURVE",
"19 801 OFFCURVE",
"16 790 OFFCURVE",
"16 779 CURVE SMOOTH",
"16 768 OFFCURVE",
"19 758 OFFCURVE",
"27 750 CURVE",
"35 744 OFFCURVE",
"44 740 OFFCURVE",
"54 740 CURVE SMOOTH"
);
},
{
closed = 1;
nodes = (
"216 740 OFFCURVE",
"225 744 OFFCURVE",
"233 750 CURVE",
"241 758 OFFCURVE",
"245 768 OFFCURVE",
"245 779 CURVE SMOOTH",
"245 790 OFFCURVE",
"241 801 OFFCURVE",
"233 809 CURVE",
"225 815 OFFCURVE",
"216 819 OFFCURVE",
"207 819 CURVE SMOOTH",
"198 819 OFFCURVE",
"189 815 OFFCURVE",
"181 809 CURVE",
"173 801 OFFCURVE",
"170 790 OFFCURVE",
"170 779 CURVE SMOOTH",
"170 768 OFFCURVE",
"173 758 OFFCURVE",
"181 750 CURVE",
"189 744 OFFCURVE",
"198 740 OFFCURVE",
"207 740 CURVE SMOOTH"
);
}
);
width = 265;
},
{
layerId = "85DC84FC-A9CD-42A1-AFE4-850615EB4B70";
paths = (
{
closed = 1;
nodes = (
"215 0 LINE",
"215 650 LINE",
"77 650 LINE",
"77 0 LINE"
);
},
{
closed = 1;
nodes = (
"67 717 OFFCURVE",
"83 723 OFFCURVE",
"96 735 CURVE",
"109 749 OFFCURVE",
"116 768 OFFCURVE",
"116 787 CURVE SMOOTH",
"116 806 OFFCURVE",
"109 824 OFFCURVE",
"96 839 CURVE",
"83 850 OFFCURVE",
"67 856 OFFCURVE",
"50 856 CURVE SMOOTH",
"33 856 OFFCURVE",
"17 850 OFFCURVE",
"4 839 CURVE",
"-10 824 OFFCURVE",
"-16 806 OFFCURVE",
"-16 787 CURVE SMOOTH",
"-16 768 OFFCURVE",
"-10 749 OFFCURVE",
"4 735 CURVE",
"17 723 OFFCURVE",
"33 717 OFFCURVE",
"50 717 CURVE SMOOTH"
);
},
{
closed = 1;
nodes = (
"253 717 OFFCURVE",
"269 723 OFFCURVE",
"282 735 CURVE",
"295 749 OFFCURVE",
"302 768 OFFCURVE",
"302 787 CURVE SMOOTH",
"302 806 OFFCURVE",
"295 824 OFFCURVE",
"282 839 CURVE",
"269 850 OFFCURVE",
"253 856 OFFCURVE",
"236 856 CURVE SMOOTH",
"219 856 OFFCURVE",
"202 850 OFFCURVE",
"190 839 CURVE",
"176 824 OFFCURVE",
"170 806 OFFCURVE",
"170 787 CURVE SMOOTH",
"170 768 OFFCURVE",
"176 749 OFFCURVE",
"190 735 CURVE SMOOTH",
"202 723 OFFCURVE",
"219 717 OFFCURVE",
"236 717 CURVE SMOOTH"
);
}
);
width = 293;
}
);
note = Idieresis;
unicode = 00CF;
},
{
glyphname = Idotaccent;
lastChange = "2016-09-16 17:56:47 +0000";
layers = (
{
layerId = "28637767-9EF2-44E2-B459-E4A39AD280E7";
paths = (
{
closed = 1;
nodes = (
"170 0 LINE",
"170 650 LINE",
"94 650 LINE",
"94 0 LINE"
);
},
{
closed = 1;
nodes = (
"143 736 OFFCURVE",
"153 740 OFFCURVE",
"162 747 CURVE",
"170 756 OFFCURVE",
"174 767 OFFCURVE",
"174 779 CURVE SMOOTH",
"174 791 OFFCURVE",
"170 803 OFFCURVE",
"162 812 CURVE",
"154 819 OFFCURVE",
"143 822 OFFCURVE",
"132 822 CURVE SMOOTH",
"121 822 OFFCURVE",
"111 819 OFFCURVE",
"103 811 CURVE SMOOTH",
"94 802 OFFCURVE",
"90 791 OFFCURVE",
"90 779 CURVE SMOOTH",
"90 767 OFFCURVE",
"94 756 OFFCURVE",
"103 747 CURVE SMOOTH",
"110 740 OFFCURVE",
"121 736 OFFCURVE",
"132 736 CURVE SMOOTH"
);
}
);
width = 265;
},
{
layerId = "85DC84FC-A9CD-42A1-AFE4-850615EB4B70";
paths = (
{
closed = 1;
nodes = (
"215 0 LINE",
"215 650 LINE",
"77 650 LINE",
"77 0 LINE"
);
},
{
closed = 1;
nodes = (
"166 710 OFFCURVE",
"184 717 OFFCURVE",
"198 729 CURVE",
"213 745 OFFCURVE",
"220 766 OFFCURVE",
"220 787 CURVE SMOOTH",
"220 808 OFFCURVE",
"213 828 OFFCURVE",
"198 844 CURVE",
"184 857 OFFCURVE",
"166 863 OFFCURVE",
"147 863 CURVE SMOOTH",
"128 863 OFFCURVE",
"109 857 OFFCURVE",
"94 843 CURVE SMOOTH",
"79 828 OFFCURVE",
"71 808 OFFCURVE",
"71 787 CURVE SMOOTH",
"71 766 OFFCURVE",
"79 745 OFFCURVE",
"94 730 CURVE",
"109 717 OFFCURVE",
"128 710 OFFCURVE",
"147 710 CURVE SMOOTH"
);
}
);
width = 293;
}
);
note = Idotaccent;
unicode = 0130;
},
{
glyphname = Igrave;
lastChange = "2016-09-16 17:56:47 +0000";
layers = (
{
layerId = "28637767-9EF2-44E2-B459-E4A39AD280E7";
paths = (
{
closed = 1;
nodes = (
"170 0 LINE",
"170 650 LINE",
"94 650 LINE",
"94 0 LINE"
);
},
{
closed = 1;
nodes = (
"164 716 LINE",
"81 859 LINE",
"19 843 LINE",
"124 708 LINE"
);
}
);
width = 265;
},
{
layerId = "85DC84FC-A9CD-42A1-AFE4-850615EB4B70";
paths = (
{
closed = 1;
nodes = (
"215 0 LINE",
"215 650 LINE",
"77 650 LINE",
"77 0 LINE"
);
},
{
closed = 1;
nodes = (
"195 726 LINE",
"110 873 LINE",
"4 838 LINE",
"133 709 LINE"
);
}
);
width = 293;
}
);
note = Igrave;
unicode = 00CC;
},
{
glyphname = Imacron;
lastChange = "2016-09-16 17:56:47 +0000";
layers = (
{
layerId = "28637767-9EF2-44E2-B459-E4A39AD280E7";
paths = (
{
closed = 1;
nodes = (
"170 0 LINE",
"170 650 LINE",
"94 650 LINE",
"94 0 LINE"
);
},
{
closed = 1;
nodes = (
"226 771 LINE",
"226 807 LINE",
"40 807 LINE",
"40 771 LINE"
);
}
);
width = 265;
},
{
layerId = "85DC84FC-A9CD-42A1-AFE4-850615EB4B70";
paths = (
{
closed = 1;
nodes = (
"215 0 LINE",
"215 650 LINE",
"77 650 LINE",
"77 0 LINE"
);
},
{
closed = 1;
nodes = (
"255 759 LINE",
"255 817 LINE",
"41 817 LINE",
"41 759 LINE"
);
}
);
width = 293;
}
);
note = Imacron;
unicode = 012A;
},
{
glyphname = Iogonek;
lastChange = "2016-09-16 17:56:47 +0000";
layers = (
{
layerId = "28637767-9EF2-44E2-B459-E4A39AD280E7";
paths = (
{
closed = 1;
nodes = (
"150 -218 LINE",
"96 -218 OFFCURVE",
"45 -204 OFFCURVE",
"45 -135 CURVE SMOOTH",
"45 -57 OFFCURVE",
"107 -12 OFFCURVE",
"126 0 CURVE",
"170 0 LINE",
"170 650 LINE",
"94 650 LINE",
"94 7 LINE",
"57 -17 OFFCURVE",
"-5 -67 OFFCURVE",
"-5 -139 CURVE SMOOTH",
"-5 -233 OFFCURVE",
"75 -250 OFFCURVE",
"150 -250 CURVE"
);
}
);
width = 265;
},
{
layerId = "85DC84FC-A9CD-42A1-AFE4-850615EB4B70";
paths = (
{
closed = 1;
nodes = (
"131 -201 LINE",
"79 -201 OFFCURVE",
"55 -186 OFFCURVE",
"55 -123 CURVE SMOOTH",
"55 -49 OFFCURVE",
"101 -13 OFFCURVE",
"124 0 CURVE",
"215 0 LINE",
"215 650 LINE",
"77 650 LINE",
"77 14 LINE",
"32 -13 OFFCURVE",
"-33 -63 OFFCURVE",
"-33 -133 CURVE SMOOTH",
"-33 -232 OFFCURVE",
"44 -250 OFFCURVE",
"131 -250 CURVE"
);
}
);
width = 293;
}
);
note = Iogonek;
unicode = 012E;
},
{
glyphname = J;
lastChange = "2016-09-16 17:56:47 +0000";
layers = (
{
layerId = "28637767-9EF2-44E2-B459-E4A39AD280E7";
paths = (
{
closed = 1;
nodes = (
"209 -10 OFFCURVE",
"275 30 OFFCURVE",
"275 191 CURVE SMOOTH",
"275 650 LINE",
"200 650 LINE",
"200 191 LINE SMOOTH",
"200 62 OFFCURVE",
"153 38 OFFCURVE",
"107 38 CURVE SMOOTH",
"49 38 OFFCURVE",
"26 71 OFFCURVE",
"26 71 CURVE",
"6 32 LINE",
"6 32 OFFCURVE",
"32 -10 OFFCURVE",
"124 -10 CURVE SMOOTH"
);
}
);
width = 362;
},
{
layerId = "85DC84FC-A9CD-42A1-AFE4-850615EB4B70";
paths = (
{
closed = 1;
nodes = (
"252 -11 OFFCURVE",
"315 43 OFFCURVE",
"315 214 CURVE SMOOTH",
"315 650 LINE",
"177 650 LINE",
"177 214 LINE SMOOTH",
"177 89 OFFCURVE",
"150 60 OFFCURVE",
"103 60 CURVE SMOOTH",
"57 60 OFFCURVE",
"34 88 OFFCURVE",
"34 88 CURVE",
"4 30 LINE",
"4 30 OFFCURVE",
"32 -11 OFFCURVE",
"133 -11 CURVE SMOOTH"
);
}
);
width = 384;
}
);
note = J;
unicode = 004A;
},
{
glyphname = K;
lastChange = "2016-09-16 17:56:47 +0000";
layers = (
{
layerId = "28637767-9EF2-44E2-B459-E4A39AD280E7";
paths = (
{
closed = 1;
nodes = (
"170 0 LINE",
"170 239 LINE",
"245 302 LINE",
"465 0 LINE",
"560 0 LINE",
"301 360 LINE",
"529 650 LINE",
"468 650 LINE",
"249 366 LINE",
"170 296 LINE",
"170 650 LINE",
"94 650 LINE",
"94 0 LINE"
);
}
);
width = 580;
},
{
layerId = "85DC84FC-A9CD-42A1-AFE4-850615EB4B70";
paths = (
{
closed = 1;
nodes = (
"215 0 LINE",
"215 262 LINE",
"258 292 LINE",
"432 0 LINE",
"607 0 LINE",
"364 396 LINE",
"561 650 LINE",
"465 650 LINE",
"274 392 LINE",
"215 349 LINE",
"215 650 LINE",
"77 650 LINE",
"77 0 LINE"
);
}
);
width = 619;
}
);
note = K;
unicode = 004B;
},
{
glyphname = Kcommaaccent;
lastChange = "2016-09-16 17:56:47 +0000";
layers = (
{
layerId = "28637767-9EF2-44E2-B459-E4A39AD280E7";
paths = (
{
closed = 1;
nodes = (
"170 0 LINE",
"170 239 LINE",
"245 302 LINE",
"465 0 LINE",
"560 0 LINE",
"301 360 LINE",
"529 650 LINE",
"468 650 LINE",
"249 366 LINE",
"170 296 LINE",
"170 650 LINE",
"94 650 LINE",
"94 0 LINE"
);
},
{
closed = 1;
nodes = (
"309 -247 OFFCURVE",
"342 -169 OFFCURVE",
"342 -111 CURVE SMOOTH",
"342 -87 OFFCURVE",
"336 -66 OFFCURVE",
"323 -54 CURVE",
"316 -48 OFFCURVE",
"307 -45 OFFCURVE",
"298 -45 CURVE SMOOTH",
"289 -45 OFFCURVE",
"280 -48 OFFCURVE",
"273 -54 CURVE",
"266 -61 OFFCURVE",
"262 -71 OFFCURVE",
"262 -81 CURVE SMOOTH",
"262 -91 OFFCURVE",
"266 -101 OFFCURVE",
"273 -108 CURVE",
"280 -114 OFFCURVE",
"290 -117 OFFCURVE",
"299 -117 CURVE",
"300 -123 OFFCURVE",
"300 -129 OFFCURVE",
"300 -135 CURVE SMOOTH",
"300 -178 OFFCURVE",
"280 -232 OFFCURVE",
"240 -269 CURVE",
"258 -288 LINE"
);
}
);
width = 600;
},
{
layerId = "85DC84FC-A9CD-42A1-AFE4-850615EB4B70";
paths = (
{
closed = 1;
nodes = (
"215 0 LINE",
"215 262 LINE",
"258 292 LINE",
"432 0 LINE",
"607 0 LINE",
"364 396 LINE",
"561 650 LINE",
"465 650 LINE",
"274 392 LINE",
"215 349 LINE",
"215 650 LINE",
"77 650 LINE",
"77 0 LINE"
);
},
{
closed = 1;
nodes = (
"345 -293 OFFCURVE",
"386 -213 OFFCURVE",
"386 -145 CURVE SMOOTH",
"386 -115 OFFCURVE",
"378 -88 OFFCURVE",
"360 -67 CURVE SMOOTH",
"356 -62 LINE",
"344 -51 OFFCURVE",
"328 -46 OFFCURVE",
"313 -46 CURVE SMOOTH",
"297 -46 OFFCURVE",
"282 -51 OFFCURVE",
"271 -62 CURVE SMOOTH",
"258 -75 OFFCURVE",
"252 -91 OFFCURVE",
"252 -108 CURVE SMOOTH",
"252 -125 OFFCURVE",
"258 -142 OFFCURVE",
"271 -154 CURVE SMOOTH",
"282 -164 OFFCURVE",
"297 -170 OFFCURVE",
"313 -170 CURVE SMOOTH",
"320 -170 LINE",
"320 -174 OFFCURVE",
"321 -178 OFFCURVE",
"321 -182 CURVE SMOOTH",
"321 -224 OFFCURVE",
"298 -269 OFFCURVE",
"256 -308 CURVE",
"285 -339 LINE"
);
}
);
width = 626;
}
);
note = Kcommaaccent;
unicode = 0136;
},
{
glyphname = L;
lastChange = "2016-09-16 17:56:47 +0000";
layers = (
{
layerId = "28637767-9EF2-44E2-B459-E4A39AD280E7";
paths = (
{
closed = 1;
nodes = (
"459 0 LINE",
"459 48 LINE",
"170 48 LINE",
"170 650 LINE",
"94 650 LINE",
"94 0 LINE"
);
}
);
width = 471;
},
{
layerId = "85DC84FC-A9CD-42A1-AFE4-850615EB4B70";
paths = (
{
closed = 1;
nodes = (
"467 0 LINE",
"467 72 LINE",
"215 72 LINE",
"215 650 LINE",
"77 650 LINE",
"77 0 LINE"
);
}
);
width = 479;
}
);
note = L;
unicode = 004C;
},
{
glyphname = Lacute;
lastChange = "2016-09-16 17:56:47 +0000";
layers = (
{
layerId = "28637767-9EF2-44E2-B459-E4A39AD280E7";
paths = (
{
closed = 1;
nodes = (
"459 0 LINE",
"459 48 LINE",
"170 48 LINE",
"170 650 LINE",
"94 650 LINE",
"94 0 LINE"
);
},
{
closed = 1;
nodes = (
"247 841 LINE",
"184 856 LINE",
"107 711 LINE",
"145 706 LINE"
);
}
);
width = 475;
},
{
layerId = "85DC84FC-A9CD-42A1-AFE4-850615EB4B70";
paths = (
{
closed = 1;
nodes = (
"467 0 LINE",
"467 72 LINE",
"215 72 LINE",
"215 650 LINE",
"77 650 LINE",
"77 0 LINE"
);
},
{
closed = 1;
nodes = (
"294 834 LINE",
"186 865 LINE",
"116 713 LINE",
"173 704 LINE"
);
}
);
width = 491;
}
);
note = Lacute;
unicode = 0139;
},
{
glyphname = Lcaron;
lastChange = "2016-09-16 17:56:47 +0000";
layers = (
{
layerId = "28637767-9EF2-44E2-B459-E4A39AD280E7";
paths = (
{
closed = 1;
nodes = (
"459 0 LINE",
"459 48 LINE",
"170 48 LINE",
"170 650 LINE",
"94 650 LINE",
"94 0 LINE"
);
},
{
closed = 1;
nodes = (
"152 708 LINE",
"271 829 LINE",
"243 855 LINE",
"132 754 LINE",
"23 855 LINE",
"-6 831 LINE",
"113 708 LINE"
);
}
);
width = 475;
},
{
layerId = "85DC84FC-A9CD-42A1-AFE4-850615EB4B70";
paths = (
{
closed = 1;
nodes = (
"467 0 LINE",
"467 72 LINE",
"215 72 LINE",
"215 650 LINE",
"77 650 LINE",
"77 0 LINE"
);
},
{
closed = 1;
nodes = (
"183 707 LINE",
"298 841 LINE",
"256 880 LINE",
"148 787 LINE",
"40 880 LINE",
"-2 845 LINE",
"113 707 LINE"
);
}
);
width = 491;
}
);
note = Lcaron;
unicode = 013D;
},
{
glyphname = Lcommaaccent;
lastChange = "2016-09-16 17:56:47 +0000";
layers = (
{
layerId = "28637767-9EF2-44E2-B459-E4A39AD280E7";
paths = (
{
closed = 1;
nodes = (
"459 0 LINE",
"459 48 LINE",
"170 48 LINE",
"170 650 LINE",
"94 650 LINE",
"94 0 LINE"
);
},
{
closed = 1;
nodes = (
"276 -247 OFFCURVE",
"309 -169 OFFCURVE",
"309 -111 CURVE SMOOTH",
"309 -87 OFFCURVE",
"303 -66 OFFCURVE",
"290 -54 CURVE",
"283 -48 OFFCURVE",
"274 -45 OFFCURVE",
"265 -45 CURVE SMOOTH",
"256 -45 OFFCURVE",
"247 -48 OFFCURVE",
"240 -54 CURVE",
"233 -61 OFFCURVE",
"229 -71 OFFCURVE",
"229 -81 CURVE SMOOTH",
"229 -91 OFFCURVE",
"233 -101 OFFCURVE",
"240 -108 CURVE",
"247 -114 OFFCURVE",
"257 -117 OFFCURVE",
"266 -117 CURVE",
"267 -123 OFFCURVE",
"267 -129 OFFCURVE",
"267 -135 CURVE SMOOTH",
"267 -178 OFFCURVE",
"247 -232 OFFCURVE",
"207 -269 CURVE",
"225 -288 LINE"
);
}
);
width = 475;
},
{
layerId = "85DC84FC-A9CD-42A1-AFE4-850615EB4B70";
paths = (
{
closed = 1;
nodes = (
"467 0 LINE",
"467 72 LINE",
"215 72 LINE",
"215 650 LINE",
"77 650 LINE",
"77 0 LINE"
);
},
{
closed = 1;
nodes = (
"300 -293 OFFCURVE",
"341 -213 OFFCURVE",
"341 -145 CURVE SMOOTH",
"341 -115 OFFCURVE",
"333 -88 OFFCURVE",
"315 -67 CURVE SMOOTH",
"311 -62 LINE",
"299 -51 OFFCURVE",
"283 -46 OFFCURVE",
"268 -46 CURVE SMOOTH",
"252 -46 OFFCURVE",
"237 -51 OFFCURVE",
"226 -62 CURVE SMOOTH",
"213 -75 OFFCURVE",
"207 -91 OFFCURVE",
"207 -108 CURVE SMOOTH",
"207 -125 OFFCURVE",
"213 -142 OFFCURVE",
"226 -154 CURVE SMOOTH",
"237 -164 OFFCURVE",
"252 -170 OFFCURVE",
"268 -170 CURVE SMOOTH",
"275 -170 LINE",
"275 -174 OFFCURVE",
"276 -178 OFFCURVE",
"276 -182 CURVE SMOOTH",
"276 -224 OFFCURVE",
"253 -269 OFFCURVE",
"211 -308 CURVE",
"240 -339 LINE"
);
}
);
width = 491;
}
);
note = Lcommaaccent;
unicode = 013B;
},
{
glyphname = Lslash;
lastChange = "2016-09-16 17:56:47 +0000";
layers = (
{
layerId = "28637767-9EF2-44E2-B459-E4A39AD280E7";
paths = (
{
closed = 1;
nodes = (
"485 0 LINE",
"485 48 LINE",
"196 48 LINE",
"196 313 LINE",
"338 417 LINE",
"318 444 LINE",
"196 354 LINE",
"196 650 LINE",
"120 650 LINE",
"120 299 LINE",
"34 236 LINE",
"54 209 LINE",
"120 257 LINE",
"120 0 LINE"
);
}
);
width = 496;
},
{
layerId = "85DC84FC-A9CD-42A1-AFE4-850615EB4B70";
paths = (
{
closed = 1;
nodes = (
"501 0 LINE",
"501 72 LINE",
"249 72 LINE",
"249 318 LINE",
"381 415 LINE",
"348 457 LINE",
"249 384 LINE",
"249 650 LINE",
"111 650 LINE",
"111 283 LINE",
"31 224 LINE",
"64 182 LINE",
"111 216 LINE",
"111 0 LINE"
);
}
);
width = 514;
}
);
note = Lslash;
unicode = 0141;
},
{
glyphname = M;
lastChange = "2016-09-16 17:56:47 +0000";
layers = (
{
layerId = "28637767-9EF2-44E2-B459-E4A39AD280E7";
paths = (
{
closed = 1;
nodes = (
"149 0 LINE",
"151 557 LINE",
"377 0 LINE",
"438 0 LINE",
"663 557 LINE",
"664 557 LINE",
"667 0 LINE",
"741 0 LINE",
"738 650 LINE",
"650 650 LINE",
"421 93 LINE",
"420 93 LINE",
"191 650 LINE",
"98 650 LINE",
"99 647 LINE",
"97 650 LINE",
"94 0 LINE"
);
}
);
width = 835;
},
{
layerId = "85DC84FC-A9CD-42A1-AFE4-850615EB4B70";
paths = (
{
closed = 1;
nodes = (
"163 0 LINE",
"166 492 LINE",
"169 492 LINE",
"350 0 LINE",
"453 0 LINE",
"634 492 LINE",
"637 492 LINE",
"644 0 LINE",
"779 0 LINE",
"772 650 LINE",
"617 650 LINE",
"438 171 LINE",
"434 171 LINE",
"252 650 LINE",
"85 650 LINE",
"77 0 LINE"
);
}
);
width = 856;
}
);
note = M;
unicode = 004D;
},
{
glyphname = N;
lastChange = "2016-09-16 17:56:47 +0000";
layers = (
{
layerId = "28637767-9EF2-44E2-B459-E4A39AD280E7";
paths = (
{
closed = 1;
nodes = (
"149 0 LINE",
"149 523 LINE",
"144 554 LINE",
"145 554 LINE",
"491 0 LINE",
"557 0 LINE",
"557 650 LINE",
"502 650 LINE",
"502 138 LINE",
"505 114 LINE",
"173 650 LINE",
"94 650 LINE",
"94 0 LINE"
);
}
);
width = 651;
},
{
layerId = "85DC84FC-A9CD-42A1-AFE4-850615EB4B70";
paths = (
{
closed = 1;
nodes = (
"163 0 LINE",
"163 430 LINE",
"155 488 LINE",
"157 488 LINE",
"466 0 LINE",
"574 0 LINE",
"574 650 LINE",
"488 650 LINE",
"488 254 LINE",
"495 209 LINE",
"493 209 LINE",
"220 650 LINE",
"77 650 LINE",
"77 0 LINE"
);
}
);
width = 651;
}
);
note = N;
unicode = 004E;
},
{
glyphname = Nacute;
lastChange = "2016-09-16 17:56:47 +0000";
layers = (
{
layerId = "28637767-9EF2-44E2-B459-E4A39AD280E7";
paths = (
{
closed = 1;
nodes = (
"149 0 LINE",
"149 523 LINE",
"144 554 LINE",
"145 554 LINE",
"491 0 LINE",
"557 0 LINE",
"557 650 LINE",
"502 650 LINE",
"502 138 LINE",
"505 114 LINE",
"173 650 LINE",
"94 650 LINE",
"94 0 LINE"
);
},
{
closed = 1;
nodes = (
"454 841 LINE",
"391 856 LINE",
"314 711 LINE",
"352 706 LINE"
);
}
);
width = 651;
},
{
layerId = "85DC84FC-A9CD-42A1-AFE4-850615EB4B70";
paths = (
{
closed = 1;
nodes = (
"163 0 LINE",
"163 430 LINE",
"155 488 LINE",
"157 488 LINE",
"466 0 LINE",
"574 0 LINE",
"574 650 LINE",
"488 650 LINE",
"488 254 LINE",
"495 209 LINE",
"493 209 LINE",
"220 650 LINE",
"77 650 LINE",
"77 0 LINE"
);
},
{
closed = 1;
nodes = (
"487 834 LINE",
"379 865 LINE",
"309 713 LINE",
"366 704 LINE"
);
}
);
width = 651;
}
);
note = Nacute;
unicode = 0143;
},
{
glyphname = Ncaron;
lastChange = "2016-09-16 17:56:47 +0000";
layers = (
{
layerId = "28637767-9EF2-44E2-B459-E4A39AD280E7";
paths = (
{
closed = 1;
nodes = (
"149 0 LINE",
"149 523 LINE",
"144 554 LINE",
"145 554 LINE",
"491 0 LINE",
"557 0 LINE",
"557 650 LINE",
"502 650 LINE",
"502 138 LINE",
"505 114 LINE",
"173 650 LINE",
"94 650 LINE",
"94 0 LINE"
);
},
{
closed = 1;
nodes = (
"369 708 LINE",
"488 829 LINE",
"460 855 LINE",
"349 754 LINE",
"240 855 LINE",
"211 831 LINE",
"330 708 LINE"
);
}
);
width = 651;
},
{
layerId = "85DC84FC-A9CD-42A1-AFE4-850615EB4B70";
paths = (
{
closed = 1;
nodes = (
"163 0 LINE",
"163 430 LINE",
"155 488 LINE",
"157 488 LINE",
"466 0 LINE",
"574 0 LINE",
"574 650 LINE",
"488 650 LINE",
"488 254 LINE",
"495 209 LINE",
"493 209 LINE",
"220 650 LINE",
"77 650 LINE",
"77 0 LINE"
);
},
{
closed = 1;
nodes = (
"394 707 LINE",
"509 841 LINE",
"467 880 LINE",
"359 787 LINE",
"251 880 LINE",
"209 845 LINE",
"324 707 LINE"
);
}
);
width = 651;
}
);
note = Ncaron;
unicode = 0147;
},
{
glyphname = Ncommaaccent;
lastChange = "2016-09-16 17:56:47 +0000";
layers = (
{
layerId = "28637767-9EF2-44E2-B459-E4A39AD280E7";
paths = (
{
closed = 1;
nodes = (
"149 0 LINE",
"149 523 LINE",
"144 554 LINE",
"145 554 LINE",
"491 0 LINE",
"557 0 LINE",
"557 650 LINE",
"502 650 LINE",
"502 138 LINE",
"505 114 LINE",
"173 650 LINE",
"94 650 LINE",
"94 0 LINE"
);
},
{
closed = 1;
nodes = (
"335 -247 OFFCURVE",
"368 -169 OFFCURVE",
"368 -111 CURVE SMOOTH",
"368 -87 OFFCURVE",
"362 -66 OFFCURVE",
"349 -54 CURVE",
"342 -48 OFFCURVE",
"333 -45 OFFCURVE",
"324 -45 CURVE SMOOTH",
"315 -45 OFFCURVE",
"306 -48 OFFCURVE",
"299 -54 CURVE",
"292 -61 OFFCURVE",
"288 -71 OFFCURVE",
"288 -81 CURVE SMOOTH",
"288 -91 OFFCURVE",
"292 -101 OFFCURVE",
"299 -108 CURVE",
"306 -114 OFFCURVE",
"316 -117 OFFCURVE",
"325 -117 CURVE",
"326 -123 OFFCURVE",
"326 -129 OFFCURVE",
"326 -135 CURVE SMOOTH",
"326 -178 OFFCURVE",
"306 -232 OFFCURVE",
"266 -269 CURVE",
"284 -288 LINE"
);
}
);
width = 651;
},
{
layerId = "85DC84FC-A9CD-42A1-AFE4-850615EB4B70";
paths = (
{
closed = 1;
nodes = (
"163 0 LINE",
"163 430 LINE",
"155 488 LINE",
"157 488 LINE",
"466 0 LINE",
"574 0 LINE",
"574 650 LINE",
"488 650 LINE",
"488 254 LINE",
"495 209 LINE",
"493 209 LINE",
"220 650 LINE",
"77 650 LINE",
"77 0 LINE"
);
},
{
closed = 1;
nodes = (
"348 -293 OFFCURVE",
"389 -213 OFFCURVE",
"389 -145 CURVE SMOOTH",
"389 -115 OFFCURVE",
"381 -88 OFFCURVE",
"363 -67 CURVE SMOOTH",
"359 -62 LINE",
"347 -51 OFFCURVE",
"331 -46 OFFCURVE",
"316 -46 CURVE SMOOTH",
"300 -46 OFFCURVE",
"285 -51 OFFCURVE",
"274 -62 CURVE SMOOTH",
"261 -75 OFFCURVE",
"255 -91 OFFCURVE",
"255 -108 CURVE SMOOTH",
"255 -125 OFFCURVE",
"261 -142 OFFCURVE",
"274 -154 CURVE SMOOTH",
"285 -164 OFFCURVE",
"300 -170 OFFCURVE",
"316 -170 CURVE SMOOTH",
"323 -170 LINE",
"323 -174 OFFCURVE",
"324 -178 OFFCURVE",
"324 -182 CURVE SMOOTH",
"324 -224 OFFCURVE",
"301 -269 OFFCURVE",
"259 -308 CURVE",
"288 -339 LINE"
);
}
);
width = 651;
}
);
note = Ncommaaccent;
unicode = 0145;
},
{
glyphname = Ntilde;
lastChange = "2016-09-16 17:56:47 +0000";
layers = (
{
layerId = "28637767-9EF2-44E2-B459-E4A39AD280E7";
paths = (
{
closed = 1;
nodes = (
"149 0 LINE",
"149 523 LINE",
"144 554 LINE",
"145 554 LINE",
"491 0 LINE",
"557 0 LINE",
"557 650 LINE",
"502 650 LINE",
"502 138 LINE",
"505 114 LINE",
"173 650 LINE",
"94 650 LINE",
"94 0 LINE"
);
},
{
closed = 1;
nodes = (
"472 730 OFFCURVE",
"495 781 OFFCURVE",
"495 781 CURVE",
"472 806 LINE",
"472 806 OFFCURVE",
"457 779 OFFCURVE",
"421 779 CURVE SMOOTH",
"370 779 OFFCURVE",
"332 825 OFFCURVE",
"269 825 CURVE SMOOTH",
"204 825 OFFCURVE",
"173 762 OFFCURVE",
"173 762 CURVE",
"196 737 LINE",
"196 737 OFFCURVE",
"217 776 OFFCURVE",
"256 776 CURVE SMOOTH",
"310 776 OFFCURVE",
"351 730 OFFCURVE",
"410 730 CURVE SMOOTH"
);
}
);
width = 651;
},
{
layerId = "85DC84FC-A9CD-42A1-AFE4-850615EB4B70";
paths = (
{
closed = 1;
nodes = (
"163 0 LINE",
"163 430 LINE",
"155 488 LINE",
"157 488 LINE",
"466 0 LINE",
"574 0 LINE",
"574 650 LINE",
"488 650 LINE",
"488 254 LINE",
"495 209 LINE",
"493 209 LINE",
"220 650 LINE",
"77 650 LINE",
"77 0 LINE"
);
},
{
closed = 1;
nodes = (
"498 726 OFFCURVE",
"524 805 OFFCURVE",
"524 805 CURVE",
"488 840 LINE",
"488 840 OFFCURVE",
"474 808 OFFCURVE",
"438 808 CURVE SMOOTH",
"387 808 OFFCURVE",
"359 855 OFFCURVE",
"286 855 CURVE SMOOTH",
"200 855 OFFCURVE",
"163 765 OFFCURVE",
"163 765 CURVE",
"199 729 LINE",
"199 729 OFFCURVE",
"221 774 OFFCURVE",
"257 774 CURVE SMOOTH",
"313 774 OFFCURVE",
"347 726 OFFCURVE",
"412 726 CURVE SMOOTH"
);
}
);
width = 651;
}
);
note = Ntilde;
unicode = 00D1;
},
{
glyphname = O;
lastChange = "2016-09-30 15:54:38 +0000";
layers = (
{
anchors = (
{
name = bottom;
position = "{327, 0}";
},
{
name = center;
position = "{327, 325}";
},
{
name = ogonek;
position = "{589, 10}";
},
{
name = top;
position = "{327, 650}";
},
{
name = topleft;
position = "{20, 650}";
},
{
name = topright;
position = "{461, 650}";
}
);
layerId = "28637767-9EF2-44E2-B459-E4A39AD280E7";
paths = (
{
closed = 1;
nodes = (
"502 -10 OFFCURVE",
"606 117 OFFCURVE",
"606 324 CURVE SMOOTH",
"606 530 OFFCURVE",
"502 659 OFFCURVE",
"326 659 CURVE SMOOTH",
"151 659 OFFCURVE",
"48 530 OFFCURVE",
"48 324 CURVE SMOOTH",
"48 117 OFFCURVE",
"151 -10 OFFCURVE",
"326 -10 CURVE SMOOTH"
);
},
{
closed = 1;
nodes = (
"199 38 OFFCURVE",
"129 137 OFFCURVE",
"129 324 CURVE SMOOTH",
"129 510 OFFCURVE",
"200 611 OFFCURVE",
"326 611 CURVE SMOOTH",
"453 611 OFFCURVE",
"525 510 OFFCURVE",
"525 324 CURVE SMOOTH",
"525 137 OFFCURVE",
"454 38 OFFCURVE",
"326 38 CURVE SMOOTH"
);
}
);
width = 654;
},
{
anchors = (
{
name = bottom;
position = "{332, 0}";
},
{
name = center;
position = "{332, 325}";
},
{
name = ogonek;
position = "{597, 10}";
},
{
name = top;
position = "{332, 650}";
},
{
name = topleft;
position = "{20, 650}";
},
{
name = topright;
position = "{488, 650}";
}
);
layerId = "85DC84FC-A9CD-42A1-AFE4-850615EB4B70";
paths = (
{
closed = 1;
nodes = (
"522 -11 OFFCURVE",
"627 120 OFFCURVE",
"627 324 CURVE SMOOTH",
"627 528 OFFCURVE",
"522 660 OFFCURVE",
"330 660 CURVE SMOOTH",
"139 660 OFFCURVE",
"36 528 OFFCURVE",
"36 324 CURVE SMOOTH",
"36 120 OFFCURVE",
"139 -11 OFFCURVE",
"330 -11 CURVE SMOOTH"
);
},
{
closed = 1;
nodes = (
"227 60 OFFCURVE",
"188 140 OFFCURVE",
"188 324 CURVE SMOOTH",
"188 507 OFFCURVE",
"230 588 OFFCURVE",
"330 588 CURVE SMOOTH",
"431 588 OFFCURVE",
"474 507 OFFCURVE",
"474 324 CURVE SMOOTH",
"474 140 OFFCURVE",
"433 60 OFFCURVE",
"330 60 CURVE SMOOTH"
);
}
);
width = 663;
}
);
note = O;
unicode = 004F;
},
{
glyphname = Oacute;
lastChange = "2016-09-16 17:56:47 +0000";
layers = (
{
layerId = "28637767-9EF2-44E2-B459-E4A39AD280E7";
paths = (
{
closed = 1;
nodes = (
"502 -10 OFFCURVE",
"606 117 OFFCURVE",
"606 324 CURVE SMOOTH",
"606 530 OFFCURVE",
"502 659 OFFCURVE",
"326 659 CURVE SMOOTH",
"151 659 OFFCURVE",
"48 530 OFFCURVE",
"48 324 CURVE SMOOTH",
"48 117 OFFCURVE",
"151 -10 OFFCURVE",
"326 -10 CURVE SMOOTH"
);
},
{
closed = 1;
nodes = (
"199 38 OFFCURVE",
"129 137 OFFCURVE",
"129 324 CURVE SMOOTH",
"129 510 OFFCURVE",
"200 611 OFFCURVE",
"326 611 CURVE SMOOTH",
"453 611 OFFCURVE",
"525 510 OFFCURVE",
"525 324 CURVE SMOOTH",
"525 137 OFFCURVE",
"454 38 OFFCURVE",
"326 38 CURVE SMOOTH"
);
},
{
closed = 1;
nodes = (
"433 841 LINE",
"370 856 LINE",
"293 711 LINE",
"331 706 LINE"
);
}
);
width = 654;
},
{
layerId = "85DC84FC-A9CD-42A1-AFE4-850615EB4B70";
paths = (
{
closed = 1;
nodes = (
"522 -11 OFFCURVE",
"627 120 OFFCURVE",
"627 324 CURVE SMOOTH",
"627 528 OFFCURVE",
"522 660 OFFCURVE",
"330 660 CURVE SMOOTH",
"139 660 OFFCURVE",
"36 528 OFFCURVE",
"36 324 CURVE SMOOTH",
"36 120 OFFCURVE",
"139 -11 OFFCURVE",
"330 -11 CURVE SMOOTH"
);
},
{
closed = 1;
nodes = (
"227 60 OFFCURVE",
"188 140 OFFCURVE",
"188 324 CURVE SMOOTH",
"188 507 OFFCURVE",
"230 588 OFFCURVE",
"330 588 CURVE SMOOTH",
"431 588 OFFCURVE",
"474 507 OFFCURVE",
"474 324 CURVE SMOOTH",
"474 140 OFFCURVE",
"433 60 OFFCURVE",
"330 60 CURVE SMOOTH"
);
},
{
closed = 1;
nodes = (
"462 834 LINE",
"354 865 LINE",
"284 713 LINE",
"341 704 LINE"
);
}
);
width = 663;
}
);
note = Oacute;
unicode = 00D3;
},
{
glyphname = Ocircumflex;
lastChange = "2016-09-16 17:56:47 +0000";
layers = (
{
layerId = "28637767-9EF2-44E2-B459-E4A39AD280E7";
paths = (
{
closed = 1;
nodes = (
"502 -10 OFFCURVE",
"606 117 OFFCURVE",
"606 324 CURVE SMOOTH",
"606 530 OFFCURVE",
"502 659 OFFCURVE",
"326 659 CURVE SMOOTH",
"151 659 OFFCURVE",
"48 530 OFFCURVE",
"48 324 CURVE SMOOTH",
"48 117 OFFCURVE",
"151 -10 OFFCURVE",
"326 -10 CURVE SMOOTH"
);
},
{
closed = 1;
nodes = (
"199 38 OFFCURVE",
"129 137 OFFCURVE",
"129 324 CURVE SMOOTH",
"129 510 OFFCURVE",
"200 611 OFFCURVE",
"326 611 CURVE SMOOTH",
"453 611 OFFCURVE",
"525 510 OFFCURVE",
"525 324 CURVE SMOOTH",
"525 137 OFFCURVE",
"454 38 OFFCURVE",
"326 38 CURVE SMOOTH"
);
},
{
closed = 1;
nodes = (
"326 829 LINE",
"436 732 LINE",
"454 764 LINE",
"346 878 LINE",
"307 878 LINE",
"197 764 LINE",
"216 732 LINE"
);
}
);
width = 654;
},
{
layerId = "85DC84FC-A9CD-42A1-AFE4-850615EB4B70";
paths = (
{
closed = 1;
nodes = (
"522 -11 OFFCURVE",
"627 120 OFFCURVE",
"627 324 CURVE SMOOTH",
"627 528 OFFCURVE",
"522 660 OFFCURVE",
"330 660 CURVE SMOOTH",
"139 660 OFFCURVE",
"36 528 OFFCURVE",
"36 324 CURVE SMOOTH",
"36 120 OFFCURVE",
"139 -11 OFFCURVE",
"330 -11 CURVE SMOOTH"
);
},
{
closed = 1;
nodes = (
"227 60 OFFCURVE",
"188 140 OFFCURVE",
"188 324 CURVE SMOOTH",
"188 507 OFFCURVE",
"230 588 OFFCURVE",
"330 588 CURVE SMOOTH",
"431 588 OFFCURVE",
"474 507 OFFCURVE",
"474 324 CURVE SMOOTH",
"474 140 OFFCURVE",
"433 60 OFFCURVE",
"330 60 CURVE SMOOTH"
);
},
{
closed = 1;
nodes = (
"330 806 LINE",
"434 721 LINE",
"462 766 LINE",
"365 888 LINE",
"295 888 LINE",
"197 766 LINE",
"226 721 LINE"
);
}
);
width = 663;
}
);
note = Ocircumflex;
unicode = 00D4;
},
{
glyphname = Odieresis;
lastChange = "2016-09-16 17:56:47 +0000";
layers = (
{
layerId = "28637767-9EF2-44E2-B459-E4A39AD280E7";
paths = (
{
closed = 1;
nodes = (
"502 -10 OFFCURVE",
"606 117 OFFCURVE",
"606 324 CURVE SMOOTH",
"606 530 OFFCURVE",
"502 659 OFFCURVE",
"326 659 CURVE SMOOTH",
"151 659 OFFCURVE",
"48 530 OFFCURVE",
"48 324 CURVE SMOOTH",
"48 117 OFFCURVE",
"151 -10 OFFCURVE",
"326 -10 CURVE SMOOTH"
);
},
{
closed = 1;
nodes = (
"199 38 OFFCURVE",
"129 137 OFFCURVE",
"129 324 CURVE SMOOTH",
"129 510 OFFCURVE",
"200 611 OFFCURVE",
"326 611 CURVE SMOOTH",
"453 611 OFFCURVE",
"525 510 OFFCURVE",
"525 324 CURVE SMOOTH",
"525 137 OFFCURVE",
"454 38 OFFCURVE",
"326 38 CURVE SMOOTH"
);
},
{
closed = 1;
nodes = (
"258 740 OFFCURVE",
"266 744 OFFCURVE",
"274 750 CURVE",
"281 758 OFFCURVE",
"285 768 OFFCURVE",
"285 779 CURVE SMOOTH",
"285 790 OFFCURVE",
"281 801 OFFCURVE",
"274 809 CURVE",
"266 815 OFFCURVE",
"258 819 OFFCURVE",
"248 819 CURVE SMOOTH",
"238 819 OFFCURVE",
"229 815 OFFCURVE",
"221 809 CURVE",
"213 801 OFFCURVE",
"210 790 OFFCURVE",
"210 779 CURVE SMOOTH",
"210 768 OFFCURVE",
"213 758 OFFCURVE",
"221 750 CURVE",
"229 744 OFFCURVE",
"238 740 OFFCURVE",
"248 740 CURVE SMOOTH"
);
},
{
closed = 1;
nodes = (
"410 740 OFFCURVE",
"419 744 OFFCURVE",
"427 750 CURVE",
"435 758 OFFCURVE",
"439 768 OFFCURVE",
"439 779 CURVE SMOOTH",
"439 790 OFFCURVE",
"435 801 OFFCURVE",
"427 809 CURVE",
"419 815 OFFCURVE",
"410 819 OFFCURVE",
"401 819 CURVE SMOOTH",
"392 819 OFFCURVE",
"383 815 OFFCURVE",
"375 809 CURVE",
"367 801 OFFCURVE",
"364 790 OFFCURVE",
"364 779 CURVE SMOOTH",
"364 768 OFFCURVE",
"367 758 OFFCURVE",
"375 750 CURVE",
"383 744 OFFCURVE",
"392 740 OFFCURVE",
"401 740 CURVE SMOOTH"
);
}
);
width = 654;
},
{
layerId = "85DC84FC-A9CD-42A1-AFE4-850615EB4B70";
paths = (
{
closed = 1;
nodes = (
"522 -11 OFFCURVE",
"627 120 OFFCURVE",
"627 324 CURVE SMOOTH",
"627 528 OFFCURVE",
"522 660 OFFCURVE",
"330 660 CURVE SMOOTH",
"139 660 OFFCURVE",
"36 528 OFFCURVE",
"36 324 CURVE SMOOTH",
"36 120 OFFCURVE",
"139 -11 OFFCURVE",
"330 -11 CURVE SMOOTH"
);
},
{
closed = 1;
nodes = (
"227 60 OFFCURVE",
"188 140 OFFCURVE",
"188 324 CURVE SMOOTH",
"188 507 OFFCURVE",
"230 588 OFFCURVE",
"330 588 CURVE SMOOTH",
"431 588 OFFCURVE",
"474 507 OFFCURVE",
"474 324 CURVE SMOOTH",
"474 140 OFFCURVE",
"433 60 OFFCURVE",
"330 60 CURVE SMOOTH"
);
},
{
closed = 1;
nodes = (
"251 717 OFFCURVE",
"267 723 OFFCURVE",
"280 735 CURVE",
"293 749 OFFCURVE",
"300 768 OFFCURVE",
"300 787 CURVE SMOOTH",
"300 806 OFFCURVE",
"293 824 OFFCURVE",
"280 839 CURVE",
"267 850 OFFCURVE",
"251 856 OFFCURVE",
"234 856 CURVE SMOOTH",
"217 856 OFFCURVE",
"201 850 OFFCURVE",
"188 839 CURVE",
"174 824 OFFCURVE",
"168 806 OFFCURVE",
"168 787 CURVE SMOOTH",
"168 768 OFFCURVE",
"174 749 OFFCURVE",
"188 735 CURVE",
"201 723 OFFCURVE",
"217 717 OFFCURVE",
"234 717 CURVE SMOOTH"
);
},
{
closed = 1;
nodes = (
"437 717 OFFCURVE",
"453 723 OFFCURVE",
"466 735 CURVE",
"479 749 OFFCURVE",
"486 768 OFFCURVE",
"486 787 CURVE SMOOTH",
"486 806 OFFCURVE",
"479 824 OFFCURVE",
"466 839 CURVE",
"453 850 OFFCURVE",
"437 856 OFFCURVE",
"420 856 CURVE SMOOTH",
"403 856 OFFCURVE",
"386 850 OFFCURVE",
"374 839 CURVE",
"360 824 OFFCURVE",
"354 806 OFFCURVE",
"354 787 CURVE SMOOTH",
"354 768 OFFCURVE",
"360 749 OFFCURVE",
"374 735 CURVE SMOOTH",
"386 723 OFFCURVE",
"403 717 OFFCURVE",
"420 717 CURVE SMOOTH"
);
}
);
width = 663;
}
);
note = Odieresis;
unicode = 00D6;
},
{
glyphname = Ograve;
lastChange = "2016-09-16 17:56:47 +0000";
layers = (
{
layerId = "28637767-9EF2-44E2-B459-E4A39AD280E7";
paths = (
{
closed = 1;
nodes = (
"502 -10 OFFCURVE",
"606 117 OFFCURVE",
"606 324 CURVE SMOOTH",
"606 530 OFFCURVE",
"502 659 OFFCURVE",
"326 659 CURVE SMOOTH",
"151 659 OFFCURVE",
"48 530 OFFCURVE",
"48 324 CURVE SMOOTH",
"48 117 OFFCURVE",
"151 -10 OFFCURVE",
"326 -10 CURVE SMOOTH"
);
},
{
closed = 1;
nodes = (
"199 38 OFFCURVE",
"129 137 OFFCURVE",
"129 324 CURVE SMOOTH",
"129 510 OFFCURVE",
"200 611 OFFCURVE",
"326 611 CURVE SMOOTH",
"453 611 OFFCURVE",
"525 510 OFFCURVE",
"525 324 CURVE SMOOTH",
"525 137 OFFCURVE",
"454 38 OFFCURVE",
"326 38 CURVE SMOOTH"
);
},
{
closed = 1;
nodes = (
"358 716 LINE",
"275 859 LINE",
"213 843 LINE",
"318 708 LINE"
);
}
);
width = 654;
},
{
layerId = "85DC84FC-A9CD-42A1-AFE4-850615EB4B70";
paths = (
{
closed = 1;
nodes = (
"522 -11 OFFCURVE",
"627 120 OFFCURVE",
"627 324 CURVE SMOOTH",
"627 528 OFFCURVE",
"522 660 OFFCURVE",
"330 660 CURVE SMOOTH",
"139 660 OFFCURVE",
"36 528 OFFCURVE",
"36 324 CURVE SMOOTH",
"36 120 OFFCURVE",
"139 -11 OFFCURVE",
"330 -11 CURVE SMOOTH"
);
},
{
closed = 1;
nodes = (
"227 60 OFFCURVE",
"188 140 OFFCURVE",
"188 324 CURVE SMOOTH",
"188 507 OFFCURVE",
"230 588 OFFCURVE",
"330 588 CURVE SMOOTH",
"431 588 OFFCURVE",
"474 507 OFFCURVE",
"474 324 CURVE SMOOTH",
"474 140 OFFCURVE",
"433 60 OFFCURVE",
"330 60 CURVE SMOOTH"
);
},
{
closed = 1;
nodes = (
"380 726 LINE",
"295 873 LINE",
"189 838 LINE",
"318 709 LINE"
);
}
);
width = 663;
}
);
note = Ograve;
unicode = 00D2;
},
{
glyphname = Ohungarumlaut;
lastChange = "2016-09-16 17:56:47 +0000";
layers = (
{
layerId = "28637767-9EF2-44E2-B459-E4A39AD280E7";
paths = (
{
closed = 1;
nodes = (
"502 -10 OFFCURVE",
"606 117 OFFCURVE",
"606 324 CURVE SMOOTH",
"606 530 OFFCURVE",
"502 659 OFFCURVE",
"326 659 CURVE SMOOTH",
"151 659 OFFCURVE",
"48 530 OFFCURVE",
"48 324 CURVE SMOOTH",
"48 117 OFFCURVE",
"151 -10 OFFCURVE",
"326 -10 CURVE SMOOTH"
);
},
{
closed = 1;
nodes = (
"199 38 OFFCURVE",
"129 137 OFFCURVE",
"129 324 CURVE SMOOTH",
"129 510 OFFCURVE",
"200 611 OFFCURVE",
"326 611 CURVE SMOOTH",
"453 611 OFFCURVE",
"525 510 OFFCURVE",
"525 324 CURVE SMOOTH",
"525 137 OFFCURVE",
"454 38 OFFCURVE",
"326 38 CURVE SMOOTH"
);
},
{
closed = 1;
nodes = (
"329 840 LINE",
"277 853 LINE",
"232 725 LINE",
"266 711 LINE"
);
},
{
closed = 1;
nodes = (
"458 840 LINE",
"407 853 LINE",
"361 725 LINE",
"395 711 LINE"
);
}
);
width = 654;
},
{
layerId = "85DC84FC-A9CD-42A1-AFE4-850615EB4B70";
paths = (
{
closed = 1;
nodes = (
"522 -11 OFFCURVE",
"627 120 OFFCURVE",
"627 324 CURVE SMOOTH",
"627 528 OFFCURVE",
"522 660 OFFCURVE",
"330 660 CURVE SMOOTH",
"139 660 OFFCURVE",
"36 528 OFFCURVE",
"36 324 CURVE SMOOTH",
"36 120 OFFCURVE",
"139 -11 OFFCURVE",
"330 -11 CURVE SMOOTH"
);
},
{
closed = 1;
nodes = (
"227 60 OFFCURVE",
"188 140 OFFCURVE",
"188 324 CURVE SMOOTH",
"188 507 OFFCURVE",
"230 588 OFFCURVE",
"330 588 CURVE SMOOTH",
"431 588 OFFCURVE",
"474 507 OFFCURVE",
"474 324 CURVE SMOOTH",
"474 140 OFFCURVE",
"433 60 OFFCURVE",
"330 60 CURVE SMOOTH"
);
},
{
closed = 1;
nodes = (
"359 847 LINE",
"267 873 LINE",
"214 720 LINE",
"265 697 LINE"
);
},
{
closed = 1;
nodes = (
"515 847 LINE",
"423 873 LINE",
"369 720 LINE",
"420 697 LINE"
);
}
);
width = 663;
}
);
note = Ohungarumlaut;
unicode = 0150;
},
{
glyphname = Omacron;
lastChange = "2016-09-16 17:56:47 +0000";
layers = (
{
layerId = "28637767-9EF2-44E2-B459-E4A39AD280E7";
paths = (
{
closed = 1;
nodes = (
"502 -10 OFFCURVE",
"606 117 OFFCURVE",
"606 324 CURVE SMOOTH",
"606 530 OFFCURVE",
"502 659 OFFCURVE",
"326 659 CURVE SMOOTH",
"151 659 OFFCURVE",
"48 530 OFFCURVE",
"48 324 CURVE SMOOTH",
"48 117 OFFCURVE",
"151 -10 OFFCURVE",
"326 -10 CURVE SMOOTH"
);
},
{
closed = 1;
nodes = (
"199 38 OFFCURVE",
"129 137 OFFCURVE",
"129 324 CURVE SMOOTH",
"129 510 OFFCURVE",
"200 611 OFFCURVE",
"326 611 CURVE SMOOTH",
"453 611 OFFCURVE",
"525 510 OFFCURVE",
"525 324 CURVE SMOOTH",
"525 137 OFFCURVE",
"454 38 OFFCURVE",
"326 38 CURVE SMOOTH"
);
},
{
closed = 1;
nodes = (
"419 771 LINE",
"419 807 LINE",
"233 807 LINE",
"233 771 LINE"
);
}
);
width = 654;
},
{
layerId = "85DC84FC-A9CD-42A1-AFE4-850615EB4B70";
paths = (
{
closed = 1;
nodes = (
"522 -11 OFFCURVE",
"627 120 OFFCURVE",
"627 324 CURVE SMOOTH",
"627 528 OFFCURVE",
"522 660 OFFCURVE",
"330 660 CURVE SMOOTH",
"139 660 OFFCURVE",
"36 528 OFFCURVE",
"36 324 CURVE SMOOTH",
"36 120 OFFCURVE",
"139 -11 OFFCURVE",
"330 -11 CURVE SMOOTH"
);
},
{
closed = 1;
nodes = (
"227 60 OFFCURVE",
"188 140 OFFCURVE",
"188 324 CURVE SMOOTH",
"188 507 OFFCURVE",
"230 588 OFFCURVE",
"330 588 CURVE SMOOTH",
"431 588 OFFCURVE",
"474 507 OFFCURVE",
"474 324 CURVE SMOOTH",
"474 140 OFFCURVE",
"433 60 OFFCURVE",
"330 60 CURVE SMOOTH"
);
},
{
closed = 1;
nodes = (
"436 759 LINE",
"436 817 LINE",
"222 817 LINE",
"222 759 LINE"
);
}
);
width = 663;
}
);
note = Omacron;
unicode = 014C;
},
{
glyphname = Oslash;
lastChange = "2016-09-16 17:56:47 +0000";
layers = (
{
layerId = "28637767-9EF2-44E2-B459-E4A39AD280E7";
paths = (
{
closed = 1;
nodes = (
"226 6 LINE",
"256 -4 OFFCURVE",
"289 -10 OFFCURVE",
"326 -10 CURVE SMOOTH",
"502 -10 OFFCURVE",
"606 117 OFFCURVE",
"606 324 CURVE SMOOTH",
"606 463 OFFCURVE",
"558 567 OFFCURVE",
"473 620 CURVE",
"514 722 LINE",
"486 728 LINE",
"448 633 LINE",
"412 650 OFFCURVE",
"372 659 OFFCURVE",
"326 659 CURVE SMOOTH",
"151 659 OFFCURVE",
"48 530 OFFCURVE",
"48 324 CURVE SMOOTH",
"48 172 OFFCURVE",
"103 64 OFFCURVE",
"201 16 CURVE",
"157 -95 LINE",
"183 -101 LINE"
);
},
{
closed = 1;
nodes = (
"161 110 OFFCURVE",
"129 197 OFFCURVE",
"129 324 CURVE SMOOTH",
"129 510 OFFCURVE",
"200 611 OFFCURVE",
"326 611 CURVE SMOOTH",
"365 611 OFFCURVE",
"399 601 OFFCURVE",
"427 582 CURVE",
"222 68 LINE"
);
},
{
closed = 1;
nodes = (
"296 38 OFFCURVE",
"269 43 OFFCURVE",
"245 54 CURVE",
"450 564 LINE",
"499 517 OFFCURVE",
"525 436 OFFCURVE",
"525 324 CURVE SMOOTH",
"525 137 OFFCURVE",
"454 38 OFFCURVE",
"326 38 CURVE SMOOTH"
);
}
);
width = 654;
},
{
layerId = "85DC84FC-A9CD-42A1-AFE4-850615EB4B70";
paths = (
{
closed = 1;
nodes = (
"229 3 LINE",
"259 -6 OFFCURVE",
"293 -11 OFFCURVE",
"330 -11 CURVE SMOOTH",
"522 -11 OFFCURVE",
"627 120 OFFCURVE",
"627 324 CURVE SMOOTH",
"627 461 OFFCURVE",
"579 565 OFFCURVE",
"490 619 CURVE",
"531 715 LINE",
"489 726 LINE",
"452 638 LINE",
"416 652 OFFCURVE",
"375 660 OFFCURVE",
"330 660 CURVE SMOOTH",
"139 660 OFFCURVE",
"36 528 OFFCURVE",
"36 324 CURVE SMOOTH",
"36 177 OFFCURVE",
"89 69 OFFCURVE",
"189 19 CURVE",
"141 -96 LINE",
"182 -107 LINE"
);
},
{
closed = 1;
nodes = (
"200 152 OFFCURVE",
"188 222 OFFCURVE",
"188 324 CURVE SMOOTH",
"188 507 OFFCURVE",
"230 588 OFFCURVE",
"330 588 CURVE SMOOTH",
"366 588 OFFCURVE",
"395 577 OFFCURVE",
"417 556 CURVE",
"228 110 LINE"
);
},
{
closed = 1;
nodes = (
"302 60 OFFCURVE",
"279 65 OFFCURVE",
"260 77 CURVE",
"445 513 LINE",
"465 470 OFFCURVE",
"474 408 OFFCURVE",
"474 324 CURVE SMOOTH",
"474 140 OFFCURVE",
"433 60 OFFCURVE",
"330 60 CURVE SMOOTH"
);
}
);
width = 663;
}
);
note = Oslash;
unicode = 00D8;
},
{
glyphname = Otilde;
lastChange = "2016-09-16 17:56:47 +0000";
layers = (
{
layerId = "28637767-9EF2-44E2-B459-E4A39AD280E7";
paths = (
{
closed = 1;
nodes = (
"502 -10 OFFCURVE",
"606 117 OFFCURVE",
"606 324 CURVE SMOOTH",
"606 530 OFFCURVE",
"502 659 OFFCURVE",
"326 659 CURVE SMOOTH",
"151 659 OFFCURVE",
"48 530 OFFCURVE",
"48 324 CURVE SMOOTH",
"48 117 OFFCURVE",
"151 -10 OFFCURVE",
"326 -10 CURVE SMOOTH"
);
},
{
closed = 1;
nodes = (
"199 38 OFFCURVE",
"129 137 OFFCURVE",
"129 324 CURVE SMOOTH",
"129 510 OFFCURVE",
"200 611 OFFCURVE",
"326 611 CURVE SMOOTH",
"453 611 OFFCURVE",
"525 510 OFFCURVE",
"525 324 CURVE SMOOTH",
"525 137 OFFCURVE",
"454 38 OFFCURVE",
"326 38 CURVE SMOOTH"
);
},
{
closed = 1;
nodes = (
"467 730 OFFCURVE",
"490 781 OFFCURVE",
"490 781 CURVE",
"467 806 LINE",
"467 806 OFFCURVE",
"452 779 OFFCURVE",
"416 779 CURVE SMOOTH",
"365 779 OFFCURVE",
"327 825 OFFCURVE",
"264 825 CURVE SMOOTH",
"199 825 OFFCURVE",
"168 762 OFFCURVE",
"168 762 CURVE",
"191 737 LINE",
"191 737 OFFCURVE",
"212 776 OFFCURVE",
"251 776 CURVE SMOOTH",
"305 776 OFFCURVE",
"346 730 OFFCURVE",
"405 730 CURVE SMOOTH"
);
}
);
width = 654;
},
{
layerId = "85DC84FC-A9CD-42A1-AFE4-850615EB4B70";
paths = (
{
closed = 1;
nodes = (
"522 -11 OFFCURVE",
"627 120 OFFCURVE",
"627 324 CURVE SMOOTH",
"627 528 OFFCURVE",
"522 660 OFFCURVE",
"330 660 CURVE SMOOTH",
"139 660 OFFCURVE",
"36 528 OFFCURVE",
"36 324 CURVE SMOOTH",
"36 120 OFFCURVE",
"139 -11 OFFCURVE",
"330 -11 CURVE SMOOTH"
);
},
{
closed = 1;
nodes = (
"227 60 OFFCURVE",
"188 140 OFFCURVE",
"188 324 CURVE SMOOTH",
"188 507 OFFCURVE",
"230 588 OFFCURVE",
"330 588 CURVE SMOOTH",
"431 588 OFFCURVE",
"474 507 OFFCURVE",
"474 324 CURVE SMOOTH",
"474 140 OFFCURVE",
"433 60 OFFCURVE",
"330 60 CURVE SMOOTH"
);
},
{
closed = 1;
nodes = (
"487 726 OFFCURVE",
"513 805 OFFCURVE",
"513 805 CURVE",
"477 840 LINE",
"477 840 OFFCURVE",
"463 808 OFFCURVE",
"427 808 CURVE SMOOTH",
"376 808 OFFCURVE",
"348 855 OFFCURVE",
"275 855 CURVE SMOOTH",
"189 855 OFFCURVE",
"152 765 OFFCURVE",
"152 765 CURVE",
"188 729 LINE",
"188 729 OFFCURVE",
"210 774 OFFCURVE",
"246 774 CURVE SMOOTH",
"302 774 OFFCURVE",
"336 726 OFFCURVE",
"401 726 CURVE SMOOTH"
);
}
);
width = 663;
}
);
note = Otilde;
unicode = 00D5;
},
{
glyphname = OE;
lastChange = "2016-09-16 17:56:47 +0000";
layers = (
{
layerId = "28637767-9EF2-44E2-B459-E4A39AD280E7";
paths = (
{
closed = 1;
nodes = (
"411 -10 OFFCURVE",
"479 20 OFFCURVE",
"527 74 CURVE",
"527 0 LINE",
"900 0 LINE",
"900 48 LINE",
"603 48 LINE",
"603 264 LINE",
"606 306 LINE",
"854 306 LINE",
"854 352 LINE",
"605 352 LINE",
"605 362 OFFCURVE",
"604 373 OFFCURVE",
"603 383 CURVE",
"603 602 LINE",
"878 602 LINE",
"878 650 LINE",
"527 650 LINE",
"527 574 LINE",
"479 629 OFFCURVE",
"411 659 OFFCURVE",
"326 659 CURVE SMOOTH",
"151 659 OFFCURVE",
"48 530 OFFCURVE",
"48 324 CURVE SMOOTH",
"48 117 OFFCURVE",
"151 -10 OFFCURVE",
"326 -10 CURVE SMOOTH"
);
},
{
closed = 1;
nodes = (
"199 38 OFFCURVE",
"129 137 OFFCURVE",
"129 324 CURVE SMOOTH",
"129 510 OFFCURVE",
"200 611 OFFCURVE",
"326 611 CURVE SMOOTH",
"453 611 OFFCURVE",
"525 510 OFFCURVE",
"525 324 CURVE SMOOTH",
"525 137 OFFCURVE",
"454 38 OFFCURVE",
"326 38 CURVE SMOOTH"
);
}
);
width = 940;
},
{
layerId = "85DC84FC-A9CD-42A1-AFE4-850615EB4B70";
paths = (
{
closed = 1;
nodes = (
"388 -11 OFFCURVE",
"439 1 OFFCURVE",
"481 24 CURVE",
"481 0 LINE",
"886 0 LINE",
"886 72 LINE",
"620 72 LINE",
"620 237 LINE",
"623 255 OFFCURVE",
"625 274 OFFCURVE",
"626 294 CURVE",
"842 294 LINE",
"842 364 LINE",
"625 364 LINE",
"624 380 OFFCURVE",
"622 395 OFFCURVE",
"620 410 CURVE",
"620 578 LINE",
"872 578 LINE",
"872 650 LINE",
"481 650 LINE",
"481 625 LINE",
"439 648 OFFCURVE",
"388 660 OFFCURVE",
"330 660 CURVE SMOOTH",
"139 660 OFFCURVE",
"36 528 OFFCURVE",
"36 324 CURVE SMOOTH",
"36 120 OFFCURVE",
"139 -11 OFFCURVE",
"330 -11 CURVE SMOOTH"
);
},
{
closed = 1;
nodes = (
"227 60 OFFCURVE",
"188 140 OFFCURVE",
"188 324 CURVE SMOOTH",
"188 507 OFFCURVE",
"230 588 OFFCURVE",
"330 588 CURVE SMOOTH",
"431 588 OFFCURVE",
"474 507 OFFCURVE",
"474 324 CURVE SMOOTH",
"474 140 OFFCURVE",
"433 60 OFFCURVE",
"330 60 CURVE SMOOTH"
);
}
);
width = 929;
}
);
note = OE;
unicode = 0152;
},
{
glyphname = P;
lastChange = "2016-09-16 17:56:47 +0000";
layers = (
{
layerId = "28637767-9EF2-44E2-B459-E4A39AD280E7";
paths = (
{
closed = 1;
nodes = (
"170 0 LINE",
"170 228 LINE",
"252 228 LINE SMOOTH",
"352 228 OFFCURVE",
"461 282 OFFCURVE",
"461 444 CURVE SMOOTH",
"461 582 OFFCURVE",
"381 650 OFFCURVE",
"250 650 CURVE SMOOTH",
"94 650 LINE",
"94 0 LINE"
);
},
{
closed = 1;
nodes = (
"170 606 LINE",
"242 606 LINE SMOOTH",
"328 606 OFFCURVE",
"381 557 OFFCURVE",
"381 441 CURVE SMOOTH",
"381 308 OFFCURVE",
"317 270 OFFCURVE",
"241 270 CURVE SMOOTH",
"170 270 LINE"
);
}
);
width = 496;
},
{
layerId = "85DC84FC-A9CD-42A1-AFE4-850615EB4B70";
paths = (
{
closed = 1;
nodes = (
"215 0 LINE",
"215 203 LINE",
"279 203 LINE SMOOTH",
"384 203 OFFCURVE",
"510 264 OFFCURVE",
"510 430 CURVE SMOOTH",
"510 579 OFFCURVE",
"420 650 OFFCURVE",
"276 650 CURVE SMOOTH",
"77 650 LINE",
"77 0 LINE"
);
},
{
closed = 1;
nodes = (
"215 585 LINE",
"263 585 LINE SMOOTH",
"326 585 OFFCURVE",
"361 547 OFFCURVE",
"361 424 CURVE SMOOTH",
"361 300 OFFCURVE",
"325 267 OFFCURVE",
"263 267 CURVE SMOOTH",
"215 267 LINE"
);
}
);
width = 533;
}
);
note = P;
unicode = 0050;
},
{
glyphname = Thorn;
lastChange = "2016-09-16 17:56:47 +0000";
layers = (
{
layerId = "28637767-9EF2-44E2-B459-E4A39AD280E7";
paths = (
{
closed = 1;
nodes = (
"181 0 LINE",
"181 109 LINE",
"263 109 LINE SMOOTH",
"363 109 OFFCURVE",
"473 165 OFFCURVE",
"473 331 CURVE SMOOTH",
"473 474 OFFCURVE",
"392 541 OFFCURVE",
"262 541 CURVE SMOOTH",
"181 541 LINE",
"181 650 LINE",
"106 650 LINE",
"106 0 LINE"
);
},
{
closed = 1;
nodes = (
"181 495 LINE",
"257 495 LINE SMOOTH",
"344 495 OFFCURVE",
"396 448 OFFCURVE",
"396 328 CURVE SMOOTH",
"396 191 OFFCURVE",
"333 154 OFFCURVE",
"257 154 CURVE SMOOTH",
"181 154 LINE"
);
}
);
width = 514;
},
{
layerId = "85DC84FC-A9CD-42A1-AFE4-850615EB4B70";
paths = (
{
closed = 1;
nodes = (
"236 0 LINE",
"236 93 LINE",
"300 93 LINE SMOOTH",
"404 93 OFFCURVE",
"531 158 OFFCURVE",
"531 333 CURVE SMOOTH",
"531 489 OFFCURVE",
"440 560 OFFCURVE",
"297 560 CURVE SMOOTH",
"236 560 LINE",
"236 650 LINE",
"98 650 LINE",
"98 0 LINE"
);
},
{
closed = 1;
nodes = (
"236 491 LINE",
"290 491 LINE SMOOTH",
"352 491 OFFCURVE",
"389 457 OFFCURVE",
"389 327 CURVE SMOOTH",
"389 190 OFFCURVE",
"352 160 OFFCURVE",
"290 160 CURVE SMOOTH",
"236 160 LINE"
);
}
);
width = 562;
}
);
note = Thorn;
unicode = 00DE;
},
{
glyphname = Q;
lastChange = "2016-09-16 17:56:47 +0000";
layers = (
{
layerId = "28637767-9EF2-44E2-B459-E4A39AD280E7";
paths = (
{
closed = 1;
nodes = (
"528 -159 OFFCURVE",
"546 -156 OFFCURVE",
"563 -149 CURVE",
"558 -111 LINE",
"547 -115 OFFCURVE",
"536 -117 OFFCURVE",
"525 -117 CURVE SMOOTH",
"469 -117 OFFCURVE",
"417 -65 OFFCURVE",
"378 -6 CURVE",
"522 17 OFFCURVE",
"606 142 OFFCURVE",
"606 327 CURVE SMOOTH",
"606 534 OFFCURVE",
"502 659 OFFCURVE",
"326 659 CURVE SMOOTH",
"151 659 OFFCURVE",
"48 530 OFFCURVE",
"48 324 CURVE SMOOTH",
"48 127 OFFCURVE",
"141 2 OFFCURVE",
"301 -9 CURVE",
"347 -94 OFFCURVE",
"429 -159 OFFCURVE",
"510 -159 CURVE SMOOTH"
);
},
{
closed = 1;
nodes = (
"199 38 OFFCURVE",
"129 139 OFFCURVE",
"129 324 CURVE SMOOTH",
"129 508 OFFCURVE",
"200 611 OFFCURVE",
"326 611 CURVE SMOOTH",
"453 611 OFFCURVE",
"525 508 OFFCURVE",
"525 324 CURVE SMOOTH",
"525 139 OFFCURVE",
"454 38 OFFCURVE",
"326 38 CURVE SMOOTH"
);
}
);
width = 654;
},
{
layerId = "85DC84FC-A9CD-42A1-AFE4-850615EB4B70";
paths = (
{
closed = 1;
nodes = (
"542 -197 OFFCURVE",
"562 -194 OFFCURVE",
"581 -187 CURVE",
"575 -129 LINE",
"565 -133 OFFCURVE",
"556 -135 OFFCURVE",
"547 -135 CURVE SMOOTH",
"492 -135 OFFCURVE",
"445 -68 OFFCURVE",
"412 -1 CURVE",
"551 33 OFFCURVE",
"627 158 OFFCURVE",
"627 331 CURVE SMOOTH",
"627 535 OFFCURVE",
"522 660 OFFCURVE",
"330 660 CURVE SMOOTH",
"139 660 OFFCURVE",
"36 528 OFFCURVE",
"36 324 CURVE SMOOTH",
"36 137 OFFCURVE",
"122 12 OFFCURVE",
"282 -8 CURVE",
"324 -109 OFFCURVE",
"421 -197 OFFCURVE",
"522 -197 CURVE SMOOTH"
);
},
{
closed = 1;
nodes = (
"227 60 OFFCURVE",
"188 145 OFFCURVE",
"188 324 CURVE SMOOTH",
"188 503 OFFCURVE",
"230 588 OFFCURVE",
"330 588 CURVE SMOOTH",
"431 588 OFFCURVE",
"474 503 OFFCURVE",
"474 324 CURVE SMOOTH",
"474 145 OFFCURVE",
"433 60 OFFCURVE",
"330 60 CURVE SMOOTH"
);
}
);
width = 663;
}
);
note = Q;
unicode = 0051;
},
{
glyphname = R;
lastChange = "2016-09-16 17:56:47 +0000";
layers = (
{
layerId = "28637767-9EF2-44E2-B459-E4A39AD280E7";
paths = (
{
closed = 1;
nodes = (
"170 0 LINE",
"170 241 LINE",
"269 241 LINE",
"418 0 LINE",
"505 0 LINE",
"342 255 LINE",
"408 281 OFFCURVE",
"462 342 OFFCURVE",
"462 451 CURVE SMOOTH",
"462 580 OFFCURVE",
"382 650 OFFCURVE",
"251 650 CURVE SMOOTH",
"94 650 LINE",
"94 0 LINE"
);
},
{
closed = 1;
nodes = (
"170 606 LINE",
"242 606 LINE SMOOTH",
"334 606 OFFCURVE",
"382 555 OFFCURVE",
"382 448 CURVE SMOOTH",
"382 325 OFFCURVE",
"333 286 OFFCURVE",
"251 286 CURVE SMOOTH",
"170 286 LINE"
);
}
);
width = 539;
},
{
layerId = "85DC84FC-A9CD-42A1-AFE4-850615EB4B70";
paths = (
{
closed = 1;
nodes = (
"215 0 LINE",
"215 236 LINE",
"268 236 LINE",
"390 0 LINE",
"549 0 LINE",
"399 264 LINE",
"460 296 OFFCURVE",
"511 357 OFFCURVE",
"511 446 CURVE SMOOTH",
"511 576 OFFCURVE",
"422 650 OFFCURVE",
"277 650 CURVE SMOOTH",
"77 650 LINE",
"77 0 LINE"
);
},
{
closed = 1;
nodes = (
"215 585 LINE",
"263 585 LINE SMOOTH",
"335 585 OFFCURVE",
"362 543 OFFCURVE",
"362 440 CURVE SMOOTH",
"362 335 OFFCURVE",
"338 302 OFFCURVE",
"266 302 CURVE SMOOTH",
"215 302 LINE"
);
}
);
width = 578;
}
);
note = R;
unicode = 0052;
},
{
glyphname = Racute;
lastChange = "2016-09-16 17:56:47 +0000";
layers = (
{
layerId = "28637767-9EF2-44E2-B459-E4A39AD280E7";
paths = (
{
closed = 1;
nodes = (
"170 0 LINE",
"170 241 LINE",
"269 241 LINE",
"418 0 LINE",
"505 0 LINE",
"342 255 LINE",
"408 281 OFFCURVE",
"462 342 OFFCURVE",
"462 451 CURVE SMOOTH",
"462 580 OFFCURVE",
"382 650 OFFCURVE",
"251 650 CURVE SMOOTH",
"94 650 LINE",
"94 0 LINE"
);
},
{
closed = 1;
nodes = (
"170 606 LINE",
"242 606 LINE SMOOTH",
"334 606 OFFCURVE",
"382 555 OFFCURVE",
"382 448 CURVE SMOOTH",
"382 325 OFFCURVE",
"333 286 OFFCURVE",
"251 286 CURVE SMOOTH",
"170 286 LINE"
);
},
{
closed = 1;
nodes = (
"362 841 LINE",
"299 856 LINE",
"222 711 LINE",
"260 706 LINE"
);
}
);
width = 539;
},
{
layerId = "85DC84FC-A9CD-42A1-AFE4-850615EB4B70";
paths = (
{
closed = 1;
nodes = (
"215 0 LINE",
"215 236 LINE",
"268 236 LINE",
"390 0 LINE",
"549 0 LINE",
"399 264 LINE",
"460 296 OFFCURVE",
"511 357 OFFCURVE",
"511 446 CURVE SMOOTH",
"511 576 OFFCURVE",
"422 650 OFFCURVE",
"277 650 CURVE SMOOTH",
"77 650 LINE",
"77 0 LINE"
);
},
{
closed = 1;
nodes = (
"215 585 LINE",
"263 585 LINE SMOOTH",
"335 585 OFFCURVE",
"362 543 OFFCURVE",
"362 440 CURVE SMOOTH",
"362 335 OFFCURVE",
"338 302 OFFCURVE",
"266 302 CURVE SMOOTH",
"215 302 LINE"
);
},
{
closed = 1;
nodes = (
"407 834 LINE",
"299 865 LINE",
"229 713 LINE",
"286 704 LINE"
);
}
);
width = 578;
}
);
note = Racute;
unicode = 0154;
},
{
glyphname = Rcaron;
lastChange = "2016-09-16 17:56:47 +0000";
layers = (
{
layerId = "28637767-9EF2-44E2-B459-E4A39AD280E7";
paths = (
{
closed = 1;
nodes = (
"170 0 LINE",
"170 241 LINE",
"269 241 LINE",
"418 0 LINE",
"505 0 LINE",
"342 255 LINE",
"408 281 OFFCURVE",
"462 342 OFFCURVE",
"462 451 CURVE SMOOTH",
"462 580 OFFCURVE",
"382 650 OFFCURVE",
"251 650 CURVE SMOOTH",
"94 650 LINE",
"94 0 LINE"
);
},
{
closed = 1;
nodes = (
"170 606 LINE",
"242 606 LINE SMOOTH",
"334 606 OFFCURVE",
"382 555 OFFCURVE",
"382 448 CURVE SMOOTH",
"382 325 OFFCURVE",
"333 286 OFFCURVE",
"251 286 CURVE SMOOTH",
"170 286 LINE"
);
},
{
closed = 1;
nodes = (
"272 708 LINE",
"391 829 LINE",
"363 855 LINE",
"252 754 LINE",
"143 855 LINE",
"114 831 LINE",
"233 708 LINE"
);
}
);
width = 539;
},
{
layerId = "85DC84FC-A9CD-42A1-AFE4-850615EB4B70";
paths = (
{
closed = 1;
nodes = (
"215 0 LINE",
"215 236 LINE",
"268 236 LINE",
"390 0 LINE",
"549 0 LINE",
"399 264 LINE",
"460 296 OFFCURVE",
"511 357 OFFCURVE",
"511 446 CURVE SMOOTH",
"511 576 OFFCURVE",
"422 650 OFFCURVE",
"277 650 CURVE SMOOTH",
"77 650 LINE",
"77 0 LINE"
);
},
{
closed = 1;
nodes = (
"215 585 LINE",
"263 585 LINE SMOOTH",
"335 585 OFFCURVE",
"362 543 OFFCURVE",
"362 440 CURVE SMOOTH",
"362 335 OFFCURVE",
"338 302 OFFCURVE",
"266 302 CURVE SMOOTH",
"215 302 LINE"
);
},
{
closed = 1;
nodes = (
"305 707 LINE",
"420 841 LINE",
"378 880 LINE",
"270 787 LINE",
"162 880 LINE",
"120 845 LINE",
"235 707 LINE"
);
}
);
width = 578;
}
);
note = Rcaron;
unicode = 0158;
},
{
glyphname = Rcommaaccent;
lastChange = "2016-09-16 17:56:47 +0000";
layers = (
{
layerId = "28637767-9EF2-44E2-B459-E4A39AD280E7";
paths = (
{
closed = 1;
nodes = (
"170 0 LINE",
"170 241 LINE",
"269 241 LINE",
"418 0 LINE",
"505 0 LINE",
"342 255 LINE",
"408 281 OFFCURVE",
"462 342 OFFCURVE",
"462 451 CURVE SMOOTH",
"462 580 OFFCURVE",
"382 650 OFFCURVE",
"251 650 CURVE SMOOTH",
"94 650 LINE",
"94 0 LINE"
);
},
{
closed = 1;
nodes = (
"284 -247 OFFCURVE",
"317 -169 OFFCURVE",
"317 -111 CURVE SMOOTH",
"317 -87 OFFCURVE",
"311 -66 OFFCURVE",
"298 -54 CURVE",
"291 -48 OFFCURVE",
"282 -45 OFFCURVE",
"273 -45 CURVE SMOOTH",
"264 -45 OFFCURVE",
"255 -48 OFFCURVE",
"248 -54 CURVE",
"241 -61 OFFCURVE",
"237 -71 OFFCURVE",
"237 -81 CURVE SMOOTH",
"237 -91 OFFCURVE",
"241 -101 OFFCURVE",
"248 -108 CURVE",
"255 -114 OFFCURVE",
"265 -117 OFFCURVE",
"274 -117 CURVE",
"275 -123 OFFCURVE",
"275 -129 OFFCURVE",
"275 -135 CURVE SMOOTH",
"275 -178 OFFCURVE",
"255 -232 OFFCURVE",
"215 -269 CURVE",
"233 -288 LINE"
);
},
{
closed = 1;
nodes = (
"170 606 LINE",
"242 606 LINE SMOOTH",
"334 606 OFFCURVE",
"382 555 OFFCURVE",
"382 448 CURVE SMOOTH",
"382 325 OFFCURVE",
"333 286 OFFCURVE",
"251 286 CURVE SMOOTH",
"170 286 LINE"
);
}
);
width = 539;
},
{
layerId = "85DC84FC-A9CD-42A1-AFE4-850615EB4B70";
paths = (
{
closed = 1;
nodes = (
"215 0 LINE",
"215 236 LINE",
"268 236 LINE",
"390 0 LINE",
"549 0 LINE",
"399 264 LINE",
"460 296 OFFCURVE",
"511 357 OFFCURVE",
"511 446 CURVE SMOOTH",
"511 576 OFFCURVE",
"422 650 OFFCURVE",
"277 650 CURVE SMOOTH",
"77 650 LINE",
"77 0 LINE"
);
},
{
closed = 1;
nodes = (
"320 -293 OFFCURVE",
"361 -213 OFFCURVE",
"361 -145 CURVE SMOOTH",
"361 -115 OFFCURVE",
"353 -88 OFFCURVE",
"335 -67 CURVE SMOOTH",
"331 -62 LINE",
"319 -51 OFFCURVE",
"303 -46 OFFCURVE",
"288 -46 CURVE SMOOTH",
"272 -46 OFFCURVE",
"257 -51 OFFCURVE",
"246 -62 CURVE SMOOTH",
"233 -75 OFFCURVE",
"227 -91 OFFCURVE",
"227 -108 CURVE SMOOTH",
"227 -125 OFFCURVE",
"233 -142 OFFCURVE",
"246 -154 CURVE SMOOTH",
"257 -164 OFFCURVE",
"272 -170 OFFCURVE",
"288 -170 CURVE SMOOTH",
"295 -170 LINE",
"295 -174 OFFCURVE",
"296 -178 OFFCURVE",
"296 -182 CURVE SMOOTH",
"296 -224 OFFCURVE",
"273 -269 OFFCURVE",
"231 -308 CURVE",
"260 -339 LINE"
);
},
{
closed = 1;
nodes = (
"215 585 LINE",
"263 585 LINE SMOOTH",
"335 585 OFFCURVE",
"362 543 OFFCURVE",
"362 440 CURVE SMOOTH",
"362 335 OFFCURVE",
"338 302 OFFCURVE",
"266 302 CURVE SMOOTH",
"215 302 LINE"
);
}
);
width = 578;
}
);
note = Rcommaaccent;
unicode = 0156;
},
{
glyphname = S;
lastChange = "2016-09-16 17:56:47 +0000";
layers = (
{
layerId = "28637767-9EF2-44E2-B459-E4A39AD280E7";
paths = (
{
closed = 1;
nodes = (
"362 -10 OFFCURVE",
"443 68 OFFCURVE",
"443 178 CURVE SMOOTH",
"443 399 OFFCURVE",
"149 329 OFFCURVE",
"149 498 CURVE SMOOTH",
"149 569 OFFCURVE",
"195 613 OFFCURVE",
"269 613 CURVE SMOOTH",
"354 613 OFFCURVE",
"409 559 OFFCURVE",
"409 559 CURVE",
"419 603 LINE",
"419 603 OFFCURVE",
"362 659 OFFCURVE",
"265 659 CURVE SMOOTH",
"149 659 OFFCURVE",
"74 590 OFFCURVE",
"74 480 CURVE SMOOTH",
"74 269 OFFCURVE",
"368 334 OFFCURVE",
"368 166 CURVE SMOOTH",
"368 97 OFFCURVE",
"321 39 OFFCURVE",
"233 39 CURVE SMOOTH",
"113 39 OFFCURVE",
"69 114 OFFCURVE",
"69 114 CURVE",
"44 75 LINE",
"44 75 OFFCURVE",
"89 -10 OFFCURVE",
"236 -10 CURVE SMOOTH"
);
}
);
width = 490;
},
{
layerId = "85DC84FC-A9CD-42A1-AFE4-850615EB4B70";
paths = (
{
closed = 1;
nodes = (
"354 -11 OFFCURVE",
"457 60 OFFCURVE",
"457 185 CURVE SMOOTH",
"457 401 OFFCURVE",
"194 369 OFFCURVE",
"194 509 CURVE SMOOTH",
"194 561 OFFCURVE",
"228 590 OFFCURVE",
"278 590 CURVE SMOOTH",
"348 590 OFFCURVE",
"413 546 OFFCURVE",
"413 546 CURVE",
"429 614 LINE",
"429 614 OFFCURVE",
"359 660 OFFCURVE",
"269 660 CURVE SMOOTH",
"146 660 OFFCURVE",
"58 586 OFFCURVE",
"58 466 CURVE SMOOTH",
"58 259 OFFCURVE",
"318 280 OFFCURVE",
"318 154 CURVE SMOOTH",
"318 101 OFFCURVE",
"284 63 OFFCURVE",
"219 63 CURVE SMOOTH",
"120 63 OFFCURVE",
"69 126 OFFCURVE",
"69 126 CURVE",
"31 68 LINE",
"31 68 OFFCURVE",
"79 -11 OFFCURVE",
"228 -11 CURVE SMOOTH"
);
}
);
width = 492;
}
);
note = S;
unicode = 0053;
},
{
glyphname = Sacute;
lastChange = "2016-09-16 17:56:47 +0000";
layers = (
{
layerId = "28637767-9EF2-44E2-B459-E4A39AD280E7";
paths = (
{
closed = 1;
nodes = (
"362 -10 OFFCURVE",
"443 68 OFFCURVE",
"443 178 CURVE SMOOTH",
"443 399 OFFCURVE",
"149 329 OFFCURVE",
"149 498 CURVE SMOOTH",
"149 569 OFFCURVE",
"195 613 OFFCURVE",
"269 613 CURVE SMOOTH",
"354 613 OFFCURVE",
"409 559 OFFCURVE",
"409 559 CURVE",
"419 603 LINE",
"419 603 OFFCURVE",
"362 659 OFFCURVE",
"265 659 CURVE SMOOTH",
"149 659 OFFCURVE",
"74 590 OFFCURVE",
"74 480 CURVE SMOOTH",
"74 269 OFFCURVE",
"368 334 OFFCURVE",
"368 166 CURVE SMOOTH",
"368 97 OFFCURVE",
"321 39 OFFCURVE",
"233 39 CURVE SMOOTH",
"113 39 OFFCURVE",
"69 114 OFFCURVE",
"69 114 CURVE",
"44 75 LINE",
"44 75 OFFCURVE",
"89 -10 OFFCURVE",
"236 -10 CURVE SMOOTH"
);
},
{
closed = 1;
nodes = (
"374 841 LINE",
"311 856 LINE",
"234 711 LINE",
"272 706 LINE"
);
}
);
width = 490;
},
{
layerId = "85DC84FC-A9CD-42A1-AFE4-850615EB4B70";
paths = (
{
closed = 1;
nodes = (
"354 -11 OFFCURVE",
"457 60 OFFCURVE",
"457 185 CURVE SMOOTH",
"457 401 OFFCURVE",
"194 369 OFFCURVE",
"194 509 CURVE SMOOTH",
"194 561 OFFCURVE",
"228 590 OFFCURVE",
"278 590 CURVE SMOOTH",
"348 590 OFFCURVE",
"413 546 OFFCURVE",
"413 546 CURVE",
"429 614 LINE",
"429 614 OFFCURVE",
"359 660 OFFCURVE",
"269 660 CURVE SMOOTH",
"146 660 OFFCURVE",
"58 586 OFFCURVE",
"58 466 CURVE SMOOTH",
"58 259 OFFCURVE",
"318 280 OFFCURVE",
"318 154 CURVE SMOOTH",
"318 101 OFFCURVE",
"284 63 OFFCURVE",
"219 63 CURVE SMOOTH",
"120 63 OFFCURVE",
"69 126 OFFCURVE",
"69 126 CURVE",
"31 68 LINE",
"31 68 OFFCURVE",
"79 -11 OFFCURVE",
"228 -11 CURVE SMOOTH"
);
},
{
closed = 1;
nodes = (
"403 834 LINE",
"295 865 LINE",
"225 713 LINE",
"282 704 LINE"
);
}
);
width = 492;
}
);
note = Sacute;
unicode = 015A;
},
{
glyphname = Scaron;
lastChange = "2016-09-16 17:56:47 +0000";
layers = (
{
layerId = "28637767-9EF2-44E2-B459-E4A39AD280E7";
paths = (
{
closed = 1;
nodes = (
"362 -10 OFFCURVE",
"443 68 OFFCURVE",
"443 178 CURVE SMOOTH",
"443 399 OFFCURVE",
"149 329 OFFCURVE",
"149 498 CURVE SMOOTH",
"149 569 OFFCURVE",
"195 613 OFFCURVE",
"269 613 CURVE SMOOTH",
"354 613 OFFCURVE",
"409 559 OFFCURVE",
"409 559 CURVE",
"419 603 LINE",
"419 603 OFFCURVE",
"362 659 OFFCURVE",
"265 659 CURVE SMOOTH",
"149 659 OFFCURVE",
"74 590 OFFCURVE",
"74 480 CURVE SMOOTH",
"74 269 OFFCURVE",
"368 334 OFFCURVE",
"368 166 CURVE SMOOTH",
"368 97 OFFCURVE",
"321 39 OFFCURVE",
"233 39 CURVE SMOOTH",
"113 39 OFFCURVE",
"69 114 OFFCURVE",
"69 114 CURVE",
"44 75 LINE",
"44 75 OFFCURVE",
"89 -10 OFFCURVE",
"236 -10 CURVE SMOOTH"
);
},
{
closed = 1;
nodes = (
"281 708 LINE",
"400 829 LINE",
"372 855 LINE",
"261 754 LINE",
"152 855 LINE",
"123 831 LINE",
"242 708 LINE"
);
}
);
width = 490;
},
{
layerId = "85DC84FC-A9CD-42A1-AFE4-850615EB4B70";
paths = (
{
closed = 1;
nodes = (
"354 -11 OFFCURVE",
"457 60 OFFCURVE",
"457 185 CURVE SMOOTH",
"457 401 OFFCURVE",
"194 369 OFFCURVE",
"194 509 CURVE SMOOTH",
"194 561 OFFCURVE",
"228 590 OFFCURVE",
"278 590 CURVE SMOOTH",
"348 590 OFFCURVE",
"413 546 OFFCURVE",
"413 546 CURVE",
"429 614 LINE",
"429 614 OFFCURVE",
"359 660 OFFCURVE",
"269 660 CURVE SMOOTH",
"146 660 OFFCURVE",
"58 586 OFFCURVE",
"58 466 CURVE SMOOTH",
"58 259 OFFCURVE",
"318 280 OFFCURVE",
"318 154 CURVE SMOOTH",
"318 101 OFFCURVE",
"284 63 OFFCURVE",
"219 63 CURVE SMOOTH",
"120 63 OFFCURVE",
"69 126 OFFCURVE",
"69 126 CURVE",
"31 68 LINE",
"31 68 OFFCURVE",
"79 -11 OFFCURVE",
"228 -11 CURVE SMOOTH"
);
},
{
closed = 1;
nodes = (
"300 707 LINE",
"415 841 LINE",
"373 880 LINE",
"265 787 LINE",
"157 880 LINE",
"115 845 LINE",
"230 707 LINE"
);
}
);
width = 492;
}
);
note = Scaron;
unicode = 0160;
},
{
glyphname = Scedilla;
lastChange = "2016-09-16 17:56:47 +0000";
layers = (
{
layerId = "28637767-9EF2-44E2-B459-E4A39AD280E7";
paths = (
{
closed = 1;
nodes = (
"307 -251 OFFCURVE",
"342 -213 OFFCURVE",
"342 -155 CURVE SMOOTH",
"342 -78 OFFCURVE",
"246 -74 OFFCURVE",
"246 -69 CURVE",
"252 -9 LINE",
"369 -3 OFFCURVE",
"443 73 OFFCURVE",
"443 178 CURVE SMOOTH",
"443 399 OFFCURVE",
"149 329 OFFCURVE",
"149 498 CURVE SMOOTH",
"149 569 OFFCURVE",
"195 613 OFFCURVE",
"269 613 CURVE SMOOTH",
"354 613 OFFCURVE",
"409 559 OFFCURVE",
"409 559 CURVE",
"419 603 LINE",
"419 603 OFFCURVE",
"362 659 OFFCURVE",
"265 659 CURVE SMOOTH",
"149 659 OFFCURVE",
"74 590 OFFCURVE",
"74 480 CURVE SMOOTH",
"74 269 OFFCURVE",
"368 334 OFFCURVE",
"368 166 CURVE SMOOTH",
"368 97 OFFCURVE",
"321 39 OFFCURVE",
"233 39 CURVE SMOOTH",
"113 39 OFFCURVE",
"69 114 OFFCURVE",
"69 114 CURVE",
"44 75 LINE",
"44 75 OFFCURVE",
"86 -5 OFFCURVE",
"224 -10 CURVE",
"213 -92 LINE",
"213 -97 OFFCURVE",
"297 -94 OFFCURVE",
"297 -153 CURVE SMOOTH",
"297 -199 OFFCURVE",
"274 -221 OFFCURVE",
"231 -221 CURVE SMOOTH",
"186 -221 OFFCURVE",
"164 -189 OFFCURVE",
"164 -189 CURVE",
"146 -209 LINE",
"146 -209 OFFCURVE",
"171 -251 OFFCURVE",
"238 -251 CURVE SMOOTH"
);
}
);
width = 490;
},
{
layerId = "85DC84FC-A9CD-42A1-AFE4-850615EB4B70";
paths = (
{
closed = 1;
nodes = (
"301 -251 OFFCURVE",
"339 -209 OFFCURVE",
"339 -150 CURVE SMOOTH",
"339 -73 OFFCURVE",
"250 -64 OFFCURVE",
"250 -58 CURVE",
"255 -10 LINE",
"368 0 OFFCURVE",
"457 69 OFFCURVE",
"457 185 CURVE SMOOTH",
"457 401 OFFCURVE",
"194 369 OFFCURVE",
"194 509 CURVE SMOOTH",
"194 561 OFFCURVE",
"228 590 OFFCURVE",
"278 590 CURVE SMOOTH",
"348 590 OFFCURVE",
"413 546 OFFCURVE",
"413 546 CURVE",
"429 614 LINE",
"429 614 OFFCURVE",
"359 660 OFFCURVE",
"269 660 CURVE SMOOTH",
"146 660 OFFCURVE",
"58 586 OFFCURVE",
"58 466 CURVE SMOOTH",
"58 259 OFFCURVE",
"318 280 OFFCURVE",
"318 154 CURVE SMOOTH",
"318 101 OFFCURVE",
"284 63 OFFCURVE",
"219 63 CURVE SMOOTH",
"120 63 OFFCURVE",
"69 126 OFFCURVE",
"69 126 CURVE",
"31 68 LINE",
"31 68 OFFCURVE",
"75 -5 OFFCURVE",
"211 -10 CURVE",
"200 -98 LINE",
"200 -102 OFFCURVE",
"260 -101 OFFCURVE",
"260 -148 CURVE SMOOTH",
"260 -190 OFFCURVE",
"241 -205 OFFCURVE",
"210 -205 CURVE SMOOTH",
"175 -205 OFFCURVE",
"155 -176 OFFCURVE",
"155 -176 CURVE",
"129 -205 LINE",
"129 -205 OFFCURVE",
"150 -251 OFFCURVE",
"225 -251 CURVE SMOOTH"
);
}
);
width = 492;
}
);
note = Scedilla;
unicode = 015E;
},
{
glyphname = Germandbls;
lastChange = "2016-09-16 17:56:47 +0000";
layers = (
{
layerId = "28637767-9EF2-44E2-B459-E4A39AD280E7";
paths = (
{
closed = 1;
nodes = (
"496 -10 OFFCURVE",
"587 65 OFFCURVE",
"587 192 CURVE SMOOTH",
"587 303 OFFCURVE",
"522 373 OFFCURVE",
"417 373 CURVE SMOOTH",
"401 373 OFFCURVE",
"388 370 OFFCURVE",
"376 367 CURVE",
"500 618 LINE",
"500 650 LINE",
"315 650 LINE SMOOTH",
"165 650 OFFCURVE",
"91 569 OFFCURVE",
"91 438 CURVE SMOOTH",
"91 0 LINE",
"167 0 LINE",
"167 424 LINE SMOOTH",
"167 543 OFFCURVE",
"220 601 OFFCURVE",
"324 601 CURVE SMOOTH",
"431 601 LINE",
"310 341 LINE",
"347 307 LINE",
"347 307 OFFCURVE",
"366 331 OFFCURVE",
"403 331 CURVE SMOOTH",
"478 331 OFFCURVE",
"510 279 OFFCURVE",
"510 192 CURVE SMOOTH",
"510 94 OFFCURVE",
"457 40 OFFCURVE",
"368 40 CURVE SMOOTH",
"289 40 OFFCURVE",
"260 73 OFFCURVE",
"260 73 CURVE",
"243 29 LINE",
"243 29 OFFCURVE",
"277 -10 OFFCURVE",
"380 -10 CURVE SMOOTH"
);
}
);
width = 634;
},
{
layerId = "85DC84FC-A9CD-42A1-AFE4-850615EB4B70";
paths = (
{
closed = 1;
nodes = (
"513 -11 OFFCURVE",
"622 56 OFFCURVE",
"622 193 CURVE SMOOTH",
"622 312 OFFCURVE",
"541 376 OFFCURVE",
"440 376 CURVE SMOOTH",
"432 376 OFFCURVE",
"425 375 OFFCURVE",
"418 374 CURVE",
"538 603 LINE",
"538 650 LINE",
"317 650 LINE SMOOTH",
"157 650 OFFCURVE",
"79 566 OFFCURVE",
"79 414 CURVE SMOOTH",
"79 0 LINE",
"217 0 LINE",
"217 387 LINE SMOOTH",
"217 532 OFFCURVE",
"257 578 OFFCURVE",
"340 578 CURVE SMOOTH",
"416 578 LINE",
"300 339 LINE",
"370 281 LINE",
"372 285 LINE",
"377 293 OFFCURVE",
"392 313 OFFCURVE",
"415 313 CURVE SMOOTH",
"462 313 OFFCURVE",
"479 281 OFFCURVE",
"479 193 CURVE SMOOTH",
"479 96 OFFCURVE",
"442 64 OFFCURVE",
"385 64 CURVE SMOOTH",
"328 64 OFFCURVE",
"296 95 OFFCURVE",
"296 95 CURVE",
"270 29 LINE",
"270 29 OFFCURVE",
"309 -11 OFFCURVE",
"408 -11 CURVE SMOOTH"
);
}
);
width = 658;
}
);
note = uni1E9E;
unicode = 1E9E;
},
{
glyphname = T;
lastChange = "2016-09-16 17:56:47 +0000";
layers = (
{
layerId = "28637767-9EF2-44E2-B459-E4A39AD280E7";
paths = (
{
closed = 1;
nodes = (
"268 0 LINE",
"268 602 LINE",
"454 602 LINE",
"454 650 LINE",
"7 650 LINE",
"7 602 LINE",
"192 602 LINE",
"192 0 LINE"
);
}
);
width = 461;
},
{
layerId = "85DC84FC-A9CD-42A1-AFE4-850615EB4B70";
paths = (
{
closed = 1;
nodes = (
"328 0 LINE",
"328 578 LINE",
"502 578 LINE",
"502 650 LINE",
"14 650 LINE",
"14 578 LINE",
"189 578 LINE",
"189 0 LINE"
);
}
);
width = 516;
}
);
note = T;
unicode = 0054;
},
{
glyphname = Tcaron;
lastChange = "2016-09-16 17:56:47 +0000";
layers = (
{
layerId = "28637767-9EF2-44E2-B459-E4A39AD280E7";
paths = (
{
closed = 1;
nodes = (
"268 0 LINE",
"268 602 LINE",
"454 602 LINE",
"454 650 LINE",
"7 650 LINE",
"7 602 LINE",
"192 602 LINE",
"192 0 LINE"
);
},
{
closed = 1;
nodes = (
"249 708 LINE",
"368 829 LINE",
"340 855 LINE",
"229 754 LINE",
"120 855 LINE",
"91 831 LINE",
"210 708 LINE"
);
}
);
width = 461;
},
{
layerId = "85DC84FC-A9CD-42A1-AFE4-850615EB4B70";
paths = (
{
closed = 1;
nodes = (
"328 0 LINE",
"328 578 LINE",
"502 578 LINE",
"502 650 LINE",
"14 650 LINE",
"14 578 LINE",
"189 578 LINE",
"189 0 LINE"
);
},
{
closed = 1;
nodes = (
"291 707 LINE",
"406 841 LINE",
"364 880 LINE",
"256 787 LINE",
"148 880 LINE",
"106 845 LINE",
"221 707 LINE"
);
}
);
width = 516;
}
);
note = Tcaron;
unicode = 0164;
},
{
glyphname = Tcommaaccent;
lastChange = "2016-09-16 17:56:47 +0000";
layers = (
{
layerId = "28637767-9EF2-44E2-B459-E4A39AD280E7";
paths = (
{
closed = 1;
nodes = (
"268 0 LINE",
"268 602 LINE",
"454 602 LINE",
"454 650 LINE",
"7 650 LINE",
"7 602 LINE",
"192 602 LINE",
"192 0 LINE"
);
},
{
closed = 1;
nodes = (
"241 -247 OFFCURVE",
"274 -169 OFFCURVE",
"274 -111 CURVE SMOOTH",
"274 -87 OFFCURVE",
"268 -66 OFFCURVE",
"255 -54 CURVE",
"248 -48 OFFCURVE",
"239 -45 OFFCURVE",
"230 -45 CURVE SMOOTH",
"221 -45 OFFCURVE",
"212 -48 OFFCURVE",
"205 -54 CURVE",
"198 -61 OFFCURVE",
"194 -71 OFFCURVE",
"194 -81 CURVE SMOOTH",
"194 -91 OFFCURVE",
"198 -101 OFFCURVE",
"205 -108 CURVE",
"212 -114 OFFCURVE",
"222 -117 OFFCURVE",
"231 -117 CURVE",
"232 -123 OFFCURVE",
"232 -129 OFFCURVE",
"232 -135 CURVE SMOOTH",
"232 -178 OFFCURVE",
"212 -232 OFFCURVE",
"172 -269 CURVE",
"190 -288 LINE"
);
}
);
width = 461;
},
{
layerId = "85DC84FC-A9CD-42A1-AFE4-850615EB4B70";
paths = (
{
closed = 1;
nodes = (
"328 0 LINE",
"328 578 LINE",
"502 578 LINE",
"502 650 LINE",
"14 650 LINE",
"14 578 LINE",
"189 578 LINE",
"189 0 LINE"
);
},
{
closed = 1;
nodes = (
"289 -293 OFFCURVE",
"330 -213 OFFCURVE",
"330 -145 CURVE SMOOTH",
"330 -115 OFFCURVE",
"322 -88 OFFCURVE",
"304 -67 CURVE SMOOTH",
"300 -62 LINE",
"288 -51 OFFCURVE",
"272 -46 OFFCURVE",
"257 -46 CURVE SMOOTH",
"241 -46 OFFCURVE",
"226 -51 OFFCURVE",
"215 -62 CURVE SMOOTH",
"202 -75 OFFCURVE",
"196 -91 OFFCURVE",
"196 -108 CURVE SMOOTH",
"196 -125 OFFCURVE",
"202 -142 OFFCURVE",
"215 -154 CURVE SMOOTH",
"226 -164 OFFCURVE",
"241 -170 OFFCURVE",
"257 -170 CURVE SMOOTH",
"264 -170 LINE",
"264 -174 OFFCURVE",
"265 -178 OFFCURVE",
"265 -182 CURVE SMOOTH",
"265 -224 OFFCURVE",
"242 -269 OFFCURVE",
"200 -308 CURVE",
"229 -339 LINE"
);
}
);
width = 516;
}
);
note = Tcommaaccent;
unicode = 021A;
},
{
glyphname = U;
lastChange = "2016-09-30 15:54:47 +0000";
layers = (
{
anchors = (
{
name = bottom;
position = "{310, 0}";
},
{
name = ogonek;
position = "{558, 10}";
},
{
name = top;
position = "{321, 650}";
},
{
name = topright;
position = "{556, 650}";
}
);
layerId = "28637767-9EF2-44E2-B459-E4A39AD280E7";
paths = (
{
closed = 1;
nodes = (
"466 -10 OFFCURVE",
"534 83 OFFCURVE",
"534 212 CURVE SMOOTH",
"534 650 LINE",
"479 650 LINE",
"479 229 LINE SMOOTH",
"479 112 OFFCURVE",
"426 41 OFFCURVE",
"318 41 CURVE SMOOTH",
"215 41 OFFCURVE",
"161 109 OFFCURVE",
"161 229 CURVE SMOOTH",
"161 650 LINE",
"86 650 LINE",
"86 212 LINE SMOOTH",
"86 81 OFFCURVE",
"160 -10 OFFCURVE",
"310 -10 CURVE SMOOTH"
);
}
);
width = 620;
},
{
anchors = (
{
name = bottom;
position = "{307, 0}";
},
{
name = ogonek;
position = "{553, 10}";
},
{
name = top;
position = "{307, 650}";
},
{
name = topright;
position = "{561, 650}";
}
);
layerId = "85DC84FC-A9CD-42A1-AFE4-850615EB4B70";
paths = (
{
closed = 1;
nodes = (
"483 -11 OFFCURVE",
"545 88 OFFCURVE",
"545 236 CURVE SMOOTH",
"545 650 LINE",
"460 650 LINE",
"460 267 LINE SMOOTH",
"460 129 OFFCURVE",
"419 65 OFFCURVE",
"329 65 CURVE SMOOTH",
"247 65 OFFCURVE",
"207 121 OFFCURVE",
"207 267 CURVE SMOOTH",
"207 650 LINE",
"68 650 LINE",
"68 236 LINE SMOOTH",
"68 84 OFFCURVE",
"146 -11 OFFCURVE",
"307 -11 CURVE SMOOTH"
);
}
);
width = 614;
}
);
note = U;
unicode = 0055;
},
{
glyphname = Uacute;
lastChange = "2016-09-16 17:56:47 +0000";
layers = (
{
layerId = "28637767-9EF2-44E2-B459-E4A39AD280E7";
paths = (
{
closed = 1;
nodes = (
"466 -10 OFFCURVE",
"534 83 OFFCURVE",
"534 212 CURVE SMOOTH",
"534 650 LINE",
"479 650 LINE",
"479 229 LINE SMOOTH",
"479 112 OFFCURVE",
"426 41 OFFCURVE",
"318 41 CURVE SMOOTH",
"215 41 OFFCURVE",
"161 109 OFFCURVE",
"161 229 CURVE SMOOTH",
"161 650 LINE",
"86 650 LINE",
"86 212 LINE SMOOTH",
"86 81 OFFCURVE",
"160 -10 OFFCURVE",
"310 -10 CURVE SMOOTH"
);
},
{
closed = 1;
nodes = (
"414 841 LINE",
"351 856 LINE",
"274 711 LINE",
"312 706 LINE"
);
}
);
width = 620;
},
{
layerId = "85DC84FC-A9CD-42A1-AFE4-850615EB4B70";
paths = (
{
closed = 1;
nodes = (
"483 -11 OFFCURVE",
"545 88 OFFCURVE",
"545 236 CURVE SMOOTH",
"545 650 LINE",
"460 650 LINE",
"460 267 LINE SMOOTH",
"460 129 OFFCURVE",
"419 65 OFFCURVE",
"329 65 CURVE SMOOTH",
"247 65 OFFCURVE",
"207 121 OFFCURVE",
"207 267 CURVE SMOOTH",
"207 650 LINE",
"68 650 LINE",
"68 236 LINE SMOOTH",
"68 84 OFFCURVE",
"146 -11 OFFCURVE",
"307 -11 CURVE SMOOTH"
);
},
{
closed = 1;
nodes = (
"450 834 LINE",
"342 865 LINE",
"272 713 LINE",
"329 704 LINE"
);
}
);
width = 614;
}
);
note = Uacute;
unicode = 00DA;
},
{
glyphname = Ucircumflex;
lastChange = "2016-09-16 17:56:47 +0000";
layers = (
{
layerId = "28637767-9EF2-44E2-B459-E4A39AD280E7";
paths = (
{
closed = 1;
nodes = (
"466 -10 OFFCURVE",
"534 83 OFFCURVE",
"534 212 CURVE SMOOTH",
"534 650 LINE",
"479 650 LINE",
"479 229 LINE SMOOTH",
"479 112 OFFCURVE",
"426 41 OFFCURVE",
"318 41 CURVE SMOOTH",
"215 41 OFFCURVE",
"161 109 OFFCURVE",
"161 229 CURVE SMOOTH",
"161 650 LINE",
"86 650 LINE",
"86 212 LINE SMOOTH",
"86 81 OFFCURVE",
"160 -10 OFFCURVE",
"310 -10 CURVE SMOOTH"
);
},
{
closed = 1;
nodes = (
"320 829 LINE",
"430 732 LINE",
"448 764 LINE",
"340 878 LINE",
"301 878 LINE",
"191 764 LINE",
"210 732 LINE"
);
}
);
width = 620;
},
{
layerId = "85DC84FC-A9CD-42A1-AFE4-850615EB4B70";
paths = (
{
closed = 1;
nodes = (
"483 -11 OFFCURVE",
"545 88 OFFCURVE",
"545 236 CURVE SMOOTH",
"545 650 LINE",
"460 650 LINE",
"460 267 LINE SMOOTH",
"460 129 OFFCURVE",
"419 65 OFFCURVE",
"329 65 CURVE SMOOTH",
"247 65 OFFCURVE",
"207 121 OFFCURVE",
"207 267 CURVE SMOOTH",
"207 650 LINE",
"68 650 LINE",
"68 236 LINE SMOOTH",
"68 84 OFFCURVE",
"146 -11 OFFCURVE",
"307 -11 CURVE SMOOTH"
);
},
{
closed = 1;
nodes = (
"331 806 LINE",
"435 721 LINE",
"463 766 LINE",
"366 888 LINE",
"296 888 LINE",
"198 766 LINE",
"227 721 LINE"
);
}
);
width = 614;
}
);
note = Ucircumflex;
unicode = 00DB;
},
{
glyphname = Udieresis;
lastChange = "2016-09-16 17:56:47 +0000";
layers = (
{
layerId = "28637767-9EF2-44E2-B459-E4A39AD280E7";
paths = (
{
closed = 1;
nodes = (
"466 -10 OFFCURVE",
"534 83 OFFCURVE",
"534 212 CURVE SMOOTH",
"534 650 LINE",
"479 650 LINE",
"479 229 LINE SMOOTH",
"479 112 OFFCURVE",
"426 41 OFFCURVE",
"318 41 CURVE SMOOTH",
"215 41 OFFCURVE",
"161 109 OFFCURVE",
"161 229 CURVE SMOOTH",
"161 650 LINE",
"86 650 LINE",
"86 212 LINE SMOOTH",
"86 81 OFFCURVE",
"160 -10 OFFCURVE",
"310 -10 CURVE SMOOTH"
);
},
{
closed = 1;
nodes = (
"252 740 OFFCURVE",
"261 744 OFFCURVE",
"269 750 CURVE",
"276 758 OFFCURVE",
"280 768 OFFCURVE",
"280 779 CURVE SMOOTH",
"280 790 OFFCURVE",
"276 801 OFFCURVE",
"269 809 CURVE",
"261 815 OFFCURVE",
"252 819 OFFCURVE",
"242 819 CURVE SMOOTH",
"232 819 OFFCURVE",
"224 815 OFFCURVE",
"216 809 CURVE",
"208 801 OFFCURVE",
"205 790 OFFCURVE",
"205 779 CURVE SMOOTH",
"205 768 OFFCURVE",
"208 758 OFFCURVE",
"216 750 CURVE",
"224 744 OFFCURVE",
"232 740 OFFCURVE",
"242 740 CURVE SMOOTH"
);
},
{
closed = 1;
nodes = (
"405 740 OFFCURVE",
"414 744 OFFCURVE",
"422 750 CURVE",
"430 758 OFFCURVE",
"434 768 OFFCURVE",
"434 779 CURVE SMOOTH",
"434 790 OFFCURVE",
"430 801 OFFCURVE",
"422 809 CURVE",
"414 815 OFFCURVE",
"405 819 OFFCURVE",
"396 819 CURVE SMOOTH",
"387 819 OFFCURVE",
"378 815 OFFCURVE",
"370 809 CURVE",
"362 801 OFFCURVE",
"359 790 OFFCURVE",
"359 779 CURVE SMOOTH",
"359 768 OFFCURVE",
"362 758 OFFCURVE",
"370 750 CURVE",
"378 744 OFFCURVE",
"387 740 OFFCURVE",
"396 740 CURVE SMOOTH"
);
}
);
width = 620;
},
{
layerId = "85DC84FC-A9CD-42A1-AFE4-850615EB4B70";
paths = (
{
closed = 1;
nodes = (
"483 -11 OFFCURVE",
"545 88 OFFCURVE",
"545 236 CURVE SMOOTH",
"545 650 LINE",
"460 650 LINE",
"460 267 LINE SMOOTH",
"460 129 OFFCURVE",
"419 65 OFFCURVE",
"329 65 CURVE SMOOTH",
"247 65 OFFCURVE",
"207 121 OFFCURVE",
"207 267 CURVE SMOOTH",
"207 650 LINE",
"68 650 LINE",
"68 236 LINE SMOOTH",
"68 84 OFFCURVE",
"146 -11 OFFCURVE",
"307 -11 CURVE SMOOTH"
);
},
{
closed = 1;
nodes = (
"252 717 OFFCURVE",
"268 723 OFFCURVE",
"281 735 CURVE",
"294 749 OFFCURVE",
"301 768 OFFCURVE",
"301 787 CURVE SMOOTH",
"301 806 OFFCURVE",
"294 824 OFFCURVE",
"281 839 CURVE",
"268 850 OFFCURVE",
"252 856 OFFCURVE",
"235 856 CURVE SMOOTH",
"218 856 OFFCURVE",
"202 850 OFFCURVE",
"189 839 CURVE",
"175 824 OFFCURVE",
"169 806 OFFCURVE",
"169 787 CURVE SMOOTH",
"169 768 OFFCURVE",
"175 749 OFFCURVE",
"189 735 CURVE",
"202 723 OFFCURVE",
"218 717 OFFCURVE",
"235 717 CURVE SMOOTH"
);
},
{
closed = 1;
nodes = (
"438 717 OFFCURVE",
"454 723 OFFCURVE",
"467 735 CURVE",
"480 749 OFFCURVE",
"487 768 OFFCURVE",
"487 787 CURVE SMOOTH",
"487 806 OFFCURVE",
"480 824 OFFCURVE",
"467 839 CURVE",
"454 850 OFFCURVE",
"438 856 OFFCURVE",
"421 856 CURVE SMOOTH",
"404 856 OFFCURVE",
"387 850 OFFCURVE",
"375 839 CURVE",
"361 824 OFFCURVE",
"355 806 OFFCURVE",
"355 787 CURVE SMOOTH",
"355 768 OFFCURVE",
"361 749 OFFCURVE",
"375 735 CURVE SMOOTH",
"387 723 OFFCURVE",
"404 717 OFFCURVE",
"421 717 CURVE SMOOTH"
);
}
);
width = 614;
}
);
note = Udieresis;
unicode = 00DC;
},
{
glyphname = Ugrave;
lastChange = "2016-09-16 17:56:47 +0000";
layers = (
{
layerId = "28637767-9EF2-44E2-B459-E4A39AD280E7";
paths = (
{
closed = 1;
nodes = (
"466 -10 OFFCURVE",
"534 83 OFFCURVE",
"534 212 CURVE SMOOTH",
"534 650 LINE",
"479 650 LINE",
"479 229 LINE SMOOTH",
"479 112 OFFCURVE",
"426 41 OFFCURVE",
"318 41 CURVE SMOOTH",
"215 41 OFFCURVE",
"161 109 OFFCURVE",
"161 229 CURVE SMOOTH",
"161 650 LINE",
"86 650 LINE",
"86 212 LINE SMOOTH",
"86 81 OFFCURVE",
"160 -10 OFFCURVE",
"310 -10 CURVE SMOOTH"
);
},
{
closed = 1;
nodes = (
"358 716 LINE",
"275 859 LINE",
"213 843 LINE",
"318 708 LINE"
);
}
);
width = 620;
},
{
layerId = "85DC84FC-A9CD-42A1-AFE4-850615EB4B70";
paths = (
{
closed = 1;
nodes = (
"483 -11 OFFCURVE",
"545 88 OFFCURVE",
"545 236 CURVE SMOOTH",
"545 650 LINE",
"460 650 LINE",
"460 267 LINE SMOOTH",
"460 129 OFFCURVE",
"419 65 OFFCURVE",
"329 65 CURVE SMOOTH",
"247 65 OFFCURVE",
"207 121 OFFCURVE",
"207 267 CURVE SMOOTH",
"207 650 LINE",
"68 650 LINE",
"68 236 LINE SMOOTH",
"68 84 OFFCURVE",
"146 -11 OFFCURVE",
"307 -11 CURVE SMOOTH"
);
},
{
closed = 1;
nodes = (
"398 726 LINE",
"313 873 LINE",
"207 838 LINE",
"336 709 LINE"
);
}
);
width = 614;
}
);
note = Ugrave;
unicode = 00D9;
},
{
glyphname = Uhungarumlaut;
lastChange = "2016-09-16 17:56:47 +0000";
layers = (
{
layerId = "28637767-9EF2-44E2-B459-E4A39AD280E7";
paths = (
{
closed = 1;
nodes = (
"466 -10 OFFCURVE",
"534 83 OFFCURVE",
"534 212 CURVE SMOOTH",
"534 650 LINE",
"479 650 LINE",
"479 229 LINE SMOOTH",
"479 112 OFFCURVE",
"426 41 OFFCURVE",
"318 41 CURVE SMOOTH",
"215 41 OFFCURVE",
"161 109 OFFCURVE",
"161 229 CURVE SMOOTH",
"161 650 LINE",
"86 650 LINE",
"86 212 LINE SMOOTH",
"86 81 OFFCURVE",
"160 -10 OFFCURVE",
"310 -10 CURVE SMOOTH"
);
},
{
closed = 1;
nodes = (
"314 840 LINE",
"262 853 LINE",
"217 725 LINE",
"251 711 LINE"
);
},
{
closed = 1;
nodes = (
"443 840 LINE",
"392 853 LINE",
"346 725 LINE",
"380 711 LINE"
);
}
);
width = 620;
},
{
layerId = "85DC84FC-A9CD-42A1-AFE4-850615EB4B70";
paths = (
{
closed = 1;
nodes = (
"483 -11 OFFCURVE",
"545 88 OFFCURVE",
"545 236 CURVE SMOOTH",
"545 650 LINE",
"460 650 LINE",
"460 267 LINE SMOOTH",
"460 129 OFFCURVE",
"419 65 OFFCURVE",
"329 65 CURVE SMOOTH",
"247 65 OFFCURVE",
"207 121 OFFCURVE",
"207 267 CURVE SMOOTH",
"207 650 LINE",
"68 650 LINE",
"68 236 LINE SMOOTH",
"68 84 OFFCURVE",
"146 -11 OFFCURVE",
"307 -11 CURVE SMOOTH"
);
},
{
closed = 1;
nodes = (
"344 847 LINE",
"252 873 LINE",
"199 720 LINE",
"250 697 LINE"
);
},
{
closed = 1;
nodes = (
"500 847 LINE",
"408 873 LINE",
"354 720 LINE",
"405 697 LINE"
);
}
);
width = 614;
}
);
note = Uhungarumlaut;
unicode = 0170;
},
{
glyphname = Umacron;
lastChange = "2016-09-16 17:56:47 +0000";
layers = (
{
layerId = "28637767-9EF2-44E2-B459-E4A39AD280E7";
paths = (
{
closed = 1;
nodes = (
"466 -10 OFFCURVE",
"534 83 OFFCURVE",
"534 212 CURVE SMOOTH",
"534 650 LINE",
"479 650 LINE",
"479 229 LINE SMOOTH",
"479 112 OFFCURVE",
"426 41 OFFCURVE",
"318 41 CURVE SMOOTH",
"215 41 OFFCURVE",
"161 109 OFFCURVE",
"161 229 CURVE SMOOTH",
"161 650 LINE",
"86 650 LINE",
"86 212 LINE SMOOTH",
"86 81 OFFCURVE",
"160 -10 OFFCURVE",
"310 -10 CURVE SMOOTH"
);
},
{
closed = 1;
nodes = (
"410 771 LINE",
"410 807 LINE",
"224 807 LINE",
"224 771 LINE"
);
}
);
width = 620;
},
{
layerId = "85DC84FC-A9CD-42A1-AFE4-850615EB4B70";
paths = (
{
closed = 1;
nodes = (
"483 -11 OFFCURVE",
"545 88 OFFCURVE",
"545 236 CURVE SMOOTH",
"545 650 LINE",
"460 650 LINE",
"460 267 LINE SMOOTH",
"460 129 OFFCURVE",
"419 65 OFFCURVE",
"329 65 CURVE SMOOTH",
"247 65 OFFCURVE",
"207 121 OFFCURVE",
"207 267 CURVE SMOOTH",
"207 650 LINE",
"68 650 LINE",
"68 236 LINE SMOOTH",
"68 84 OFFCURVE",
"146 -11 OFFCURVE",
"307 -11 CURVE SMOOTH"
);
},
{
closed = 1;
nodes = (
"433 759 LINE",
"433 817 LINE",
"219 817 LINE",
"219 759 LINE"
);
}
);
width = 614;
}
);
note = Umacron;
unicode = 016A;
},
{
glyphname = Uogonek;
lastChange = "2016-09-16 17:56:47 +0000";
layers = (
{
layerId = "28637767-9EF2-44E2-B459-E4A39AD280E7";
paths = (
{
closed = 1;
nodes = (
"405 -218 LINE",
"351 -218 OFFCURVE",
"300 -204 OFFCURVE",
"300 -135 CURVE SMOOTH",
"300 -63 OFFCURVE",
"352 -20 OFFCURVE",
"375 -4 CURVE",
"485 19 OFFCURVE",
"534 102 OFFCURVE",
"534 212 CURVE SMOOTH",
"534 650 LINE",
"479 650 LINE",
"479 229 LINE SMOOTH",
"479 112 OFFCURVE",
"426 41 OFFCURVE",
"318 41 CURVE SMOOTH",
"215 41 OFFCURVE",
"161 109 OFFCURVE",
"161 229 CURVE SMOOTH",
"161 650 LINE",
"86 650 LINE",
"86 212 LINE SMOOTH",
"86 81 OFFCURVE",
"160 -10 OFFCURVE",
"310 -10 CURVE SMOOTH",
"325 -10 LINE",
"290 -37 OFFCURVE",
"250 -81 OFFCURVE",
"250 -139 CURVE SMOOTH",
"250 -233 OFFCURVE",
"330 -250 OFFCURVE",
"405 -250 CURVE"
);
}
);
width = 620;
},
{
layerId = "85DC84FC-A9CD-42A1-AFE4-850615EB4B70";
paths = (
{
closed = 1;
nodes = (
"394 -201 LINE",
"342 -201 OFFCURVE",
"318 -186 OFFCURVE",
"318 -123 CURVE SMOOTH",
"318 -56 OFFCURVE",
"356 -20 OFFCURVE",
"380 -4 CURVE",
"500 20 OFFCURVE",
"545 110 OFFCURVE",
"545 236 CURVE SMOOTH",
"545 650 LINE",
"460 650 LINE",
"460 267 LINE SMOOTH",
"460 129 OFFCURVE",
"419 65 OFFCURVE",
"329 65 CURVE SMOOTH",
"247 65 OFFCURVE",
"207 121 OFFCURVE",
"207 267 CURVE SMOOTH",
"207 650 LINE",
"68 650 LINE",
"68 236 LINE SMOOTH",
"68 85 OFFCURVE",
"144 -9 OFFCURVE",
"303 -11 CURVE",
"266 -40 OFFCURVE",
"230 -81 OFFCURVE",
"230 -133 CURVE SMOOTH",
"230 -232 OFFCURVE",
"307 -250 OFFCURVE",
"394 -250 CURVE"
);
}
);
width = 614;
}
);
note = Uogonek;
unicode = 0172;
},
{
glyphname = Uring;
lastChange = "2016-09-16 17:56:47 +0000";
layers = (
{
layerId = "28637767-9EF2-44E2-B459-E4A39AD280E7";
paths = (
{
closed = 1;
nodes = (
"466 -10 OFFCURVE",
"534 83 OFFCURVE",
"534 212 CURVE SMOOTH",
"534 650 LINE",
"479 650 LINE",
"479 229 LINE SMOOTH",
"479 112 OFFCURVE",
"426 41 OFFCURVE",
"318 41 CURVE SMOOTH",
"215 41 OFFCURVE",
"161 109 OFFCURVE",
"161 229 CURVE SMOOTH",
"161 650 LINE",
"86 650 LINE",
"86 212 LINE SMOOTH",
"86 81 OFFCURVE",
"160 -10 OFFCURVE",
"310 -10 CURVE SMOOTH"
);
},
{
closed = 1;
nodes = (
"367 686 OFFCURVE",
"405 717 OFFCURVE",
"405 779 CURVE SMOOTH",
"405 840 OFFCURVE",
"365 873 OFFCURVE",
"316 873 CURVE SMOOTH",
"266 873 OFFCURVE",
"227 840 OFFCURVE",
"227 779 CURVE SMOOTH",
"227 717 OFFCURVE",
"264 686 OFFCURVE",
"316 686 CURVE SMOOTH"
);
},
{
closed = 1;
nodes = (
"282 712 OFFCURVE",
"255 732 OFFCURVE",
"255 779 CURVE SMOOTH",
"255 826 OFFCURVE",
"283 846 OFFCURVE",
"316 846 CURVE SMOOTH",
"349 846 OFFCURVE",
"376 826 OFFCURVE",
"376 779 CURVE SMOOTH",
"376 732 OFFCURVE",
"350 712 OFFCURVE",
"316 712 CURVE SMOOTH"
);
}
);
width = 620;
},
{
layerId = "85DC84FC-A9CD-42A1-AFE4-850615EB4B70";
paths = (
{
closed = 1;
nodes = (
"483 -11 OFFCURVE",
"545 88 OFFCURVE",
"545 236 CURVE SMOOTH",
"545 650 LINE",
"460 650 LINE",
"460 267 LINE SMOOTH",
"460 129 OFFCURVE",
"419 65 OFFCURVE",
"329 65 CURVE SMOOTH",
"247 65 OFFCURVE",
"207 121 OFFCURVE",
"207 267 CURVE SMOOTH",
"207 650 LINE",
"68 650 LINE",
"68 236 LINE SMOOTH",
"68 84 OFFCURVE",
"146 -11 OFFCURVE",
"307 -11 CURVE SMOOTH"
);
},
{
closed = 1;
nodes = (
"382 683 OFFCURVE",
"426 723 OFFCURVE",
"426 791 CURVE SMOOTH",
"426 859 OFFCURVE",
"379 898 OFFCURVE",
"321 898 CURVE SMOOTH",
"261 898 OFFCURVE",
"216 859 OFFCURVE",
"216 791 CURVE SMOOTH",
"216 723 OFFCURVE",
"257 683 OFFCURVE",
"321 683 CURVE SMOOTH"
);
},
{
closed = 1;
nodes = (
"286 726 OFFCURVE",
"262 747 OFFCURVE",
"262 792 CURVE SMOOTH",
"262 836 OFFCURVE",
"289 856 OFFCURVE",
"321 856 CURVE SMOOTH",
"353 856 OFFCURVE",
"380 836 OFFCURVE",
"380 792 CURVE SMOOTH",
"380 747 OFFCURVE",
"356 726 OFFCURVE",
"321 726 CURVE SMOOTH"
);
}
);
width = 614;
}
);
note = Uring;
unicode = 016E;
},
{
glyphname = V;
lastChange = "2016-09-16 17:54:38 +0000";
layers = (
{
layerId = "28637767-9EF2-44E2-B459-E4A39AD280E7";
paths = (
{
closed = 1;
nodes = (
"315 0 LINE",
"531 650 LINE",
"475 650 LINE",
"283 56 LINE",
"94 650 LINE",
"15 650 LINE",
"227 0 LINE"
);
}
);
width = 548;
},
{
layerId = "85DC84FC-A9CD-42A1-AFE4-850615EB4B70";
paths = (
{
closed = 1;
nodes = (
"357 0 LINE",
"566 650 LINE",
"479 650 LINE",
"312 101 LINE",
"309 101 LINE",
"155 650 LINE",
"9 650 LINE",
"204 0 LINE"
);
}
);
width = 576;
}
);
note = V;
unicode = 0056;
},
{
glyphname = W;
lastChange = "2016-09-16 17:56:47 +0000";
layers = (
{
layerId = "28637767-9EF2-44E2-B459-E4A39AD280E7";
paths = (
{
closed = 1;
nodes = (
"264 0 LINE",
"424 554 LINE",
"586 0 LINE",
"656 0 LINE",
"831 650 LINE",
"775 650 LINE",
"631 88 LINE",
"469 650 LINE",
"402 650 LINE",
"243 87 LINE",
"95 650 LINE",
"15 650 LINE",
"194 0 LINE"
);
}
);
width = 848;
},
{
layerId = "85DC84FC-A9CD-42A1-AFE4-850615EB4B70";
paths = (
{
closed = 1;
nodes = (
"302 0 LINE",
"437 480 LINE",
"439 480 LINE",
"575 0 LINE",
"693 0 LINE",
"863 650 LINE",
"775 650 LINE",
"662 161 LINE",
"659 161 LINE",
"522 650 LINE",
"411 650 LINE",
"278 158 LINE",
"276 158 LINE",
"156 650 LINE",
"9 650 LINE",
"182 0 LINE"
);
}
);
width = 873;
}
);
note = W;
unicode = 0057;
},
{
glyphname = X;
lastChange = "2016-09-16 17:56:47 +0000";
layers = (
{
layerId = "28637767-9EF2-44E2-B459-E4A39AD280E7";
paths = (
{
closed = 1;
nodes = (
"85 0 LINE",
"258 279 LINE",
"259 279 LINE",
"430 0 LINE",
"523 0 LINE",
"311 335 LINE",
"510 650 LINE",
"447 650 LINE",
"279 378 LINE",
"118 650 LINE",
"26 650 LINE",
"226 323 LINE",
"18 0 LINE"
);
}
);
width = 541;
},
{
layerId = "85DC84FC-A9CD-42A1-AFE4-850615EB4B70";
paths = (
{
closed = 1;
nodes = (
"112 0 LINE",
"259 248 LINE",
"262 248 LINE",
"401 0 LINE",
"573 0 LINE",
"360 350 LINE",
"550 650 LINE",
"452 650 LINE",
"313 417 LINE",
"310 417 LINE",
"190 650 LINE",
"17 650 LINE",
"210 316 LINE",
"8 0 LINE"
);
}
);
width = 581;
}
);
note = X;
unicode = 0058;
},
{
glyphname = Y;
lastChange = "2016-09-30 15:46:23 +0000";
layers = (
{
anchors = (
{
name = bottom;
position = "{254, 0}";
},
{
name = top;
position = "{254, 650}";
},
{
name = topleft;
position = "{20, 650}";
}
);
layerId = "28637767-9EF2-44E2-B459-E4A39AD280E7";
paths = (
{
closed = 1;
nodes = (
"293 0 LINE",
"293 274 LINE",
"505 650 LINE",
"444 650 LINE",
"266 330 LINE",
"87 650 LINE",
"2 650 LINE",
"217 269 LINE",
"217 0 LINE"
);
}
);
width = 507;
},
{
anchors = (
{
name = bottom;
position = "{262, 0}";
},
{
name = top;
position = "{262, 650}";
},
{
name = topleft;
position = "{20, 650}";
}
);
layerId = "85DC84FC-A9CD-42A1-AFE4-850615EB4B70";
paths = (
{
closed = 1;
nodes = (
"334 0 LINE",
"334 266 LINE",
"529 650 LINE",
"433 650 LINE",
"293 355 LINE",
"291 355 LINE",
"148 650 LINE",
"-7 650 LINE",
"195 251 LINE",
"195 0 LINE"
);
}
);
width = 523;
}
);
note = Y;
unicode = 0059;
},
{
glyphname = Yacute;
lastChange = "2016-09-16 17:56:47 +0000";
layers = (
{
layerId = "28637767-9EF2-44E2-B459-E4A39AD280E7";
paths = (
{
closed = 1;
nodes = (
"293 0 LINE",
"293 274 LINE",
"505 650 LINE",
"444 650 LINE",
"266 330 LINE",
"87 650 LINE",
"2 650 LINE",
"217 269 LINE",
"217 0 LINE"
);
},
{
closed = 1;
nodes = (
"377 841 LINE",
"314 856 LINE",
"237 711 LINE",
"275 706 LINE"
);
}
);
width = 507;
},
{
layerId = "85DC84FC-A9CD-42A1-AFE4-850615EB4B70";
paths = (
{
closed = 1;
nodes = (
"334 0 LINE",
"334 266 LINE",
"529 650 LINE",
"433 650 LINE",
"293 355 LINE",
"291 355 LINE",
"148 650 LINE",
"-7 650 LINE",
"195 251 LINE",
"195 0 LINE"
);
},
{
closed = 1;
nodes = (
"416 834 LINE",
"308 865 LINE",
"238 713 LINE",
"295 704 LINE"
);
}
);
width = 523;
}
);
note = Yacute;
unicode = 00DD;
},
{
glyphname = Ydieresis;
lastChange = "2016-09-16 17:56:47 +0000";
layers = (
{
layerId = "28637767-9EF2-44E2-B459-E4A39AD280E7";
paths = (
{
closed = 1;
nodes = (
"293 0 LINE",
"293 274 LINE",
"505 650 LINE",
"444 650 LINE",
"266 330 LINE",
"87 650 LINE",
"2 650 LINE",
"217 269 LINE",
"217 0 LINE"
);
},
{
closed = 1;
nodes = (
"198 740 OFFCURVE",
"206 744 OFFCURVE",
"214 750 CURVE",
"221 758 OFFCURVE",
"225 768 OFFCURVE",
"225 779 CURVE SMOOTH",
"225 790 OFFCURVE",
"221 801 OFFCURVE",
"214 809 CURVE",
"206 815 OFFCURVE",
"198 819 OFFCURVE",
"188 819 CURVE SMOOTH",
"178 819 OFFCURVE",
"169 815 OFFCURVE",
"161 809 CURVE",
"153 801 OFFCURVE",
"150 790 OFFCURVE",
"150 779 CURVE SMOOTH",
"150 768 OFFCURVE",
"153 758 OFFCURVE",
"161 750 CURVE",
"169 744 OFFCURVE",
"178 740 OFFCURVE",
"188 740 CURVE SMOOTH"
);
},
{
closed = 1;
nodes = (
"350 740 OFFCURVE",
"359 744 OFFCURVE",
"367 750 CURVE",
"375 758 OFFCURVE",
"379 768 OFFCURVE",
"379 779 CURVE SMOOTH",
"379 790 OFFCURVE",
"375 801 OFFCURVE",
"367 809 CURVE",
"359 815 OFFCURVE",
"350 819 OFFCURVE",
"341 819 CURVE SMOOTH",
"332 819 OFFCURVE",
"323 815 OFFCURVE",
"315 809 CURVE",
"307 801 OFFCURVE",
"304 790 OFFCURVE",
"304 779 CURVE SMOOTH",
"304 768 OFFCURVE",
"307 758 OFFCURVE",
"315 750 CURVE",
"323 744 OFFCURVE",
"332 740 OFFCURVE",
"341 740 CURVE SMOOTH"
);
}
);
width = 507;
},
{
layerId = "85DC84FC-A9CD-42A1-AFE4-850615EB4B70";
paths = (
{
closed = 1;
nodes = (
"334 0 LINE",
"334 266 LINE",
"529 650 LINE",
"433 650 LINE",
"293 355 LINE",
"291 355 LINE",
"148 650 LINE",
"-7 650 LINE",
"195 251 LINE",
"195 0 LINE"
);
},
{
closed = 1;
nodes = (
"211 717 OFFCURVE",
"227 723 OFFCURVE",
"240 735 CURVE",
"253 749 OFFCURVE",
"260 768 OFFCURVE",
"260 787 CURVE SMOOTH",
"260 806 OFFCURVE",
"253 824 OFFCURVE",
"240 839 CURVE",
"227 850 OFFCURVE",
"211 856 OFFCURVE",
"194 856 CURVE SMOOTH",
"177 856 OFFCURVE",
"161 850 OFFCURVE",
"148 839 CURVE",
"134 824 OFFCURVE",
"128 806 OFFCURVE",
"128 787 CURVE SMOOTH",
"128 768 OFFCURVE",
"134 749 OFFCURVE",
"148 735 CURVE",
"161 723 OFFCURVE",
"177 717 OFFCURVE",
"194 717 CURVE SMOOTH"
);
},
{
closed = 1;
nodes = (
"397 717 OFFCURVE",
"413 723 OFFCURVE",
"426 735 CURVE",
"439 749 OFFCURVE",
"446 768 OFFCURVE",
"446 787 CURVE SMOOTH",
"446 806 OFFCURVE",
"439 824 OFFCURVE",
"426 839 CURVE",
"413 850 OFFCURVE",
"397 856 OFFCURVE",
"380 856 CURVE SMOOTH",
"363 856 OFFCURVE",
"346 850 OFFCURVE",
"334 839 CURVE",
"320 824 OFFCURVE",
"314 806 OFFCURVE",
"314 787 CURVE SMOOTH",
"314 768 OFFCURVE",
"320 749 OFFCURVE",
"334 735 CURVE SMOOTH",
"346 723 OFFCURVE",
"363 717 OFFCURVE",
"380 717 CURVE SMOOTH"
);
}
);
width = 523;
}
);
note = Ydieresis;
unicode = 0178;
},
{
glyphname = Z;
lastChange = "2016-09-16 17:56:47 +0000";
layers = (
{
layerId = "28637767-9EF2-44E2-B459-E4A39AD280E7";
paths = (
{
closed = 1;
nodes = (
"485 0 LINE",
"485 48 LINE",
"132 48 LINE",
"485 609 LINE",
"485 650 LINE",
"49 650 LINE",
"49 602 LINE",
"392 602 LINE",
"40 40 LINE",
"40 0 LINE"
);
}
);
width = 527;
},
{
layerId = "85DC84FC-A9CD-42A1-AFE4-850615EB4B70";
paths = (
{
closed = 1;
nodes = (
"521 0 LINE",
"521 72 LINE",
"209 72 LINE",
"522 590 LINE",
"522 650 LINE",
"60 650 LINE",
"60 578 LINE",
"355 578 LINE",
"42 58 LINE",
"42 0 LINE"
);
}
);
width = 567;
}
);
note = Z;
unicode = 005A;
},
{
glyphname = Zacute;
lastChange = "2016-09-16 17:56:47 +0000";
layers = (
{
layerId = "28637767-9EF2-44E2-B459-E4A39AD280E7";
paths = (
{
closed = 1;
nodes = (
"485 0 LINE",
"485 48 LINE",
"132 48 LINE",
"485 609 LINE",
"485 650 LINE",
"49 650 LINE",
"49 602 LINE",
"392 602 LINE",
"40 40 LINE",
"40 0 LINE"
);
},
{
closed = 1;
nodes = (
"384 841 LINE",
"321 856 LINE",
"244 711 LINE",
"282 706 LINE"
);
}
);
width = 527;
},
{
layerId = "85DC84FC-A9CD-42A1-AFE4-850615EB4B70";
paths = (
{
closed = 1;
nodes = (
"521 0 LINE",
"521 72 LINE",
"209 72 LINE",
"522 590 LINE",
"522 650 LINE",
"60 650 LINE",
"60 578 LINE",
"355 578 LINE",
"42 58 LINE",
"42 0 LINE"
);
},
{
closed = 1;
nodes = (
"417 834 LINE",
"309 865 LINE",
"239 713 LINE",
"296 704 LINE"
);
}
);
width = 567;
}
);
note = Zacute;
unicode = 0179;
},
{
glyphname = Zcaron;
lastChange = "2016-09-16 17:56:47 +0000";
layers = (
{
layerId = "28637767-9EF2-44E2-B459-E4A39AD280E7";
paths = (
{
closed = 1;
nodes = (
"485 0 LINE",
"485 48 LINE",
"132 48 LINE",
"485 609 LINE",
"485 650 LINE",
"49 650 LINE",
"49 602 LINE",
"392 602 LINE",
"40 40 LINE",
"40 0 LINE"
);
},
{
closed = 1;
nodes = (
"291 708 LINE",
"410 829 LINE",
"382 855 LINE",
"271 754 LINE",
"162 855 LINE",
"133 831 LINE",
"252 708 LINE"
);
}
);
width = 527;
},
{
layerId = "85DC84FC-A9CD-42A1-AFE4-850615EB4B70";
paths = (
{
closed = 1;
nodes = (
"521 0 LINE",
"521 72 LINE",
"209 72 LINE",
"522 590 LINE",
"522 650 LINE",
"60 650 LINE",
"60 578 LINE",
"355 578 LINE",
"42 58 LINE",
"42 0 LINE"
);
},
{
closed = 1;
nodes = (
"319 707 LINE",
"434 841 LINE",
"392 880 LINE",
"284 787 LINE",
"176 880 LINE",
"134 845 LINE",
"249 707 LINE"
);
}
);
width = 567;
}
);
note = Zcaron;
unicode = 017D;
},
{
glyphname = Zdotaccent;
lastChange = "2016-09-16 17:56:47 +0000";
layers = (
{
layerId = "28637767-9EF2-44E2-B459-E4A39AD280E7";
paths = (
{
closed = 1;
nodes = (
"485 0 LINE",
"485 48 LINE",
"132 48 LINE",
"485 609 LINE",
"485 650 LINE",
"49 650 LINE",
"49 602 LINE",
"392 602 LINE",
"40 40 LINE",
"40 0 LINE"
);
},
{
closed = 1;
nodes = (
"281 736 OFFCURVE",
"291 740 OFFCURVE",
"300 747 CURVE",
"308 756 OFFCURVE",
"312 767 OFFCURVE",
"312 779 CURVE SMOOTH",
"312 791 OFFCURVE",
"308 803 OFFCURVE",
"300 812 CURVE",
"292 819 OFFCURVE",
"281 822 OFFCURVE",
"270 822 CURVE SMOOTH",
"259 822 OFFCURVE",
"249 819 OFFCURVE",
"241 811 CURVE SMOOTH",
"232 802 OFFCURVE",
"228 791 OFFCURVE",
"228 779 CURVE SMOOTH",
"228 767 OFFCURVE",
"232 756 OFFCURVE",
"241 747 CURVE SMOOTH",
"248 740 OFFCURVE",
"259 736 OFFCURVE",
"270 736 CURVE SMOOTH"
);
}
);
width = 527;
},
{
layerId = "85DC84FC-A9CD-42A1-AFE4-850615EB4B70";
paths = (
{
closed = 1;
nodes = (
"521 0 LINE",
"521 72 LINE",
"209 72 LINE",
"522 590 LINE",
"522 650 LINE",
"60 650 LINE",
"60 578 LINE",
"355 578 LINE",
"42 58 LINE",
"42 0 LINE"
);
},
{
closed = 1;
nodes = (
"302 710 OFFCURVE",
"320 717 OFFCURVE",
"334 729 CURVE",
"349 745 OFFCURVE",
"356 766 OFFCURVE",
"356 787 CURVE SMOOTH",
"356 808 OFFCURVE",
"349 828 OFFCURVE",
"334 844 CURVE",
"320 857 OFFCURVE",
"302 863 OFFCURVE",
"283 863 CURVE SMOOTH",
"264 863 OFFCURVE",
"245 857 OFFCURVE",
"230 843 CURVE SMOOTH",
"215 828 OFFCURVE",
"207 808 OFFCURVE",
"207 787 CURVE SMOOTH",
"207 766 OFFCURVE",
"215 745 OFFCURVE",
"230 730 CURVE",
"245 717 OFFCURVE",
"264 710 OFFCURVE",
"283 710 CURVE SMOOTH"
);
}
);
width = 567;
}
);
note = Zdotaccent;
unicode = 017B;
},
{
glyphname = A.swsh;
lastChange = "2016-09-20 13:00:14 +0000";
layers = (
{
layerId = "28637767-9EF2-44E2-B459-E4A39AD280E7";
paths = (
{
closed = 1;
nodes = (
"144 -66 OFFCURVE",
"219 -8 OFFCURVE",
"290 200 CURVE",
"543 200 LINE",
"601 0 LINE",
"681 0 LINE",
"487 619 LINE",
"481 660 LINE",
"464 652 OFFCURVE",
"438 650 OFFCURVE",
"397 650 CURVE SMOOTH",
"165 649 OFFCURVE",
"36 564 OFFCURVE",
"36 426 CURVE SMOOTH",
"36 390 OFFCURVE",
"45 351 OFFCURVE",
"63 308 CURVE",
"112 322 LINE",
"96 359 OFFCURVE",
"89 392 OFFCURVE",
"89 423 CURVE SMOOTH",
"89 533 OFFCURVE",
"189 601 OFFCURVE",
"381 606 CURVE",
"241 218 LINE SMOOTH",
"175 22 OFFCURVE",
"103 -26 OFFCURVE",
"33 -43 CURVE",
"59 -86 LINE"
);
},
{
closed = 1;
nodes = (
"428 592 LINE",
"531 241 LINE",
"303 241 LINE"
);
}
);
width = 703;
},
{
layerId = "85DC84FC-A9CD-42A1-AFE4-850615EB4B70";
paths = (
{
closed = 1;
nodes = (
"168 -97 OFFCURVE",
"244 -36 OFFCURVE",
"316 182 CURVE",
"540 182 LINE",
"587 0 LINE",
"733 0 LINE",
"550 604 LINE",
"539 665 LINE",
"514 654 OFFCURVE",
"476 651 OFFCURVE",
"429 650 CURVE SMOOTH",
"399 650 LINE SMOOTH",
"157 648 OFFCURVE",
"27 533 OFFCURVE",
"27 391 CURVE SMOOTH",
"27 358 OFFCURVE",
"34 324 OFFCURVE",
"48 289 CURVE",
"122 309 LINE",
"112 335 OFFCURVE",
"107 361 OFFCURVE",
"107 386 CURVE SMOOTH",
"107 488 OFFCURVE",
"193 573 OFFCURVE",
"375 584 CURVE",
"242 210 LINE SMOOTH",
"175 10 OFFCURVE",
"105 -35 OFFCURVE",
"45 -54 CURVE",
"83 -120 LINE"
);
},
{
closed = 1;
nodes = (
"442 551 LINE",
"443 551 LINE",
"523 245 LINE",
"337 245 LINE"
);
}
);
width = 752;
}
);
note = A.swsh;
},
{
glyphname = B.swsh;
lastChange = "2016-09-20 13:00:14 +0000";
layers = (
{
layerId = "28637767-9EF2-44E2-B459-E4A39AD280E7";
paths = (
{
closed = 1;
nodes = (
"516 0 LINE SMOOTH",
"677 0 OFFCURVE",
"751 69 OFFCURVE",
"751 184 CURVE SMOOTH",
"751 268 OFFCURVE",
"699 321 OFFCURVE",
"626 341 CURVE",
"672 365 OFFCURVE",
"720 410 OFFCURVE",
"720 488 CURVE SMOOTH",
"720 582 OFFCURVE",
"649 650 OFFCURVE",
"515 650 CURVE SMOOTH",
"427 650 LINE",
"428 672 OFFCURVE",
"430 692 OFFCURVE",
"433 710 CURVE",
"375 715 LINE",
"365 704 OFFCURVE",
"358 682 OFFCURVE",
"354 650 CURVE",
"351 650 LINE SMOOTH",
"151 650 OFFCURVE",
"40 539 OFFCURVE",
"40 416 CURVE SMOOTH",
"40 376 OFFCURVE",
"52 334 OFFCURVE",
"77 295 CURVE",
"119 315 LINE",
"99 347 OFFCURVE",
"90 381 OFFCURVE",
"90 414 CURVE SMOOTH",
"90 514 OFFCURVE",
"179 607 OFFCURVE",
"351 607 CURVE",
"351 562 LINE SMOOTH",
"351 316 OFFCURVE",
"351 127 OFFCURVE",
"346 0 CURVE"
);
},
{
closed = 1;
nodes = (
"422 115 OFFCURVE",
"424 212 OFFCURVE",
"425 315 CURVE",
"549 315 LINE SMOOTH",
"621 315 OFFCURVE",
"676 277 OFFCURVE",
"676 187 CURVE SMOOTH",
"676 90 OFFCURVE",
"621 44 OFFCURVE",
"514 44 CURVE SMOOTH",
"420 44 LINE"
);
},
{
closed = 1;
nodes = (
"426 425 OFFCURVE",
"427 496 OFFCURVE",
"427 562 CURVE SMOOTH",
"427 607 LINE",
"469 606 OFFCURVE",
"513 606 OFFCURVE",
"513 606 CURVE",
"590 606 OFFCURVE",
"647 568 OFFCURVE",
"647 483 CURVE SMOOTH",
"647 382 OFFCURVE",
"579 356 OFFCURVE",
"545 356 CURVE SMOOTH",
"426 356 LINE"
);
}
);
width = 799;
},
{
layerId = "85DC84FC-A9CD-42A1-AFE4-850615EB4B70";
paths = (
{
closed = 1;
nodes = (
"536 0 LINE SMOOTH",
"706 0 OFFCURVE",
"789 77 OFFCURVE",
"789 187 CURVE SMOOTH",
"789 265 OFFCURVE",
"736 316 OFFCURVE",
"664 339 CURVE",
"713 364 OFFCURVE",
"761 408 OFFCURVE",
"761 481 CURVE SMOOTH",
"761 567 OFFCURVE",
"692 650 OFFCURVE",
"531 650 CURVE SMOOTH",
"473 650 LINE",
"475 669 OFFCURVE",
"478 687 OFFCURVE",
"483 709 CURVE",
"377 723 LINE",
"358 711 OFFCURVE",
"346 686 OFFCURVE",
"340 650 CURVE",
"333 650 LINE SMOOTH",
"150 650 OFFCURVE",
"40 545 OFFCURVE",
"40 412 CURVE SMOOTH",
"40 370 OFFCURVE",
"51 324 OFFCURVE",
"75 279 CURVE",
"138 310 LINE",
"122 344 OFFCURVE",
"114 377 OFFCURVE",
"114 409 CURVE SMOOTH",
"114 507 OFFCURVE",
"189 586 OFFCURVE",
"333 586 CURVE SMOOTH",
"334 586 LINE",
"333 572 OFFCURVE",
"333 557 OFFCURVE",
"333 542 CURVE SMOOTH",
"333 211 OFFCURVE",
"333 98 OFFCURVE",
"322 0 CURVE"
);
},
{
closed = 1;
nodes = (
"462 123 OFFCURVE",
"466 202 OFFCURVE",
"468 301 CURVE",
"560 301 LINE SMOOTH",
"612 301 OFFCURVE",
"650 274 OFFCURVE",
"650 192 CURVE SMOOTH",
"650 104 OFFCURVE",
"604 65 OFFCURVE",
"533 65 CURVE SMOOTH",
"457 65 LINE"
);
},
{
closed = 1;
nodes = (
"471 416 OFFCURVE",
"471 476 OFFCURVE",
"471 541 CURVE SMOOTH",
"471 585 LINE",
"528 585 LINE SMOOTH",
"582 585 OFFCURVE",
"626 555 OFFCURVE",
"626 473 CURVE SMOOTH",
"626 385 OFFCURVE",
"582 361 OFFCURVE",
"554 361 CURVE SMOOTH",
"470 361 LINE"
);
}
);
width = 825;
}
);
note = B.swsh;
},
{
glyphname = C.swsh;
lastChange = "2016-09-20 13:00:14 +0000";
layers = (
{
layerId = "28637767-9EF2-44E2-B459-E4A39AD280E7";
paths = (
{
closed = 1;
nodes = (
"505 -122 OFFCURVE",
"558 -25 OFFCURVE",
"558 -25 CURVE",
"530 7 LINE",
"530 7 OFFCURVE",
"480 -72 OFFCURVE",
"360 -72 CURVE SMOOTH",
"229 -72 OFFCURVE",
"149 25 OFFCURVE",
"149 265 CURVE SMOOTH",
"149 507 OFFCURVE",
"249 609 OFFCURVE",
"373 609 CURVE SMOOTH",
"481 609 OFFCURVE",
"521 554 OFFCURVE",
"521 496 CURVE SMOOTH",
"521 450 OFFCURVE",
"496 401 OFFCURVE",
"459 377 CURVE",
"495 356 LINE",
"542 388 OFFCURVE",
"572 446 OFFCURVE",
"572 503 CURVE SMOOTH",
"572 582 OFFCURVE",
"515 659 OFFCURVE",
"368 659 CURVE SMOOTH",
"198 659 OFFCURVE",
"68 521 OFFCURVE",
"68 263 CURVE SMOOTH",
"68 8 OFFCURVE",
"171 -122 OFFCURVE",
"348 -122 CURVE SMOOTH"
);
}
);
width = 578;
},
{
layerId = "85DC84FC-A9CD-42A1-AFE4-850615EB4B70";
paths = (
{
closed = 1;
nodes = (
"529 -116 OFFCURVE",
"581 -7 OFFCURVE",
"581 -7 CURVE",
"537 41 LINE",
"537 41 OFFCURVE",
"488 -41 OFFCURVE",
"381 -41 CURVE SMOOTH",
"270 -41 OFFCURVE",
"208 28 OFFCURVE",
"208 273 CURVE SMOOTH",
"208 516 OFFCURVE",
"280 585 OFFCURVE",
"385 585 CURVE SMOOTH",
"480 585 OFFCURVE",
"517 531 OFFCURVE",
"517 473 CURVE SMOOTH",
"517 427 OFFCURVE",
"494 379 OFFCURVE",
"458 356 CURVE",
"512 323 LINE",
"565 358 OFFCURVE",
"597 422 OFFCURVE",
"597 484 CURVE SMOOTH",
"597 573 OFFCURVE",
"532 660 OFFCURVE",
"372 660 CURVE SMOOTH",
"185 660 OFFCURVE",
"56 523 OFFCURVE",
"56 267 CURVE SMOOTH",
"56 16 OFFCURVE",
"162 -116 OFFCURVE",
"355 -116 CURVE SMOOTH"
);
}
);
width = 591;
}
);
note = C.swsh;
},
{
glyphname = D.swsh;
lastChange = "2016-09-20 13:00:14 +0000";
layers = (
{
layerId = "28637767-9EF2-44E2-B459-E4A39AD280E7";
paths = (
{
closed = 1;
nodes = (
"550 0 LINE SMOOTH",
"737 0 OFFCURVE",
"844 112 OFFCURVE",
"844 323 CURVE SMOOTH",
"844 536 OFFCURVE",
"734 650 OFFCURVE",
"549 650 CURVE SMOOTH",
"427 650 LINE",
"428 672 OFFCURVE",
"430 692 OFFCURVE",
"433 710 CURVE",
"375 715 LINE",
"365 704 OFFCURVE",
"358 682 OFFCURVE",
"354 650 CURVE",
"351 650 LINE SMOOTH",
"151 650 OFFCURVE",
"40 539 OFFCURVE",
"40 416 CURVE SMOOTH",
"40 376 OFFCURVE",
"52 334 OFFCURVE",
"77 295 CURVE",
"119 315 LINE",
"99 347 OFFCURVE",
"90 381 OFFCURVE",
"90 414 CURVE SMOOTH",
"90 514 OFFCURVE",
"179 607 OFFCURVE",
"351 607 CURVE",
"351 562 LINE SMOOTH",
"351 316 OFFCURVE",
"351 127 OFFCURVE",
"346 0 CURVE"
);
},
{
closed = 1;
nodes = (
"425 176 OFFCURVE",
"427 385 OFFCURVE",
"427 562 CURVE SMOOTH",
"427 602 LINE",
"549 602 LINE SMOOTH",
"688 602 OFFCURVE",
"762 513 OFFCURVE",
"762 323 CURVE SMOOTH",
"762 134 OFFCURVE",
"688 48 OFFCURVE",
"550 48 CURVE SMOOTH",
"420 48 LINE"
);
}
);
width = 891;
},
{
layerId = "85DC84FC-A9CD-42A1-AFE4-850615EB4B70";
paths = (
{
closed = 1;
nodes = (
"555 0 LINE SMOOTH",
"760 0 OFFCURVE",
"868 113 OFFCURVE",
"868 323 CURVE SMOOTH",
"868 538 OFFCURVE",
"754 650 OFFCURVE",
"554 650 CURVE SMOOTH",
"473 650 LINE",
"475 669 OFFCURVE",
"478 687 OFFCURVE",
"483 709 CURVE",
"377 723 LINE",
"358 711 OFFCURVE",
"346 686 OFFCURVE",
"340 650 CURVE",
"333 650 LINE SMOOTH",
"150 650 OFFCURVE",
"40 545 OFFCURVE",
"40 412 CURVE SMOOTH",
"40 370 OFFCURVE",
"51 324 OFFCURVE",
"75 279 CURVE",
"138 310 LINE",
"122 344 OFFCURVE",
"114 377 OFFCURVE",
"114 409 CURVE SMOOTH",
"114 507 OFFCURVE",
"189 586 OFFCURVE",
"333 586 CURVE",
"333 586 OFFCURVE",
"333 585 OFFCURVE",
"334 585 CURVE",
"333 572 OFFCURVE",
"333 557 OFFCURVE",
"333 542 CURVE SMOOTH",
"333 211 OFFCURVE",
"333 98 OFFCURVE",
"322 0 CURVE"
);
},
{
closed = 1;
nodes = (
"465 171 OFFCURVE",
"471 329 OFFCURVE",
"471 541 CURVE SMOOTH",
"471 579 LINE",
"554 579 LINE SMOOTH",
"670 579 OFFCURVE",
"715 511 OFFCURVE",
"715 323 CURVE SMOOTH",
"715 136 OFFCURVE",
"670 71 OFFCURVE",
"556 71 CURVE SMOOTH",
"458 71 LINE"
);
}
);
width = 903;
}
);
note = D.swsh;
},
{
glyphname = E.swsh;
lastChange = "2016-09-20 13:00:14 +0000";
layers = (
{
layerId = "28637767-9EF2-44E2-B459-E4A39AD280E7";
paths = (
{
closed = 1;
nodes = (
"457 -110 OFFCURVE",
"504 -22 OFFCURVE",
"504 -22 CURVE",
"479 11 LINE",
"479 11 OFFCURVE",
"436 -62 OFFCURVE",
"322 -62 CURVE SMOOTH",
"225 -62 OFFCURVE",
"162 -13 OFFCURVE",
"162 94 CURVE SMOOTH",
"162 204 OFFCURVE",
"218 239 OFFCURVE",
"262 243 CURVE",
"374 242 LINE",
"374 288 LINE",
"259 286 LINE",
"202 290 OFFCURVE",
"144 348 OFFCURVE",
"144 444 CURVE SMOOTH",
"144 551 OFFCURVE",
"192 613 OFFCURVE",
"314 613 CURVE SMOOTH",
"424 613 OFFCURVE",
"482 556 OFFCURVE",
"482 494 CURVE SMOOTH",
"482 466 OFFCURVE",
"471 438 OFFCURVE",
"447 413 CURVE",
"485 394 LINE",
"517 426 OFFCURVE",
"533 465 OFFCURVE",
"533 502 CURVE SMOOTH",
"533 583 OFFCURVE",
"459 659 OFFCURVE",
"307 659 CURVE SMOOTH",
"140 659 OFFCURVE",
"68 570 OFFCURVE",
"68 444 CURVE SMOOTH",
"68 344 OFFCURVE",
"133 287 OFFCURVE",
"197 264 CURVE",
"144 241 OFFCURVE",
"88 189 OFFCURVE",
"88 88 CURVE SMOOTH",
"88 -42 OFFCURVE",
"178 -110 OFFCURVE",
"309 -110 CURVE SMOOTH"
);
}
);
width = 534;
},
{
layerId = "85DC84FC-A9CD-42A1-AFE4-850615EB4B70";
paths = (
{
closed = 1;
nodes = (
"475 -111 OFFCURVE",
"525 -15 OFFCURVE",
"525 -15 CURVE",
"488 35 LINE",
"488 35 OFFCURVE",
"438 -39 OFFCURVE",
"337 -39 CURVE SMOOTH",
"259 -39 OFFCURVE",
"219 -9 OFFCURVE",
"219 97 CURVE SMOOTH",
"219 196 OFFCURVE",
"252 223 OFFCURVE",
"283 227 CURVE",
"406 224 LINE",
"406 298 LINE",
"276 294 LINE",
"235 298 OFFCURVE",
"198 340 OFFCURVE",
"198 440 CURVE SMOOTH",
"198 549 OFFCURVE",
"241 590 OFFCURVE",
"332 590 CURVE SMOOTH",
"435 590 OFFCURVE",
"482 533 OFFCURVE",
"482 477 CURVE SMOOTH",
"482 453 OFFCURVE",
"473 429 OFFCURVE",
"456 410 CURVE",
"516 382 LINE",
"545 412 OFFCURVE",
"560 451 OFFCURVE",
"560 489 CURVE SMOOTH",
"560 574 OFFCURVE",
"484 660 OFFCURVE",
"311 660 CURVE SMOOTH",
"141 660 OFFCURVE",
"56 569 OFFCURVE",
"56 440 CURVE SMOOTH",
"56 334 OFFCURVE",
"122 281 OFFCURVE",
"187 258 CURVE",
"135 233 OFFCURVE",
"83 182 OFFCURVE",
"83 88 CURVE SMOOTH",
"83 -49 OFFCURVE",
"174 -111 OFFCURVE",
"310 -111 CURVE SMOOTH"
);
}
);
width = 562;
}
);
note = E.swsh;
},
{
glyphname = F.swsh;
lastChange = "2016-09-20 13:00:14 +0000";
layers = (
{
layerId = "28637767-9EF2-44E2-B459-E4A39AD280E7";
paths = (
{
closed = 1;
nodes = (
"389 0 LINE",
"389 297 LINE",
"631 297 LINE",
"631 343 LINE",
"389 343 LINE",
"389 602 LINE",
"670 602 LINE",
"670 650 LINE",
"321 650 LINE SMOOTH",
"156 650 OFFCURVE",
"41 566 OFFCURVE",
"41 431 CURVE SMOOTH",
"41 394 OFFCURVE",
"49 352 OFFCURVE",
"68 308 CURVE",
"117 322 LINE",
"101 361 OFFCURVE",
"93 397 OFFCURVE",
"93 429 CURVE SMOOTH",
"93 540 OFFCURVE",
"184 607 OFFCURVE",
"321 607 CURVE",
"316 596 OFFCURVE",
"314 583 OFFCURVE",
"314 569 CURVE SMOOTH",
"314 0 LINE"
);
}
);
width = 684;
},
{
layerId = "85DC84FC-A9CD-42A1-AFE4-850615EB4B70";
paths = (
{
closed = 1;
nodes = (
"455 0 LINE",
"455 268 LINE",
"678 268 LINE",
"678 338 LINE",
"455 338 LINE",
"455 578 LINE",
"711 578 LINE",
"711 650 LINE",
"334 650 LINE SMOOTH",
"153 650 OFFCURVE",
"41 538 OFFCURVE",
"41 399 CURVE SMOOTH",
"41 364 OFFCURVE",
"48 326 OFFCURVE",
"63 289 CURVE",
"137 309 LINE",
"125 339 OFFCURVE",
"120 368 OFFCURVE",
"120 397 CURVE SMOOTH",
"120 500 OFFCURVE",
"195 586 OFFCURVE",
"334 586 CURVE",
"322 563 OFFCURVE",
"316 535 OFFCURVE",
"316 500 CURVE SMOOTH",
"316 0 LINE"
);
}
);
width = 727;
}
);
note = F.swsh;
},
{
glyphname = G.swsh;
lastChange = "2016-09-20 13:00:14 +0000";
layers = (
{
layerId = "28637767-9EF2-44E2-B459-E4A39AD280E7";
paths = (
{
closed = 1;
nodes = (
"563 -214 LINE",
"563 253 LINE",
"366 253 LINE",
"366 210 LINE",
"499 210 LINE",
"499 -27 LINE",
"471 -48 OFFCURVE",
"425 -72 OFFCURVE",
"360 -72 CURVE SMOOTH",
"229 -72 OFFCURVE",
"149 25 OFFCURVE",
"149 265 CURVE SMOOTH",
"149 507 OFFCURVE",
"249 609 OFFCURVE",
"373 609 CURVE SMOOTH",
"481 609 OFFCURVE",
"521 554 OFFCURVE",
"521 496 CURVE SMOOTH",
"521 450 OFFCURVE",
"496 401 OFFCURVE",
"459 377 CURVE",
"495 356 LINE",
"542 388 OFFCURVE",
"572 446 OFFCURVE",
"572 503 CURVE SMOOTH",
"572 582 OFFCURVE",
"515 659 OFFCURVE",
"368 659 CURVE SMOOTH",
"198 659 OFFCURVE",
"68 521 OFFCURVE",
"68 263 CURVE SMOOTH",
"68 8 OFFCURVE",
"171 -122 OFFCURVE",
"348 -122 CURVE SMOOTH",
"418 -122 OFFCURVE",
"465 -104 OFFCURVE",
"499 -83 CURVE",
"499 -90 LINE",
"526 -214 LINE"
);
}
);
width = 640;
},
{
layerId = "85DC84FC-A9CD-42A1-AFE4-850615EB4B70";
paths = (
{
closed = 1;
nodes = (
"585 -226 LINE",
"585 251 LINE",
"367 251 LINE",
"367 183 LINE",
"468 183 LINE",
"468 -20 LINE",
"445 -32 OFFCURVE",
"416 -41 OFFCURVE",
"381 -41 CURVE SMOOTH",
"270 -41 OFFCURVE",
"208 28 OFFCURVE",
"208 273 CURVE SMOOTH",
"208 516 OFFCURVE",
"280 585 OFFCURVE",
"385 585 CURVE SMOOTH",
"480 585 OFFCURVE",
"517 531 OFFCURVE",
"517 473 CURVE SMOOTH",
"517 427 OFFCURVE",
"494 379 OFFCURVE",
"458 356 CURVE",
"512 323 LINE",
"565 358 OFFCURVE",
"597 422 OFFCURVE",
"597 484 CURVE SMOOTH",
"597 573 OFFCURVE",
"532 660 OFFCURVE",
"372 660 CURVE SMOOTH",
"185 660 OFFCURVE",
"56 523 OFFCURVE",
"56 267 CURVE SMOOTH",
"56 16 OFFCURVE",
"162 -116 OFFCURVE",
"355 -116 CURVE SMOOTH",
"401 -116 OFFCURVE",
"437 -109 OFFCURVE",
"468 -97 CURVE",
"468 -121 LINE",
"525 -226 LINE"
);
}
);
width = 645;
}
);
note = G.swsh;
},
{
glyphname = H.swsh;
lastChange = "2016-09-20 13:00:14 +0000";
layers = (
{
layerId = "28637767-9EF2-44E2-B459-E4A39AD280E7";
paths = (
{
closed = 1;
nodes = (
"322 -10 OFFCURVE",
"389 30 OFFCURVE",
"389 191 CURVE SMOOTH",
"389 312 LINE",
"687 312 LINE",
"687 0 LINE",
"762 0 LINE",
"762 562 LINE SMOOTH",
"762 628 OFFCURVE",
"762 672 OFFCURVE",
"768 710 CURVE",
"710 715 LINE",
"692 696 OFFCURVE",
"687 641 OFFCURVE",
"687 562 CURVE SMOOTH",
"687 358 LINE",
"389 358 LINE",
"389 650 LINE",
"321 650 LINE SMOOTH",
"156 650 OFFCURVE",
"41 566 OFFCURVE",
"41 431 CURVE SMOOTH",
"41 394 OFFCURVE",
"49 352 OFFCURVE",
"68 308 CURVE",
"117 322 LINE",
"101 361 OFFCURVE",
"93 397 OFFCURVE",
"93 429 CURVE SMOOTH",
"93 540 OFFCURVE",
"184 607 OFFCURVE",
"321 607 CURVE",
"316 596 OFFCURVE",
"314 583 OFFCURVE",
"314 569 CURVE SMOOTH",
"314 191 LINE SMOOTH",
"314 62 OFFCURVE",
"267 38 OFFCURVE",
"221 38 CURVE SMOOTH",
"188 38 OFFCURVE",
"167 48 OFFCURVE",
"167 48 CURVE",
"155 5 LINE",
"155 5 OFFCURVE",
"183 -10 OFFCURVE",
"231 -10 CURVE SMOOTH"
);
}
);
width = 857;
},
{
layerId = "85DC84FC-A9CD-42A1-AFE4-850615EB4B70";
paths = (
{
closed = 1;
nodes = (
"391 -11 OFFCURVE",
"455 43 OFFCURVE",
"455 214 CURVE SMOOTH",
"455 296 LINE",
"679 296 LINE",
"679 0 LINE",
"817 0 LINE",
"817 541 LINE SMOOTH",
"817 624 OFFCURVE",
"817 656 OFFCURVE",
"829 709 CURVE",
"723 723 LINE",
"690 702 OFFCURVE",
"679 640 OFFCURVE",
"679 542 CURVE SMOOTH",
"679 366 LINE",
"455 366 LINE",
"455 650 LINE",
"334 650 LINE SMOOTH",
"153 650 OFFCURVE",
"41 538 OFFCURVE",
"41 399 CURVE SMOOTH",
"41 364 OFFCURVE",
"48 326 OFFCURVE",
"63 289 CURVE",
"137 309 LINE",
"125 339 OFFCURVE",
"120 368 OFFCURVE",
"120 397 CURVE SMOOTH",
"120 500 OFFCURVE",
"195 586 OFFCURVE",
"334 586 CURVE",
"322 563 OFFCURVE",
"316 535 OFFCURVE",
"316 500 CURVE SMOOTH",
"316 214 LINE SMOOTH",
"316 89 OFFCURVE",
"289 60 OFFCURVE",
"242 60 CURVE SMOOTH",
"210 60 OFFCURVE",
"191 70 OFFCURVE",
"191 70 CURVE",
"172 5 LINE",
"172 5 OFFCURVE",
"205 -11 OFFCURVE",
"259 -11 CURVE SMOOTH"
);
}
);
width = 894;
}
);
note = H.swsh;
},
{
glyphname = I.swsh;
lastChange = "2016-09-20 13:00:14 +0000";
layers = (
{
layerId = "28637767-9EF2-44E2-B459-E4A39AD280E7";
paths = (
{
closed = 1;
nodes = (
"322 -10 OFFCURVE",
"389 30 OFFCURVE",
"389 191 CURVE SMOOTH",
"389 650 LINE",
"321 650 LINE SMOOTH",
"156 650 OFFCURVE",
"41 566 OFFCURVE",
"41 431 CURVE SMOOTH",
"41 394 OFFCURVE",
"49 352 OFFCURVE",
"68 308 CURVE",
"117 322 LINE",
"101 361 OFFCURVE",
"93 397 OFFCURVE",
"93 429 CURVE SMOOTH",
"93 540 OFFCURVE",
"184 607 OFFCURVE",
"321 607 CURVE",
"316 596 OFFCURVE",
"314 583 OFFCURVE",
"314 569 CURVE SMOOTH",
"314 191 LINE SMOOTH",
"314 62 OFFCURVE",
"267 38 OFFCURVE",
"221 38 CURVE SMOOTH",
"188 38 OFFCURVE",
"167 48 OFFCURVE",
"167 48 CURVE",
"155 5 LINE",
"155 5 OFFCURVE",
"183 -10 OFFCURVE",
"231 -10 CURVE SMOOTH"
);
}
);
width = 485;
},
{
layerId = "85DC84FC-A9CD-42A1-AFE4-850615EB4B70";
paths = (
{
closed = 1;
nodes = (
"391 -11 OFFCURVE",
"455 43 OFFCURVE",
"455 214 CURVE SMOOTH",
"455 650 LINE",
"334 650 LINE SMOOTH",
"153 650 OFFCURVE",
"41 538 OFFCURVE",
"41 399 CURVE SMOOTH",
"41 364 OFFCURVE",
"48 326 OFFCURVE",
"63 289 CURVE",
"137 309 LINE",
"125 339 OFFCURVE",
"120 368 OFFCURVE",
"120 397 CURVE SMOOTH",
"120 500 OFFCURVE",
"195 586 OFFCURVE",
"334 586 CURVE",
"322 563 OFFCURVE",
"316 535 OFFCURVE",
"316 500 CURVE SMOOTH",
"316 214 LINE SMOOTH",
"316 89 OFFCURVE",
"289 60 OFFCURVE",
"242 60 CURVE SMOOTH",
"210 60 OFFCURVE",
"191 70 OFFCURVE",
"191 70 CURVE",
"172 5 LINE",
"172 5 OFFCURVE",
"205 -11 OFFCURVE",
"259 -11 CURVE SMOOTH"
);
}
);
width = 532;
}
);
note = I.swsh;
},
{
glyphname = J.swsh;
lastChange = "2016-09-20 13:00:14 +0000";
layers = (
{
layerId = "28637767-9EF2-44E2-B459-E4A39AD280E7";
paths = (
{
closed = 1;
nodes = (
"363 -159 OFFCURVE",
"461 -66 OFFCURVE",
"461 101 CURVE SMOOTH",
"461 650 LINE",
"393 650 LINE SMOOTH",
"228 650 OFFCURVE",
"113 566 OFFCURVE",
"113 431 CURVE SMOOTH",
"113 394 OFFCURVE",
"122 352 OFFCURVE",
"141 308 CURVE",
"189 322 LINE",
"173 361 OFFCURVE",
"165 397 OFFCURVE",
"165 429 CURVE SMOOTH",
"165 540 OFFCURVE",
"256 607 OFFCURVE",
"393 607 CURVE",
"388 596 OFFCURVE",
"386 583 OFFCURVE",
"386 569 CURVE SMOOTH",
"386 91 LINE SMOOTH",
"386 -33 OFFCURVE",
"322 -111 OFFCURVE",
"233 -111 CURVE SMOOTH",
"137 -111 OFFCURVE",
"92 -51 OFFCURVE",
"92 14 CURVE SMOOTH",
"92 51 OFFCURVE",
"106 89 OFFCURVE",
"134 118 CURVE",
"95 135 LINE",
"60 99 OFFCURVE",
"42 52 OFFCURVE",
"42 6 CURVE SMOOTH",
"42 -79 OFFCURVE",
"104 -159 OFFCURVE",
"238 -159 CURVE SMOOTH"
);
}
);
width = 548;
},
{
layerId = "85DC84FC-A9CD-42A1-AFE4-850615EB4B70";
paths = (
{
closed = 1;
nodes = (
"368 -132 OFFCURVE",
"487 -49 OFFCURVE",
"487 142 CURVE SMOOTH",
"487 650 LINE",
"366 650 LINE SMOOTH",
"185 650 OFFCURVE",
"73 538 OFFCURVE",
"73 399 CURVE SMOOTH",
"73 364 OFFCURVE",
"81 327 OFFCURVE",
"96 289 CURVE",
"169 309 LINE",
"157 339 OFFCURVE",
"152 369 OFFCURVE",
"152 397 CURVE SMOOTH",
"152 500 OFFCURVE",
"227 586 OFFCURVE",
"366 586 CURVE SMOOTH",
"367 586 LINE",
"355 563 OFFCURVE",
"349 535 OFFCURVE",
"349 500 CURVE SMOOTH",
"349 114 LINE SMOOTH",
"349 0 OFFCURVE",
"298 -59 OFFCURVE",
"233 -59 CURVE SMOOTH",
"151 -59 OFFCURVE",
"119 -10 OFFCURVE",
"119 42 CURVE SMOOTH",
"119 77 OFFCURVE",
"133 114 OFFCURVE",
"156 139 CURVE",
"96 163 LINE",
"62 128 OFFCURVE",
"43 80 OFFCURVE",
"43 32 CURVE SMOOTH",
"43 -51 OFFCURVE",
"102 -132 OFFCURVE",
"246 -132 CURVE SMOOTH"
);
}
);
width = 555;
}
);
note = J.swsh;
},
{
glyphname = K.swsh;
lastChange = "2016-09-20 13:00:14 +0000";
layers = (
{
layerId = "28637767-9EF2-44E2-B459-E4A39AD280E7";
paths = (
{
closed = 1;
nodes = (
"915 -87 OFFCURVE",
"938 -65 OFFCURVE",
"938 -65 CURVE",
"929 -31 LINE",
"929 -31 OFFCURVE",
"912 -45 OFFCURVE",
"886 -45 CURVE SMOOTH",
"839 -45 OFFCURVE",
"785 -10 OFFCURVE",
"733 62 CURVE SMOOTH",
"516 354 LINE",
"749 650 LINE",
"688 650 LINE",
"469 366 LINE",
"389 296 LINE",
"389 650 LINE",
"321 650 LINE SMOOTH",
"156 650 OFFCURVE",
"41 566 OFFCURVE",
"41 431 CURVE SMOOTH",
"41 394 OFFCURVE",
"49 352 OFFCURVE",
"68 308 CURVE",
"117 322 LINE",
"101 361 OFFCURVE",
"93 397 OFFCURVE",
"93 429 CURVE SMOOTH",
"93 540 OFFCURVE",
"184 607 OFFCURVE",
"321 607 CURVE",
"316 596 OFFCURVE",
"314 583 OFFCURVE",
"314 569 CURVE SMOOTH",
"314 0 LINE",
"389 0 LINE",
"389 239 LINE",
"464 302 LINE",
"666 31 LINE",
"722 -51 OFFCURVE",
"792 -87 OFFCURVE",
"865 -87 CURVE SMOOTH"
);
}
);
width = 844;
},
{
layerId = "85DC84FC-A9CD-42A1-AFE4-850615EB4B70";
paths = (
{
closed = 1;
nodes = (
"976 -111 OFFCURVE",
"1009 -81 OFFCURVE",
"1009 -81 CURVE",
"996 -32 LINE",
"996 -32 OFFCURVE",
"977 -45 OFFCURVE",
"949 -45 CURVE SMOOTH",
"901 -45 OFFCURVE",
"848 -7 OFFCURVE",
"787 88 CURVE SMOOTH",
"592 382 LINE",
"800 650 LINE",
"705 650 LINE",
"514 393 LINE",
"455 349 LINE",
"455 650 LINE",
"334 650 LINE SMOOTH",
"153 650 OFFCURVE",
"41 538 OFFCURVE",
"41 399 CURVE SMOOTH",
"41 364 OFFCURVE",
"48 326 OFFCURVE",
"63 289 CURVE",
"137 309 LINE",
"125 339 OFFCURVE",
"120 368 OFFCURVE",
"120 397 CURVE SMOOTH",
"120 500 OFFCURVE",
"195 586 OFFCURVE",
"334 586 CURVE",
"322 563 OFFCURVE",
"316 535 OFFCURVE",
"316 500 CURVE SMOOTH",
"316 0 LINE",
"455 0 LINE",
"455 262 LINE",
"497 292 LINE",
"665 35 LINE SMOOTH",
"730 -72 OFFCURVE",
"815 -111 OFFCURVE",
"908 -111 CURVE SMOOTH"
);
}
);
width = 905;
}
);
note = K.swsh;
},
{
glyphname = L.swsh;
lastChange = "2016-09-20 13:00:14 +0000";
layers = (
{
layerId = "28637767-9EF2-44E2-B459-E4A39AD280E7";
paths = (
{
closed = 1;
nodes = (
"702 -53 OFFCURVE",
"737 -7 OFFCURVE",
"737 85 CURVE SMOOTH",
"737 93 LINE",
"694 99 LINE",
"695 25 OFFCURVE",
"670 -5 OFFCURVE",
"627 -5 CURVE SMOOTH",
"571 -5 OFFCURVE",
"431 31 OFFCURVE",
"352 43 CURVE",
"375 74 OFFCURVE",
"389 121 OFFCURVE",
"389 191 CURVE SMOOTH",
"389 650 LINE",
"321 650 LINE SMOOTH",
"156 650 OFFCURVE",
"41 566 OFFCURVE",
"41 431 CURVE SMOOTH",
"41 394 OFFCURVE",
"49 352 OFFCURVE",
"68 308 CURVE",
"117 322 LINE",
"101 361 OFFCURVE",
"93 397 OFFCURVE",
"93 429 CURVE SMOOTH",
"93 540 OFFCURVE",
"184 607 OFFCURVE",
"321 607 CURVE",
"316 596 OFFCURVE",
"314 583 OFFCURVE",
"314 569 CURVE SMOOTH",
"314 191 LINE SMOOTH",
"314 77 OFFCURVE",
"277 45 OFFCURVE",
"237 39 CURVE",
"233 39 OFFCURVE",
"228 38 OFFCURVE",
"223 38 CURVE SMOOTH",
"221 38 LINE",
"224 -10 LINE",
"245 -10 OFFCURVE",
"265 -7 OFFCURVE",
"284 -2 CURVE",
"296 0 OFFCURVE",
"308 0 OFFCURVE",
"316 0 CURVE SMOOTH",
"368 0 OFFCURVE",
"552 -53 OFFCURVE",
"635 -53 CURVE SMOOTH"
);
}
);
width = 690;
},
{
layerId = "85DC84FC-A9CD-42A1-AFE4-850615EB4B70";
paths = (
{
closed = 1;
nodes = (
"729 -43 OFFCURVE",
"772 20 OFFCURVE",
"772 122 CURVE SMOOTH",
"772 132 LINE",
"706 140 LINE",
"707 69 OFFCURVE",
"680 33 OFFCURVE",
"632 33 CURVE SMOOTH",
"585 33 OFFCURVE",
"494 50 OFFCURVE",
"421 61 CURVE",
"443 96 OFFCURVE",
"455 146 OFFCURVE",
"455 214 CURVE SMOOTH",
"455 650 LINE",
"334 650 LINE SMOOTH",
"153 650 OFFCURVE",
"41 538 OFFCURVE",
"41 399 CURVE SMOOTH",
"41 364 OFFCURVE",
"48 326 OFFCURVE",
"63 289 CURVE",
"137 309 LINE",
"125 339 OFFCURVE",
"120 368 OFFCURVE",
"120 397 CURVE SMOOTH",
"120 500 OFFCURVE",
"195 586 OFFCURVE",
"334 586 CURVE",
"322 563 OFFCURVE",
"316 535 OFFCURVE",
"316 500 CURVE SMOOTH",
"316 214 LINE SMOOTH",
"316 109 OFFCURVE",
"297 72 OFFCURVE",
"263 62 CURVE",
"242 60 LINE",
"244 37 OFFCURVE",
"247 12 OFFCURVE",
"250 -11 CURVE",
"282 -11 OFFCURVE",
"312 -7 OFFCURVE",
"337 0 CURVE",
"342 0 LINE SMOOTH",
"394 0 OFFCURVE",
"549 -43 OFFCURVE",
"642 -43 CURVE SMOOTH"
);
}
);
width = 719;
}
);
note = L.swsh;
},
{
glyphname = M.swsh;
lastChange = "2016-09-20 13:00:14 +0000";
layers = (
{
layerId = "28637767-9EF2-44E2-B459-E4A39AD280E7";
paths = (
{
closed = 1;
nodes = (
"380 -86 OFFCURVE",
"442 -17 OFFCURVE",
"442 149 CURVE SMOOTH",
"443 557 LINE",
"444 557 LINE",
"665 0 LINE",
"726 0 LINE",
"956 557 LINE",
"957 557 LINE",
"960 0 LINE",
"1034 0 LINE",
"1031 650 LINE",
"943 650 LINE",
"709 93 LINE",
"490 632 LINE",
"485 660 LINE",
"470 654 OFFCURVE",
"450 651 OFFCURVE",
"417 650 CURVE SMOOTH",
"399 650 LINE SMOOTH",
"169 649 OFFCURVE",
"41 564 OFFCURVE",
"41 427 CURVE SMOOTH",
"41 391 OFFCURVE",
"50 351 OFFCURVE",
"68 308 CURVE",
"116 322 LINE",
"101 359 OFFCURVE",
"93 392 OFFCURVE",
"93 423 CURVE SMOOTH",
"93 534 OFFCURVE",
"193 601 OFFCURVE",
"388 606 CURVE",
"385 149 LINE SMOOTH",
"384 20 OFFCURVE",
"351 -42 OFFCURVE",
"311 -58 CURVE",
"320 -105 LINE"
);
}
);
width = 1128;
},
{
layerId = "85DC84FC-A9CD-42A1-AFE4-850615EB4B70";
paths = (
{
closed = 1;
nodes = (
"385 -106 OFFCURVE",
"459 -53 OFFCURVE",
"461 130 CURVE SMOOTH",
"464 492 LINE",
"469 492 LINE",
"641 0 LINE",
"744 0 LINE",
"933 492 LINE",
"936 492 LINE",
"944 0 LINE",
"1079 0 LINE",
"1071 650 LINE",
"917 650 LINE",
"728 171 LINE",
"724 171 LINE",
"560 624 LINE",
"553 665 LINE",
"523 654 OFFCURVE",
"472 651 OFFCURVE",
"406 650 CURVE SMOOTH",
"169 648 OFFCURVE",
"41 533 OFFCURVE",
"41 391 CURVE SMOOTH",
"41 358 OFFCURVE",
"48 324 OFFCURVE",
"62 289 CURVE",
"136 309 LINE",
"126 335 OFFCURVE",
"120 361 OFFCURVE",
"120 386 CURVE SMOOTH",
"120 486 OFFCURVE",
"204 570 OFFCURVE",
"381 584 CURVE",
"373 130 LINE SMOOTH",
"373 5 OFFCURVE",
"341 -38 OFFCURVE",
"306 -50 CURVE",
"319 -122 LINE"
);
}
);
width = 1156;
}
);
note = M.swsh;
},
{
glyphname = N.swsh;
lastChange = "2016-09-20 13:00:14 +0000";
layers = (
{
layerId = "28637767-9EF2-44E2-B459-E4A39AD280E7";
paths = (
{
closed = 1;
nodes = (
"380 -86 OFFCURVE",
"442 -17 OFFCURVE",
"442 149 CURVE SMOOTH",
"443 546 LINE",
"784 0 LINE",
"850 0 LINE",
"850 650 LINE",
"795 650 LINE",
"795 138 LINE",
"798 114 LINE",
"480 627 LINE",
"471 660 LINE",
"455 654 OFFCURVE",
"431 650 OFFCURVE",
"399 650 CURVE SMOOTH",
"169 649 OFFCURVE",
"41 564 OFFCURVE",
"41 427 CURVE SMOOTH",
"41 391 OFFCURVE",
"50 351 OFFCURVE",
"68 308 CURVE",
"116 322 LINE",
"101 359 OFFCURVE",
"93 392 OFFCURVE",
"93 423 CURVE SMOOTH",
"93 534 OFFCURVE",
"193 601 OFFCURVE",
"388 606 CURVE",
"385 149 LINE SMOOTH",
"384 20 OFFCURVE",
"351 -42 OFFCURVE",
"311 -58 CURVE",
"320 -105 LINE"
);
}
);
width = 944;
},
{
layerId = "85DC84FC-A9CD-42A1-AFE4-850615EB4B70";
paths = (
{
closed = 1;
nodes = (
"385 -106 OFFCURVE",
"460 -53 OFFCURVE",
"461 130 CURVE SMOOTH",
"463 477 LINE",
"765 0 LINE",
"873 0 LINE",
"873 650 LINE",
"788 650 LINE",
"788 254 LINE",
"795 209 LINE",
"793 209 LINE",
"540 617 LINE",
"527 665 LINE",
"497 655 OFFCURVE",
"455 650 OFFCURVE",
"406 650 CURVE SMOOTH",
"169 648 OFFCURVE",
"41 533 OFFCURVE",
"41 391 CURVE SMOOTH",
"41 358 OFFCURVE",
"48 324 OFFCURVE",
"62 289 CURVE",
"136 309 LINE",
"126 335 OFFCURVE",
"120 361 OFFCURVE",
"120 386 CURVE SMOOTH",
"120 486 OFFCURVE",
"204 570 OFFCURVE",
"381 584 CURVE",
"373 130 LINE SMOOTH",
"373 5 OFFCURVE",
"341 -38 OFFCURVE",
"306 -50 CURVE",
"319 -122 LINE"
);
}
);
width = 950;
}
);
note = N.swsh;
},
{
glyphname = O.swsh;
lastChange = "2016-09-20 13:00:14 +0000";
layers = (
{
layerId = "28637767-9EF2-44E2-B459-E4A39AD280E7";
paths = (
{
closed = 1;
nodes = (
"519 -10 OFFCURVE",
"622 128 OFFCURVE",
"622 323 CURVE SMOOTH",
"622 521 OFFCURVE",
"511 659 OFFCURVE",
"346 659 CURVE SMOOTH",
"206 659 OFFCURVE",
"138 574 OFFCURVE",
"138 484 CURVE SMOOTH",
"138 461 OFFCURVE",
"142 442 OFFCURVE",
"148 425 CURVE",
"124 409 OFFCURVE",
"63 356 OFFCURVE",
"63 255 CURVE SMOOTH",
"63 113 OFFCURVE",
"167 -10 OFFCURVE",
"338 -10 CURVE SMOOTH"
);
},
{
closed = 1;
nodes = (
"222 40 OFFCURVE",
"139 130 OFFCURVE",
"139 257 CURVE SMOOTH",
"139 314 OFFCURVE",
"162 351 OFFCURVE",
"182 372 CURVE",
"201 353 OFFCURVE",
"223 338 OFFCURVE",
"245 328 CURVE",
"281 348 LINE",
"242 367 OFFCURVE",
"188 404 OFFCURVE",
"188 481 CURVE SMOOTH",
"188 541 OFFCURVE",
"237 609 OFFCURVE",
"343 609 CURVE SMOOTH",
"461 609 OFFCURVE",
"541 507 OFFCURVE",
"541 325 CURVE SMOOTH",
"541 145 OFFCURVE",
"461 40 OFFCURVE",
"339 40 CURVE SMOOTH"
);
}
);
width = 674;
},
{
layerId = "85DC84FC-A9CD-42A1-AFE4-850615EB4B70";
paths = (
{
closed = 1;
nodes = (
"538 -11 OFFCURVE",
"645 136 OFFCURVE",
"645 327 CURVE SMOOTH",
"645 523 OFFCURVE",
"527 660 OFFCURVE",
"347 660 CURVE SMOOTH",
"205 660 OFFCURVE",
"123 574 OFFCURVE",
"123 470 CURVE SMOOTH",
"123 455 OFFCURVE",
"125 442 OFFCURVE",
"128 429 CURVE",
"99 412 OFFCURVE",
"45 358 OFFCURVE",
"45 263 CURVE SMOOTH",
"45 119 OFFCURVE",
"141 -11 OFFCURVE",
"335 -11 CURVE SMOOTH"
);
},
{
closed = 1;
nodes = (
"247 64 OFFCURVE",
"182 136 OFFCURVE",
"182 259 CURVE SMOOTH",
"182 294 OFFCURVE",
"189 319 OFFCURVE",
"199 337 CURVE",
"209 330 OFFCURVE",
"220 324 OFFCURVE",
"231 319 CURVE",
"285 352 LINE",
"245 372 OFFCURVE",
"202 400 OFFCURVE",
"202 466 CURVE SMOOTH",
"202 526 OFFCURVE",
"252 585 OFFCURVE",
"339 585 CURVE SMOOTH",
"433 585 OFFCURVE",
"493 516 OFFCURVE",
"493 333 CURVE SMOOTH",
"493 148 OFFCURVE",
"431 64 OFFCURVE",
"336 64 CURVE SMOOTH"
);
}
);
width = 683;
}
);
note = O.swsh;
},
{
glyphname = P.swsh;
lastChange = "2016-09-20 13:00:14 +0000";
layers = (
{
layerId = "28637767-9EF2-44E2-B459-E4A39AD280E7";
paths = (
{
closed = 1;
nodes = (
"355 0 LINE",
"358 55 OFFCURVE",
"359 137 OFFCURVE",
"360 228 CURVE",
"444 228 LINE SMOOTH",
"544 228 OFFCURVE",
"654 282 OFFCURVE",
"654 444 CURVE SMOOTH",
"654 582 OFFCURVE",
"574 650 OFFCURVE",
"443 650 CURVE SMOOTH",
"362 650 LINE",
"363 672 OFFCURVE",
"365 692 OFFCURVE",
"368 710 CURVE",
"310 715 LINE",
"300 704 OFFCURVE",
"294 681 OFFCURVE",
"290 650 CURVE",
"287 650 LINE SMOOTH",
"146 650 OFFCURVE",
"41 571 OFFCURVE",
"41 472 CURVE SMOOTH",
"41 436 OFFCURVE",
"55 398 OFFCURVE",
"86 359 CURVE",
"128 379 LINE",
"104 410 OFFCURVE",
"93 440 OFFCURVE",
"93 469 CURVE SMOOTH",
"93 546 OFFCURVE",
"172 607 OFFCURVE",
"287 607 CURVE",
"287 562 LINE SMOOTH",
"287 316 OFFCURVE",
"287 127 OFFCURVE",
"281 0 CURVE"
);
},
{
closed = 1;
nodes = (
"362 366 OFFCURVE",
"362 469 OFFCURVE",
"362 562 CURVE SMOOTH",
"362 606 LINE",
"434 606 LINE SMOOTH",
"521 606 OFFCURVE",
"574 557 OFFCURVE",
"574 441 CURVE SMOOTH",
"574 308 OFFCURVE",
"510 270 OFFCURVE",
"434 270 CURVE SMOOTH",
"361 270 LINE"
);
}
);
width = 688;
},
{
layerId = "85DC84FC-A9CD-42A1-AFE4-850615EB4B70";
paths = (
{
closed = 1;
nodes = (
"421 0 LINE",
"426 43 OFFCURVE",
"430 112 OFFCURVE",
"433 203 CURVE",
"500 203 LINE SMOOTH",
"605 203 OFFCURVE",
"731 264 OFFCURVE",
"731 430 CURVE SMOOTH",
"731 579 OFFCURVE",
"641 650 OFFCURVE",
"497 650 CURVE SMOOTH",
"438 650 LINE",
"440 669 OFFCURVE",
"443 687 OFFCURVE",
"448 709 CURVE",
"342 723 LINE",
"323 711 OFFCURVE",
"311 686 OFFCURVE",
"305 650 CURVE",
"298 650 LINE SMOOTH",
"155 650 OFFCURVE",
"41 570 OFFCURVE",
"41 464 CURVE SMOOTH",
"41 425 OFFCURVE",
"56 382 OFFCURVE",
"92 338 CURVE",
"155 369 LINE",
"132 400 OFFCURVE",
"121 430 OFFCURVE",
"121 458 CURVE SMOOTH",
"121 531 OFFCURVE",
"194 586 OFFCURVE",
"298 586 CURVE SMOOTH",
"299 586 LINE",
"298 572 OFFCURVE",
"298 557 OFFCURVE",
"298 542 CURVE SMOOTH",
"298 211 OFFCURVE",
"298 98 OFFCURVE",
"286 0 CURVE"
);
},
{
closed = 1;
nodes = (
"435 346 OFFCURVE",
"436 438 OFFCURVE",
"436 541 CURVE SMOOTH",
"436 585 LINE",
"484 585 LINE SMOOTH",
"547 585 OFFCURVE",
"582 547 OFFCURVE",
"582 424 CURVE SMOOTH",
"582 300 OFFCURVE",
"546 267 OFFCURVE",
"484 267 CURVE SMOOTH",
"434 267 LINE"
);
}
);
width = 754;
}
);
note = P.swsh;
},
{
glyphname = Q.swsh;
lastChange = "2016-09-20 13:00:14 +0000";
layers = (
{
layerId = "28637767-9EF2-44E2-B459-E4A39AD280E7";
paths = (
{
closed = 1;
nodes = (
"564 -188 OFFCURVE",
"618 -162 OFFCURVE",
"618 -68 CURVE SMOOTH",
"618 -63 LINE",
"575 -57 LINE",
"575 -124 OFFCURVE",
"537 -142 OFFCURVE",
"507 -142 CURVE SMOOTH",
"444 -142 OFFCURVE",
"402 -69 OFFCURVE",
"351 -5 CURVE",
"497 20 OFFCURVE",
"580 149 OFFCURVE",
"580 323 CURVE SMOOTH",
"580 521 OFFCURVE",
"469 659 OFFCURVE",
"304 659 CURVE SMOOTH",
"167 659 OFFCURVE",
"63 560 OFFCURVE",
"63 419 CURVE SMOOTH",
"63 276 OFFCURVE",
"149 231 OFFCURVE",
"194 213 CURVE",
"227 237 LINE",
"188 254 OFFCURVE",
"114 295 OFFCURVE",
"114 414 CURVE SMOOTH",
"114 526 OFFCURVE",
"194 609 OFFCURVE",
"300 609 CURVE SMOOTH",
"418 609 OFFCURVE",
"499 507 OFFCURVE",
"499 325 CURVE SMOOTH",
"499 153 OFFCURVE",
"425 50 OFFCURVE",
"309 41 CURVE",
"278 70 OFFCURVE",
"241 91 OFFCURVE",
"195 91 CURVE SMOOTH",
"162 91 OFFCURVE",
"138 82 OFFCURVE",
"135 81 CURVE",
"130 34 LINE",
"134 33 OFFCURVE",
"206 -5 OFFCURVE",
"282 -9 CURVE",
"341 -78 OFFCURVE",
"393 -188 OFFCURVE",
"510 -188 CURVE SMOOTH"
);
}
);
width = 631;
},
{
layerId = "85DC84FC-A9CD-42A1-AFE4-850615EB4B70";
paths = (
{
closed = 1;
nodes = (
"572 -203 OFFCURVE",
"633 -172 OFFCURVE",
"633 -71 CURVE SMOOTH",
"633 -64 LINE",
"567 -56 LINE",
"568 -116 OFFCURVE",
"531 -132 OFFCURVE",
"505 -132 CURVE SMOOTH",
"450 -132 OFFCURVE",
"411 -67 OFFCURVE",
"362 -5 CURVE",
"519 25 OFFCURVE",
"602 159 OFFCURVE",
"602 327 CURVE SMOOTH",
"602 523 OFFCURVE",
"484 660 OFFCURVE",
"304 660 CURVE SMOOTH",
"167 660 OFFCURVE",
"45 564 OFFCURVE",
"45 404 CURVE SMOOTH",
"45 266 OFFCURVE",
"128 215 OFFCURVE",
"178 196 CURVE",
"228 232 LINE",
"187 250 OFFCURVE",
"124 292 OFFCURVE",
"124 398 CURVE SMOOTH",
"124 512 OFFCURVE",
"209 585 OFFCURVE",
"296 585 CURVE SMOOTH",
"390 585 OFFCURVE",
"450 516 OFFCURVE",
"450 333 CURVE SMOOTH",
"450 155 OFFCURVE",
"393 71 OFFCURVE",
"298 64 CURVE",
"265 91 OFFCURVE",
"227 110 OFFCURVE",
"180 110 CURVE SMOOTH",
"153 110 OFFCURVE",
"127 101 OFFCURVE",
"117 97 CURVE",
"109 28 LINE",
"117 26 OFFCURVE",
"183 2 OFFCURVE",
"249 -7 CURVE",
"308 -78 OFFCURVE",
"364 -203 OFFCURVE",
"508 -203 CURVE SMOOTH"
);
}
);
width = 640;
}
);
note = Q.swsh;
},
{
glyphname = R.swsh;
lastChange = "2016-09-20 13:00:14 +0000";
layers = (
{
layerId = "28637767-9EF2-44E2-B459-E4A39AD280E7";
paths = (
{
closed = 1;
nodes = (
"888 -87 OFFCURVE",
"911 -65 OFFCURVE",
"911 -65 CURVE",
"902 -31 LINE",
"902 -31 OFFCURVE",
"885 -45 OFFCURVE",
"859 -45 CURVE SMOOTH",
"814 -45 OFFCURVE",
"757 -5 OFFCURVE",
"706 62 CURVE SMOOTH",
"530 285 LINE",
"598 315 OFFCURVE",
"654 384 OFFCURVE",
"654 479 CURVE SMOOTH",
"654 585 OFFCURVE",
"575 650 OFFCURVE",
"443 650 CURVE SMOOTH",
"362 650 LINE",
"363 672 OFFCURVE",
"365 692 OFFCURVE",
"368 710 CURVE",
"310 715 LINE",
"300 704 OFFCURVE",
"294 681 OFFCURVE",
"290 650 CURVE",
"287 650 LINE SMOOTH",
"146 650 OFFCURVE",
"41 571 OFFCURVE",
"41 472 CURVE SMOOTH",
"41 436 OFFCURVE",
"55 398 OFFCURVE",
"86 359 CURVE",
"128 379 LINE",
"104 410 OFFCURVE",
"93 440 OFFCURVE",
"93 469 CURVE SMOOTH",
"93 546 OFFCURVE",
"172 607 OFFCURVE",
"287 607 CURVE",
"287 562 LINE SMOOTH",
"287 316 OFFCURVE",
"287 127 OFFCURVE",
"281 0 CURVE",
"355 0 LINE",
"358 63 OFFCURVE",
"360 161 OFFCURVE",
"361 269 CURVE",
"451 269 LINE",
"639 31 LINE SMOOTH",
"698 -47 OFFCURVE",
"765 -87 OFFCURVE",
"838 -87 CURVE SMOOTH"
);
},
{
closed = 1;
nodes = (
"362 396 OFFCURVE",
"362 483 OFFCURVE",
"362 562 CURVE SMOOTH",
"362 606 LINE",
"434 606 LINE SMOOTH",
"522 606 OFFCURVE",
"574 561 OFFCURVE",
"574 475 CURVE SMOOTH",
"574 374 OFFCURVE",
"522 314 OFFCURVE",
"443 314 CURVE SMOOTH",
"361 314 LINE"
);
}
);
width = 776;
},
{
layerId = "85DC84FC-A9CD-42A1-AFE4-850615EB4B70";
paths = (
{
closed = 1;
nodes = (
"958 -111 OFFCURVE",
"991 -81 OFFCURVE",
"991 -81 CURVE",
"977 -32 LINE",
"977 -32 OFFCURVE",
"959 -45 OFFCURVE",
"930 -45 CURVE SMOOTH",
"889 -45 OFFCURVE",
"830 4 OFFCURVE",
"768 88 CURVE SMOOTH",
"617 293 LINE",
"680 328 OFFCURVE",
"732 391 OFFCURVE",
"732 473 CURVE SMOOTH",
"732 588 OFFCURVE",
"643 650 OFFCURVE",
"498 650 CURVE SMOOTH",
"438 650 LINE",
"440 669 OFFCURVE",
"443 687 OFFCURVE",
"448 709 CURVE",
"342 723 LINE",
"323 711 OFFCURVE",
"311 686 OFFCURVE",
"305 650 CURVE",
"298 650 LINE SMOOTH",
"155 650 OFFCURVE",
"41 570 OFFCURVE",
"41 464 CURVE SMOOTH",
"41 425 OFFCURVE",
"56 382 OFFCURVE",
"92 338 CURVE",
"155 369 LINE",
"132 400 OFFCURVE",
"121 430 OFFCURVE",
"121 458 CURVE SMOOTH",
"121 531 OFFCURVE",
"194 586 OFFCURVE",
"298 586 CURVE SMOOTH",
"299 586 LINE",
"298 572 OFFCURVE",
"298 557 OFFCURVE",
"298 542 CURVE SMOOTH",
"298 211 OFFCURVE",
"298 98 OFFCURVE",
"286 0 CURVE",
"421 0 LINE",
"427 52 OFFCURVE",
"432 141 OFFCURVE",
"434 262 CURVE",
"479 262 LINE",
"646 35 LINE SMOOTH",
"717 -62 OFFCURVE",
"796 -111 OFFCURVE",
"890 -111 CURVE SMOOTH"
);
},
{
closed = 1;
nodes = (
"436 393 OFFCURVE",
"436 464 OFFCURVE",
"436 541 CURVE SMOOTH",
"436 585 LINE",
"484 585 LINE SMOOTH",
"549 585 OFFCURVE",
"583 554 OFFCURVE",
"583 467 CURVE SMOOTH",
"583 378 OFFCURVE",
"551 329 OFFCURVE",
"487 329 CURVE SMOOTH",
"435 329 LINE"
);
}
);
width = 846;
}
);
note = R.swsh;
},
{
glyphname = S.swsh;
lastChange = "2016-09-20 13:00:14 +0000";
layers = (
{
layerId = "28637767-9EF2-44E2-B459-E4A39AD280E7";
paths = (
{
closed = 1;
nodes = (
"380 -109 OFFCURVE",
"467 -32 OFFCURVE",
"467 100 CURVE SMOOTH",
"467 321 OFFCURVE",
"159 308 OFFCURVE",
"159 478 CURVE SMOOTH",
"159 567 OFFCURVE",
"205 613 OFFCURVE",
"281 613 CURVE SMOOTH",
"358 613 OFFCURVE",
"409 562 OFFCURVE",
"409 505 CURVE SMOOTH",
"409 478 OFFCURVE",
"398 450 OFFCURVE",
"374 425 CURVE",
"412 406 LINE",
"444 438 OFFCURVE",
"458 475 OFFCURVE",
"458 511 CURVE SMOOTH",
"458 588 OFFCURVE",
"390 659 OFFCURVE",
"278 659 CURVE SMOOTH",
"159 659 OFFCURVE",
"84 592 OFFCURVE",
"84 458 CURVE SMOOTH",
"84 248 OFFCURVE",
"392 255 OFFCURVE",
"392 87 CURVE SMOOTH",
"392 1 OFFCURVE",
"339 -61 OFFCURVE",
"248 -61 CURVE SMOOTH",
"151 -61 OFFCURVE",
"99 -1 OFFCURVE",
"99 62 CURVE SMOOTH",
"99 94 OFFCURVE",
"112 126 OFFCURVE",
"139 153 CURVE",
"101 170 LINE",
"68 136 OFFCURVE",
"51 94 OFFCURVE",
"51 52 CURVE SMOOTH",
"51 -30 OFFCURVE",
"117 -109 OFFCURVE",
"255 -109 CURVE SMOOTH"
);
}
);
width = 510;
},
{
layerId = "85DC84FC-A9CD-42A1-AFE4-850615EB4B70";
paths = (
{
closed = 1;
nodes = (
"379 -110 OFFCURVE",
"485 -40 OFFCURVE",
"485 109 CURVE SMOOTH",
"485 325 OFFCURVE",
"204 345 OFFCURVE",
"204 488 CURVE SMOOTH",
"204 556 OFFCURVE",
"238 590 OFFCURVE",
"293 590 CURVE SMOOTH",
"363 590 OFFCURVE",
"403 545 OFFCURVE",
"403 496 CURVE SMOOTH",
"403 473 OFFCURVE",
"394 449 OFFCURVE",
"376 429 CURVE",
"436 401 LINE",
"465 431 OFFCURVE",
"478 466 OFFCURVE",
"478 502 CURVE SMOOTH",
"478 582 OFFCURVE",
"409 660 OFFCURVE",
"285 660 CURVE SMOOTH",
"156 660 OFFCURVE",
"68 589 OFFCURVE",
"68 442 CURVE SMOOTH",
"68 235 OFFCURVE",
"345 204 OFFCURVE",
"345 74 CURVE SMOOTH",
"345 9 OFFCURVE",
"309 -37 OFFCURVE",
"237 -37 CURVE SMOOTH",
"158 -37 OFFCURVE",
"119 14 OFFCURVE",
"119 67 CURVE SMOOTH",
"119 96 OFFCURVE",
"130 125 OFFCURVE",
"153 147 CURVE",
"93 172 LINE",
"61 139 OFFCURVE",
"44 95 OFFCURVE",
"44 52 CURVE SMOOTH",
"44 -30 OFFCURVE",
"108 -110 OFFCURVE",
"257 -110 CURVE SMOOTH"
);
}
);
width = 512;
}
);
note = S.swsh;
},
{
glyphname = T.swsh;
lastChange = "2016-09-20 13:00:14 +0000";
layers = (
{
layerId = "28637767-9EF2-44E2-B459-E4A39AD280E7";
paths = (
{
closed = 1;
nodes = (
"342 0 LINE",
"342 597 LINE",
"386 584 OFFCURVE",
"430 573 OFFCURVE",
"467 573 CURVE SMOOTH",
"524 573 OFFCURVE",
"564 599 OFFCURVE",
"564 684 CURVE SMOOTH",
"564 690 LINE",
"521 697 LINE",
"522 635 OFFCURVE",
"491 616 OFFCURVE",
"446 616 CURVE SMOOTH",
"416 616 OFFCURVE",
"380 624 OFFCURVE",
"342 635 CURVE",
"342 639 LINE",
"338 639 OFFCURVE",
"335 639 OFFCURVE",
"332 638 CURVE",
"265 658 OFFCURVE",
"193 683 OFFCURVE",
"137 683 CURVE SMOOTH",
"79 683 OFFCURVE",
"40 656 OFFCURVE",
"40 571 CURVE SMOOTH",
"40 565 LINE",
"83 562 LINE",
"82 622 OFFCURVE",
"111 642 OFFCURVE",
"155 642 CURVE SMOOTH",
"191 642 OFFCURVE",
"237 629 OFFCURVE",
"285 615 CURVE",
"273 601 OFFCURVE",
"266 582 OFFCURVE",
"266 558 CURVE SMOOTH",
"266 0 LINE"
);
}
);
width = 535;
},
{
layerId = "85DC84FC-A9CD-42A1-AFE4-850615EB4B70";
paths = (
{
closed = 1;
nodes = (
"396 0 LINE",
"396 570 LINE",
"429 563 OFFCURVE",
"461 558 OFFCURVE",
"489 558 CURVE SMOOTH",
"557 558 OFFCURVE",
"606 587 OFFCURVE",
"606 690 CURVE SMOOTH",
"606 699 LINE",
"541 709 LINE",
"542 645 OFFCURVE",
"509 625 OFFCURVE",
"459 625 CURVE SMOOTH",
"378 625 OFFCURVE",
"252 678 OFFCURVE",
"160 678 CURVE SMOOTH",
"91 678 OFFCURVE",
"41 648 OFFCURVE",
"41 544 CURVE SMOOTH",
"41 535 LINE",
"106 532 LINE",
"106 537 LINE SMOOTH",
"106 596 OFFCURVE",
"137 614 OFFCURVE",
"184 614 CURVE SMOOTH",
"216 614 OFFCURVE",
"256 606 OFFCURVE",
"297 595 CURVE",
"272 571 OFFCURVE",
"258 533 OFFCURVE",
"258 482 CURVE SMOOTH",
"258 0 LINE"
);
}
);
width = 585;
}
);
note = T.swsh;
},
{
glyphname = U.swsh;
lastChange = "2016-09-20 13:00:14 +0000";
layers = (
{
layerId = "28637767-9EF2-44E2-B459-E4A39AD280E7";
paths = (
{
closed = 1;
nodes = (
"694 -10 OFFCURVE",
"762 83 OFFCURVE",
"762 212 CURVE SMOOTH",
"762 650 LINE",
"707 650 LINE",
"707 229 LINE SMOOTH",
"707 112 OFFCURVE",
"653 41 OFFCURVE",
"546 41 CURVE SMOOTH",
"443 41 OFFCURVE",
"389 109 OFFCURVE",
"389 229 CURVE SMOOTH",
"389 650 LINE",
"321 650 LINE SMOOTH",
"156 650 OFFCURVE",
"41 566 OFFCURVE",
"41 431 CURVE SMOOTH",
"41 394 OFFCURVE",
"49 352 OFFCURVE",
"68 308 CURVE",
"117 322 LINE",
"101 361 OFFCURVE",
"93 397 OFFCURVE",
"93 429 CURVE SMOOTH",
"93 540 OFFCURVE",
"184 607 OFFCURVE",
"321 607 CURVE",
"316 596 OFFCURVE",
"314 583 OFFCURVE",
"314 569 CURVE SMOOTH",
"314 212 LINE SMOOTH",
"314 81 OFFCURVE",
"387 -10 OFFCURVE",
"538 -10 CURVE SMOOTH"
);
}
);
width = 848;
},
{
layerId = "85DC84FC-A9CD-42A1-AFE4-850615EB4B70";
paths = (
{
closed = 1;
nodes = (
"731 -11 OFFCURVE",
"793 88 OFFCURVE",
"793 236 CURVE SMOOTH",
"793 650 LINE",
"708 650 LINE",
"708 267 LINE SMOOTH",
"708 129 OFFCURVE",
"667 65 OFFCURVE",
"577 65 CURVE SMOOTH",
"497 65 OFFCURVE",
"457 118 OFFCURVE",
"455 256 CURVE",
"455 650 LINE",
"334 650 LINE SMOOTH",
"153 650 OFFCURVE",
"41 538 OFFCURVE",
"41 399 CURVE SMOOTH",
"41 364 OFFCURVE",
"48 326 OFFCURVE",
"63 289 CURVE",
"137 309 LINE",
"125 339 OFFCURVE",
"120 368 OFFCURVE",
"120 397 CURVE SMOOTH",
"120 500 OFFCURVE",
"195 586 OFFCURVE",
"334 586 CURVE",
"322 563 OFFCURVE",
"316 535 OFFCURVE",
"316 500 CURVE SMOOTH",
"316 236 LINE",
"317 236 LINE",
"317 84 OFFCURVE",
"394 -11 OFFCURVE",
"555 -11 CURVE SMOOTH"
);
}
);
width = 862;
}
);
note = U.swsh;
},
{
glyphname = V.swsh;
lastChange = "2016-09-20 13:00:14 +0000";
layers = (
{
layerId = "28637767-9EF2-44E2-B459-E4A39AD280E7";
paths = (
{
closed = 1;
nodes = (
"605 0 LINE",
"821 650 LINE",
"765 650 LINE",
"573 56 LINE",
"389 633 LINE",
"385 660 LINE",
"371 654 OFFCURVE",
"343 650 OFFCURVE",
"320 650 CURVE SMOOTH",
"158 649 OFFCURVE",
"41 565 OFFCURVE",
"41 429 CURVE SMOOTH",
"41 392 OFFCURVE",
"50 352 OFFCURVE",
"68 308 CURVE",
"116 322 LINE",
"100 361 OFFCURVE",
"92 396 OFFCURVE",
"92 428 CURVE SMOOTH",
"92 536 OFFCURVE",
"180 601 OFFCURVE",
"318 606 CURVE",
"517 0 LINE"
);
}
);
width = 838;
},
{
layerId = "85DC84FC-A9CD-42A1-AFE4-850615EB4B70";
paths = (
{
closed = 1;
nodes = (
"654 0 LINE",
"863 650 LINE",
"777 650 LINE",
"609 101 LINE",
"606 101 LINE",
"459 623 LINE",
"452 665 LINE",
"425 655 OFFCURVE",
"377 650 OFFCURVE",
"343 650 CURVE SMOOTH",
"166 648 OFFCURVE",
"41 533 OFFCURVE",
"41 391 CURVE SMOOTH",
"41 358 OFFCURVE",
"48 324 OFFCURVE",
"62 289 CURVE",
"135 309 LINE",
"124 336 OFFCURVE",
"119 363 OFFCURVE",
"119 389 CURVE SMOOTH",
"119 486 OFFCURVE",
"193 567 OFFCURVE",
"326 583 CURVE",
"501 0 LINE"
);
}
);
width = 873;
}
);
note = V.swsh;
},
{
glyphname = W.swsh;
lastChange = "2016-09-20 13:00:14 +0000";
layers = (
{
layerId = "28637767-9EF2-44E2-B459-E4A39AD280E7";
paths = (
{
closed = 1;
nodes = (
"554 0 LINE",
"714 556 LINE",
"876 0 LINE",
"946 0 LINE",
"1121 650 LINE",
"1065 650 LINE",
"921 88 LINE",
"759 650 LINE",
"693 650 LINE",
"533 89 LINE",
"388 639 LINE",
"385 660 LINE",
"371 654 OFFCURVE",
"343 650 OFFCURVE",
"320 650 CURVE SMOOTH",
"158 649 OFFCURVE",
"41 565 OFFCURVE",
"41 429 CURVE SMOOTH",
"41 392 OFFCURVE",
"50 352 OFFCURVE",
"68 308 CURVE",
"116 322 LINE",
"100 361 OFFCURVE",
"92 396 OFFCURVE",
"92 428 CURVE SMOOTH",
"92 535 OFFCURVE",
"180 600 OFFCURVE",
"317 606 CURVE",
"484 0 LINE"
);
}
);
width = 1138;
},
{
layerId = "85DC84FC-A9CD-42A1-AFE4-850615EB4B70";
paths = (
{
closed = 1;
nodes = (
"599 0 LINE",
"733 480 LINE",
"735 480 LINE",
"872 0 LINE",
"990 0 LINE",
"1159 650 LINE",
"1072 650 LINE",
"959 161 LINE",
"956 161 LINE",
"819 650 LINE",
"708 650 LINE",
"575 158 LINE",
"573 158 LINE",
"456 638 LINE",
"452 665 LINE",
"426 655 OFFCURVE",
"377 650 OFFCURVE",
"343 650 CURVE SMOOTH",
"166 648 OFFCURVE",
"41 533 OFFCURVE",
"41 391 CURVE SMOOTH",
"41 358 OFFCURVE",
"48 324 OFFCURVE",
"62 289 CURVE",
"135 309 LINE",
"124 336 OFFCURVE",
"119 363 OFFCURVE",
"119 389 CURVE SMOOTH",
"119 485 OFFCURVE",
"192 566 OFFCURVE",
"323 583 CURVE",
"479 0 LINE"
);
}
);
width = 1169;
}
);
note = W.swsh;
},
{
glyphname = X.swsh;
lastChange = "2016-09-20 13:00:14 +0000";
layers = (
{
layerId = "28637767-9EF2-44E2-B459-E4A39AD280E7";
paths = (
{
closed = 1;
nodes = (
"922 -86 OFFCURVE",
"945 -65 OFFCURVE",
"945 -65 CURVE",
"936 -31 LINE",
"936 -31 OFFCURVE",
"919 -44 OFFCURVE",
"895 -44 CURVE SMOOTH",
"848 -44 OFFCURVE",
"811 -6 OFFCURVE",
"757 76 CURVE SMOOTH",
"576 342 LINE",
"768 650 LINE",
"705 650 LINE",
"547 388 LINE",
"387 634 LINE",
"380 660 LINE",
"366 654 OFFCURVE",
"343 650 OFFCURVE",
"320 650 CURVE SMOOTH",
"158 649 OFFCURVE",
"41 565 OFFCURVE",
"41 429 CURVE SMOOTH",
"41 392 OFFCURVE",
"50 352 OFFCURVE",
"68 308 CURVE",
"116 322 LINE",
"100 361 OFFCURVE",
"92 396 OFFCURVE",
"92 428 CURVE SMOOTH",
"92 534 OFFCURVE",
"177 599 OFFCURVE",
"313 606 CURVE",
"494 332 LINE",
"277 0 LINE",
"344 0 LINE",
"524 286 LINE",
"689 36 LINE",
"743 -54 OFFCURVE",
"799 -86 OFFCURVE",
"872 -86 CURVE SMOOTH"
);
}
);
width = 840;
},
{
layerId = "85DC84FC-A9CD-42A1-AFE4-850615EB4B70";
paths = (
{
closed = 1;
nodes = (
"947 -109 OFFCURVE",
"979 -79 OFFCURVE",
"979 -79 CURVE",
"966 -30 LINE",
"966 -30 OFFCURVE",
"947 -43 OFFCURVE",
"924 -43 CURVE SMOOTH",
"877 -43 OFFCURVE",
"831 13 OFFCURVE",
"769 115 CURVE SMOOTH",
"617 357 LINE",
"801 650 LINE",
"703 650 LINE",
"573 427 LINE",
"571 427 LINE",
"458 621 LINE",
"445 665 LINE",
"419 655 OFFCURVE",
"377 650 OFFCURVE",
"343 650 CURVE SMOOTH",
"166 648 OFFCURVE",
"41 533 OFFCURVE",
"41 391 CURVE SMOOTH",
"41 358 OFFCURVE",
"48 324 OFFCURVE",
"62 289 CURVE",
"135 309 LINE",
"124 336 OFFCURVE",
"119 362 OFFCURVE",
"119 388 CURVE SMOOTH",
"119 481 OFFCURVE",
"187 561 OFFCURVE",
"309 581 CURVE",
"469 326 LINE",
"259 0 LINE",
"363 0 LINE",
"515 254 LINE",
"517 254 LINE",
"642 40 LINE SMOOTH",
"704 -73 OFFCURVE",
"785 -109 OFFCURVE",
"879 -109 CURVE SMOOTH"
);
}
);
width = 872;
}
);
note = X.swsh;
},
{
glyphname = Y.swsh;
lastChange = "2016-09-20 13:00:14 +0000";
layers = (
{
layerId = "28637767-9EF2-44E2-B459-E4A39AD280E7";
paths = (
{
closed = 1;
nodes = (
"585 0 LINE",
"585 274 LINE",
"797 650 LINE",
"737 650 LINE",
"558 330 LINE",
"387 633 LINE",
"380 660 LINE",
"366 654 OFFCURVE",
"343 650 OFFCURVE",
"320 650 CURVE SMOOTH",
"158 649 OFFCURVE",
"41 565 OFFCURVE",
"41 429 CURVE SMOOTH",
"41 392 OFFCURVE",
"50 352 OFFCURVE",
"68 308 CURVE",
"116 322 LINE",
"100 361 OFFCURVE",
"92 396 OFFCURVE",
"92 428 CURVE SMOOTH",
"92 536 OFFCURVE",
"180 601 OFFCURVE",
"318 606 CURVE",
"509 269 LINE",
"509 0 LINE"
);
}
);
width = 799;
},
{
layerId = "85DC84FC-A9CD-42A1-AFE4-850615EB4B70";
paths = (
{
closed = 1;
nodes = (
"629 0 LINE",
"629 265 LINE",
"825 650 LINE",
"729 650 LINE",
"589 355 LINE",
"587 355 LINE",
"458 621 LINE",
"445 665 LINE",
"419 655 OFFCURVE",
"377 650 OFFCURVE",
"343 650 CURVE SMOOTH",
"166 648 OFFCURVE",
"41 533 OFFCURVE",
"41 391 CURVE SMOOTH",
"41 358 OFFCURVE",
"48 324 OFFCURVE",
"62 289 CURVE",
"135 309 LINE",
"124 336 OFFCURVE",
"119 363 OFFCURVE",
"119 389 CURVE SMOOTH",
"119 485 OFFCURVE",
"191 566 OFFCURVE",
"322 583 CURVE",
"491 251 LINE",
"491 0 LINE"
);
}
);
width = 819;
}
);
note = Y.swsh;
},
{
glyphname = Z.swsh;
lastChange = "2016-09-20 13:00:14 +0000";
layers = (
{
layerId = "28637767-9EF2-44E2-B459-E4A39AD280E7";
paths = (
{
closed = 1;
nodes = (
"509 -54 OFFCURVE",
"543 -7 OFFCURVE",
"543 85 CURVE SMOOTH",
"543 93 LINE",
"500 99 LINE",
"500 25 OFFCURVE",
"473 -5 OFFCURVE",
"427 -5 CURVE SMOOTH",
"361 -5 OFFCURVE",
"186 40 OFFCURVE",
"121 46 CURVE",
"271 204 OFFCURVE",
"395 424 OFFCURVE",
"505 609 CURVE",
"505 650 LINE",
"69 650 LINE",
"69 602 LINE",
"413 602 LINE",
"301 413 OFFCURVE",
"179 212 OFFCURVE",
"40 38 CURVE",
"46 -10 LINE",
"58 -6 OFFCURVE",
"94 0 OFFCURVE",
"111 0 CURVE SMOOTH",
"160 0 OFFCURVE",
"353 -54 OFFCURVE",
"431 -54 CURVE SMOOTH"
);
}
);
width = 547;
},
{
layerId = "85DC84FC-A9CD-42A1-AFE4-850615EB4B70";
paths = (
{
closed = 1;
nodes = (
"536 -43 OFFCURVE",
"581 20 OFFCURVE",
"581 122 CURVE SMOOTH",
"581 132 LINE",
"515 140 LINE",
"516 69 OFFCURVE",
"482 33 OFFCURVE",
"427 33 CURVE SMOOTH",
"372 33 OFFCURVE",
"256 52 OFFCURVE",
"182 63 CURVE",
"329 199 OFFCURVE",
"441 420 OFFCURVE",
"542 590 CURVE",
"542 650 LINE",
"80 650 LINE",
"80 578 LINE",
"376 578 LINE",
"273 404 OFFCURVE",
"168 226 OFFCURVE",
"42 60 CURVE",
"53 -11 LINE",
"67 -6 OFFCURVE",
"100 0 OFFCURVE",
"123 0 CURVE SMOOTH",
"156 0 OFFCURVE",
"344 -43 OFFCURVE",
"433 -43 CURVE SMOOTH"
);
}
);
width = 587;
}
);
note = Z.swsh;
},
{
glyphname = a;
lastChange = "2016-09-30 15:46:23 +0000";
layers = (
{
anchors = (
{
name = bottom;
position = "{239, 0}";
},
{
name = ogonek;
position = "{429, 10}";
},
{
name = top;
position = "{239, 500}";
}
);
layerId = "28637767-9EF2-44E2-B459-E4A39AD280E7";
paths = (
{
closed = 1;
nodes = (
"284 -10 OFFCURVE",
"320 65 OFFCURVE",
"320 65 CURVE",
"321 65 LINE",
"325 6 OFFCURVE",
"345 -10 OFFCURVE",
"378 -10 CURVE SMOOTH",
"407 -10 OFFCURVE",
"456 9 OFFCURVE",
"456 9 CURVE",
"453 43 LINE",
"453 43 OFFCURVE",
"429 34 OFFCURVE",
"414 34 CURVE SMOOTH",
"402 34 OFFCURVE",
"388 42 OFFCURVE",
"388 102 CURVE SMOOTH",
"388 347 LINE SMOOTH",
"388 472 OFFCURVE",
"332 510 OFFCURVE",
"222 510 CURVE SMOOTH",
"149 510 OFFCURVE",
"81 464 OFFCURVE",
"81 464 CURVE",
"89 423 LINE",
"89 423 OFFCURVE",
"153 466 OFFCURVE",
"211 466 CURVE SMOOTH",
"286 466 OFFCURVE",
"315 439 OFFCURVE",
"315 343 CURVE SMOOTH",
"315 290 LINE",
"211 279 OFFCURVE",
"32 248 OFFCURVE",
"32 113 CURVE SMOOTH",
"32 34 OFFCURVE",
"92 -10 OFFCURVE",
"178 -10 CURVE SMOOTH"
);
},
{
closed = 1;
nodes = (
"145 34 OFFCURVE",
"107 63 OFFCURVE",
"107 122 CURVE SMOOTH",
"107 215 OFFCURVE",
"217 242 OFFCURVE",
"315 253 CURVE",
"315 107 LINE",
"315 107 OFFCURVE",
"282 34 OFFCURVE",
"200 34 CURVE SMOOTH"
);
}
);
width = 477;
},
{
anchors = (
{
name = bottom;
position = "{257, 0}";
},
{
name = ogonek;
position = "{462, 10}";
},
{
name = top;
position = "{257, 500}";
}
);
layerId = "85DC84FC-A9CD-42A1-AFE4-850615EB4B70";
paths = (
{
closed = 1;
nodes = (
"284 -11 OFFCURVE",
"312 51 OFFCURVE",
"312 51 CURVE",
"317 51 LINE",
"324 7 OFFCURVE",
"344 -11 OFFCURVE",
"383 -11 CURVE SMOOTH",
"425 -11 OFFCURVE",
"494 11 OFFCURVE",
"494 11 CURVE",
"490 63 LINE",
"490 63 OFFCURVE",
"468 56 OFFCURVE",
"456 56 CURVE SMOOTH",
"446 56 OFFCURVE",
"435 67 OFFCURVE",
"435 109 CURVE SMOOTH",
"435 336 LINE SMOOTH",
"435 471 OFFCURVE",
"359 511 OFFCURVE",
"242 511 CURVE SMOOTH",
"164 511 OFFCURVE",
"87 471 OFFCURVE",
"87 471 CURVE",
"100 407 LINE",
"100 407 OFFCURVE",
"172 444 OFFCURVE",
"219 444 CURVE SMOOTH",
"277 444 OFFCURVE",
"302 418 OFFCURVE",
"302 325 CURVE SMOOTH",
"302 296 LINE",
"195 287 OFFCURVE",
"27 253 OFFCURVE",
"27 120 CURVE SMOOTH",
"27 38 OFFCURVE",
"89 -11 OFFCURVE",
"181 -11 CURVE SMOOTH"
);
},
{
closed = 1;
nodes = (
"190 56 OFFCURVE",
"166 82 OFFCURVE",
"166 137 CURVE SMOOTH",
"166 207 OFFCURVE",
"219 234 OFFCURVE",
"302 243 CURVE",
"302 111 LINE",
"302 111 OFFCURVE",
"280 56 OFFCURVE",
"225 56 CURVE SMOOTH"
);
}
);
width = 513;
}
);
note = a;
unicode = 0061;
},
{
glyphname = aacute;
lastChange = "2016-09-16 17:56:47 +0000";
layers = (
{
layerId = "28637767-9EF2-44E2-B459-E4A39AD280E7";
paths = (
{
closed = 1;
nodes = (
"284 -10 OFFCURVE",
"320 65 OFFCURVE",
"320 65 CURVE",
"321 65 LINE",
"325 6 OFFCURVE",
"345 -10 OFFCURVE",
"378 -10 CURVE SMOOTH",
"407 -10 OFFCURVE",
"456 9 OFFCURVE",
"456 9 CURVE",
"453 43 LINE",
"453 43 OFFCURVE",
"429 34 OFFCURVE",
"414 34 CURVE SMOOTH",
"402 34 OFFCURVE",
"388 42 OFFCURVE",
"388 102 CURVE SMOOTH",
"388 347 LINE SMOOTH",
"388 472 OFFCURVE",
"332 510 OFFCURVE",
"222 510 CURVE SMOOTH",
"149 510 OFFCURVE",
"81 464 OFFCURVE",
"81 464 CURVE",
"89 423 LINE",
"89 423 OFFCURVE",
"153 466 OFFCURVE",
"211 466 CURVE SMOOTH",
"286 466 OFFCURVE",
"315 439 OFFCURVE",
"315 343 CURVE SMOOTH",
"315 290 LINE",
"211 279 OFFCURVE",
"32 248 OFFCURVE",
"32 113 CURVE SMOOTH",
"32 34 OFFCURVE",
"92 -10 OFFCURVE",
"178 -10 CURVE SMOOTH"
);
},
{
closed = 1;
nodes = (
"145 34 OFFCURVE",
"107 63 OFFCURVE",
"107 122 CURVE SMOOTH",
"107 215 OFFCURVE",
"217 242 OFFCURVE",
"315 253 CURVE",
"315 107 LINE",
"315 107 OFFCURVE",
"282 34 OFFCURVE",
"200 34 CURVE SMOOTH"
);
},
{
closed = 1;
nodes = (
"340 706 LINE",
"277 721 LINE",
"200 576 LINE",
"238 571 LINE"
);
}
);
width = 477;
},
{
layerId = "85DC84FC-A9CD-42A1-AFE4-850615EB4B70";
paths = (
{
closed = 1;
nodes = (
"284 -11 OFFCURVE",
"312 51 OFFCURVE",
"312 51 CURVE",
"317 51 LINE",
"324 7 OFFCURVE",
"344 -11 OFFCURVE",
"383 -11 CURVE SMOOTH",
"425 -11 OFFCURVE",
"494 11 OFFCURVE",
"494 11 CURVE",
"490 63 LINE",
"490 63 OFFCURVE",
"468 56 OFFCURVE",
"456 56 CURVE SMOOTH",
"446 56 OFFCURVE",
"435 67 OFFCURVE",
"435 109 CURVE SMOOTH",
"435 336 LINE SMOOTH",
"435 471 OFFCURVE",
"359 511 OFFCURVE",
"242 511 CURVE SMOOTH",
"164 511 OFFCURVE",
"87 471 OFFCURVE",
"87 471 CURVE",
"100 407 LINE",
"100 407 OFFCURVE",
"172 444 OFFCURVE",
"219 444 CURVE SMOOTH",
"277 444 OFFCURVE",
"302 418 OFFCURVE",
"302 325 CURVE SMOOTH",
"302 296 LINE",
"195 287 OFFCURVE",
"27 253 OFFCURVE",
"27 120 CURVE SMOOTH",
"27 38 OFFCURVE",
"89 -11 OFFCURVE",
"181 -11 CURVE SMOOTH"
);
},
{
closed = 1;
nodes = (
"190 56 OFFCURVE",
"166 82 OFFCURVE",
"166 137 CURVE SMOOTH",
"166 207 OFFCURVE",
"219 234 OFFCURVE",
"302 243 CURVE",
"302 111 LINE",
"302 111 OFFCURVE",
"280 56 OFFCURVE",
"225 56 CURVE SMOOTH"
);
},
{
closed = 1;
nodes = (
"388 699 LINE",
"280 730 LINE",
"210 578 LINE",
"267 569 LINE"
);
}
);
width = 513;
}
);
note = aacute;
unicode = 00E1;
},
{
glyphname = abreve;
lastChange = "2016-09-16 17:56:47 +0000";
layers = (
{
layerId = "28637767-9EF2-44E2-B459-E4A39AD280E7";
paths = (
{
closed = 1;
nodes = (
"284 -10 OFFCURVE",
"320 65 OFFCURVE",
"320 65 CURVE",
"321 65 LINE",
"325 6 OFFCURVE",
"345 -10 OFFCURVE",
"378 -10 CURVE SMOOTH",
"407 -10 OFFCURVE",
"456 9 OFFCURVE",
"456 9 CURVE",
"453 43 LINE",
"453 43 OFFCURVE",
"429 34 OFFCURVE",
"414 34 CURVE SMOOTH",
"402 34 OFFCURVE",
"388 42 OFFCURVE",
"388 102 CURVE SMOOTH",
"388 347 LINE SMOOTH",
"388 472 OFFCURVE",
"332 510 OFFCURVE",
"222 510 CURVE SMOOTH",
"149 510 OFFCURVE",
"81 464 OFFCURVE",
"81 464 CURVE",
"89 423 LINE",
"89 423 OFFCURVE",
"153 466 OFFCURVE",
"211 466 CURVE SMOOTH",
"286 466 OFFCURVE",
"315 439 OFFCURVE",
"315 343 CURVE SMOOTH",
"315 290 LINE",
"211 279 OFFCURVE",
"32 248 OFFCURVE",
"32 113 CURVE SMOOTH",
"32 34 OFFCURVE",
"92 -10 OFFCURVE",
"178 -10 CURVE SMOOTH"
);
},
{
closed = 1;
nodes = (
"145 34 OFFCURVE",
"107 63 OFFCURVE",
"107 122 CURVE SMOOTH",
"107 215 OFFCURVE",
"217 242 OFFCURVE",
"315 253 CURVE",
"315 107 LINE",
"315 107 OFFCURVE",
"282 34 OFFCURVE",
"200 34 CURVE SMOOTH"
);
},
{
closed = 1;
nodes = (
"360 576 OFFCURVE",
"372 675 OFFCURVE",
"372 675 CURVE",
"327 681 LINE",
"327 679 LINE",
"327 679 OFFCURVE",
"314 620 OFFCURVE",
"233 620 CURVE SMOOTH",
"153 620 OFFCURVE",
"141 679 OFFCURVE",
"141 679 CURVE",
"141 681 LINE",
"96 675 LINE",
"96 675 OFFCURVE",
"106 576 OFFCURVE",
"233 576 CURVE SMOOTH"
);
}
);
width = 477;
},
{
layerId = "85DC84FC-A9CD-42A1-AFE4-850615EB4B70";
paths = (
{
closed = 1;
nodes = (
"284 -11 OFFCURVE",
"312 51 OFFCURVE",
"312 51 CURVE",
"317 51 LINE",
"324 7 OFFCURVE",
"344 -11 OFFCURVE",
"383 -11 CURVE SMOOTH",
"425 -11 OFFCURVE",
"494 11 OFFCURVE",
"494 11 CURVE",
"490 63 LINE",
"490 63 OFFCURVE",
"468 56 OFFCURVE",
"456 56 CURVE SMOOTH",
"446 56 OFFCURVE",
"435 67 OFFCURVE",
"435 109 CURVE SMOOTH",
"435 336 LINE SMOOTH",
"435 471 OFFCURVE",
"359 511 OFFCURVE",
"242 511 CURVE SMOOTH",
"164 511 OFFCURVE",
"87 471 OFFCURVE",
"87 471 CURVE",
"100 407 LINE",
"100 407 OFFCURVE",
"172 444 OFFCURVE",
"219 444 CURVE SMOOTH",
"277 444 OFFCURVE",
"302 418 OFFCURVE",
"302 325 CURVE SMOOTH",
"302 296 LINE",
"195 287 OFFCURVE",
"27 253 OFFCURVE",
"27 120 CURVE SMOOTH",
"27 38 OFFCURVE",
"89 -11 OFFCURVE",
"181 -11 CURVE SMOOTH"
);
},
{
closed = 1;
nodes = (
"190 56 OFFCURVE",
"166 82 OFFCURVE",
"166 137 CURVE SMOOTH",
"166 207 OFFCURVE",
"219 234 OFFCURVE",
"302 243 CURVE",
"302 111 LINE",
"302 111 OFFCURVE",
"280 56 OFFCURVE",
"225 56 CURVE SMOOTH"
);
},
{
closed = 1;
nodes = (
"410 563 OFFCURVE",
"406 686 OFFCURVE",
"406 686 CURVE",
"339 695 LINE",
"339 691 LINE",
"339 691 OFFCURVE",
"336 636 OFFCURVE",
"255 636 CURVE SMOOTH",
"176 636 OFFCURVE",
"172 691 OFFCURVE",
"172 691 CURVE",
"172 695 LINE",
"106 686 LINE",
"106 686 OFFCURVE",
"101 563 OFFCURVE",
"255 563 CURVE SMOOTH"
);
}
);
width = 513;
}
);
note = abreve;
unicode = 0103;
},
